<svg xmlns="http://www.w3.org/2000/svg" viewBox="0 0 3710 3710" width="3710" height="3710">
	<defs>
		<linearGradient id="grd1" gradientUnits="userSpaceOnUse"  x1="1087.25" y1="3098.437" x2="952.036" y2="-903.962">
			<stop offset="0" stop-color="#fa9522"  />
			<stop offset="1" stop-color="#fa9522"  />
		</linearGradient>
		<linearGradient id="grd2" gradientUnits="userSpaceOnUse"  x1="858.155" y1="2570.436" x2="2391.157" y2="3544.345">
			<stop offset="0" stop-color="#a737d5"  />
			<stop offset="1" stop-color="#ef497a"  />
		</linearGradient>
		<linearGradient id="grd3" gradientUnits="userSpaceOnUse"  x1="918.632" y1="2475.489" x2="2451.77" y2="3449.485">
			<stop offset="0" stop-color="#a737d5"  />
			<stop offset="1" stop-color="#ef497a"  />
		</linearGradient>
		<linearGradient id="grd4" gradientUnits="userSpaceOnUse"  x1="2345.385" y1="358.455" x2="1681.913" y2="1231.237">
			<stop offset="0" stop-color="#263138"  />
			<stop offset="1" stop-color="#263138"  />
		</linearGradient>
		<linearGradient id="grd5" gradientUnits="userSpaceOnUse"  x1="2558.499" y1="501.006" x2="1886.367" y2="1385.18">
			<stop offset="0" stop-color="#263138"  />
			<stop offset="1" stop-color="#263138"  />
		</linearGradient>
		<linearGradient id="grd6" gradientUnits="userSpaceOnUse"  x1="2667.262" y1="613.141" x2="2200.139" y2="1470.875">
			<stop offset="0" stop-color="#263138"  />
			<stop offset="1" stop-color="#263138"  />
		</linearGradient>
		<linearGradient id="grd7" gradientUnits="userSpaceOnUse"  x1="1179.997" y1="-2291.916" x2="1183.895" y2="-1929.929">
			<stop offset="0" stop-color="#21c0dc"  />
			<stop offset="1" stop-color="#21c0dc"  />
		</linearGradient>
		<linearGradient id="grd8" gradientUnits="userSpaceOnUse"  x1="1174.282" y1="-2292.893" x2="1178.179" y2="-1930.908">
			<stop offset="0" stop-color="#21c0dc"  />
			<stop offset="1" stop-color="#21c0dc"  />
		</linearGradient>
		<linearGradient id="grd9" gradientUnits="userSpaceOnUse"  x1="1105.539" y1="-2664.702" x2="1109.823" y2="-2266.771">
			<stop offset="0" stop-color="#21c0dc"  />
			<stop offset="1" stop-color="#21c0dc"  />
		</linearGradient>
		<linearGradient id="grd10" gradientUnits="userSpaceOnUse"  x1="1524.561" y1="-2332.762" x2="1528.459" y2="-1970.776">
			<stop offset="0" stop-color="#21c0dc"  />
			<stop offset="1" stop-color="#21c0dc"  />
		</linearGradient>
		<linearGradient id="grd11" gradientUnits="userSpaceOnUse"  x1="1518.545" y1="-2333.163" x2="1522.443" y2="-1971.178">
			<stop offset="0" stop-color="#21c0dc"  />
			<stop offset="1" stop-color="#21c0dc"  />
		</linearGradient>
		<linearGradient id="grd12" gradientUnits="userSpaceOnUse"  x1="1405.237" y1="-2671.345" x2="1409.522" y2="-2273.415">
			<stop offset="0" stop-color="#21c0dc"  />
			<stop offset="1" stop-color="#21c0dc"  />
		</linearGradient>
		<linearGradient id="grd13" gradientUnits="userSpaceOnUse"  x1="1794.813" y1="-2293.968" x2="1798.711" y2="-1931.982">
			<stop offset="0" stop-color="#21c0dc"  />
			<stop offset="1" stop-color="#21c0dc"  />
		</linearGradient>
		<linearGradient id="grd14" gradientUnits="userSpaceOnUse"  x1="1788.766" y1="-2296.205" x2="1792.663" y2="-1934.219">
			<stop offset="0" stop-color="#21c0dc"  />
			<stop offset="1" stop-color="#21c0dc"  />
		</linearGradient>
		<linearGradient id="grd15" gradientUnits="userSpaceOnUse"  x1="1672.457" y1="-2670.729" x2="1676.741" y2="-2272.799">
			<stop offset="0" stop-color="#21c0dc"  />
			<stop offset="1" stop-color="#21c0dc"  />
		</linearGradient>
		<linearGradient id="grd16" gradientUnits="userSpaceOnUse"  x1="1928.957" y1="-2336.007" x2="1932.855" y2="-1974.021">
			<stop offset="0" stop-color="#21c0dc"  />
			<stop offset="1" stop-color="#21c0dc"  />
		</linearGradient>
		<linearGradient id="grd17" gradientUnits="userSpaceOnUse"  x1="1920.691" y1="-2337.823" x2="1924.588" y2="-1975.836">
			<stop offset="0" stop-color="#21c0dc"  />
			<stop offset="1" stop-color="#21c0dc"  />
		</linearGradient>
		<linearGradient id="grd18" gradientUnits="userSpaceOnUse"  x1="1828.148" y1="-2675.082" x2="1832.433" y2="-2277.151">
			<stop offset="0" stop-color="#21c0dc"  />
			<stop offset="1" stop-color="#21c0dc"  />
		</linearGradient>
		<linearGradient id="grd19" gradientUnits="userSpaceOnUse"  x1="455.684" y1="1819.597" x2="1647.473" y2="1819.597">
			<stop offset="0" stop-color="#c82333"  />
			<stop offset="1" stop-color="#c82333"  />
		</linearGradient>
		<linearGradient id="grd20" gradientUnits="userSpaceOnUse"  x1="273.394" y1="2672.258" x2="1084.281" y2="1891.592">
			<stop offset="0" stop-color="#bccffb"  />
			<stop offset="1" stop-color="#bccffb"  />
		</linearGradient>
		<linearGradient id="grd21" gradientUnits="userSpaceOnUse"  x1="407.279" y1="2811.326" x2="1218.165" y2="2030.66">
			<stop offset="0" stop-color="#bccffb"  />
			<stop offset="1" stop-color="#bccffb"  />
		</linearGradient>
		<linearGradient id="grd22" gradientUnits="userSpaceOnUse"  x1="536.013" y1="2945.046" x2="1346.9" y2="2164.38">
			<stop offset="0" stop-color="#bccffb"  />
			<stop offset="1" stop-color="#bccffb"  />
		</linearGradient>
		<linearGradient id="grd23" gradientUnits="userSpaceOnUse"  x1="1927.174" y1="1511.461" x2="1669.664" y2="2203.203">
			<stop offset="0" stop-color="#bccffb"  />
			<stop offset="1" stop-color="#bccffb"  />
		</linearGradient>
		<linearGradient id="grd24" gradientUnits="userSpaceOnUse"  x1="369.671" y1="2772.264" x2="1180.557" y2="1991.598">
			<stop offset="0" stop-color="#bccffb"  />
			<stop offset="1" stop-color="#bccffb"  />
		</linearGradient>
		<linearGradient id="grd25" gradientUnits="userSpaceOnUse"  x1="503.556" y1="2911.332" x2="1314.442" y2="2130.666">
			<stop offset="0" stop-color="#bccffb"  />
			<stop offset="1" stop-color="#bccffb"  />
		</linearGradient>
		<linearGradient id="grd26" gradientUnits="userSpaceOnUse"  x1="632.292" y1="3045.05" x2="1443.178" y2="2264.384">
			<stop offset="0" stop-color="#bccffb"  />
			<stop offset="1" stop-color="#bccffb"  />
		</linearGradient>
		<linearGradient id="grd27" gradientUnits="userSpaceOnUse"  x1="766.177" y1="3184.118" x2="1577.064" y2="2403.452">
			<stop offset="0" stop-color="#a6c2fa"  />
			<stop offset="1" stop-color="#a6c2fa"  />
		</linearGradient>
		<linearGradient id="grd28" gradientUnits="userSpaceOnUse"  x1="457.938" y1="2863.831" x2="1268.825" y2="2083.165">
			<stop offset="0" stop-color="#bccffb"  />
			<stop offset="1" stop-color="#bccffb"  />
		</linearGradient>
		<linearGradient id="grd29" gradientUnits="userSpaceOnUse"  x1="588.823" y1="2999.899" x2="1399.709" y2="2219.233">
			<stop offset="0" stop-color="#bccffb"  />
			<stop offset="1" stop-color="#bccffb"  />
		</linearGradient>
		<linearGradient id="grd30" gradientUnits="userSpaceOnUse"  x1="720.558" y1="3133.618" x2="1531.445" y2="2352.952">
			<stop offset="0" stop-color="#bccffb"  />
			<stop offset="1" stop-color="#bccffb"  />
		</linearGradient>
		<linearGradient id="grd31" gradientUnits="userSpaceOnUse"  x1="548.541" y1="2958.058" x2="1359.428" y2="2177.391">
			<stop offset="0" stop-color="#bccffb"  />
			<stop offset="1" stop-color="#bccffb"  />
		</linearGradient>
		<linearGradient id="grd32" gradientUnits="userSpaceOnUse"  x1="682.426" y1="3097.126" x2="1493.313" y2="2316.46">
			<stop offset="0" stop-color="#bccffb"  />
			<stop offset="1" stop-color="#bccffb"  />
		</linearGradient>
		<linearGradient id="grd33" gradientUnits="userSpaceOnUse"  x1="811.161" y1="3230.845" x2="1622.048" y2="2450.179">
			<stop offset="0" stop-color="#bccffb"  />
			<stop offset="1" stop-color="#bccffb"  />
		</linearGradient>
		<linearGradient id="grd34" gradientUnits="userSpaceOnUse"  x1="1265.173" y1="2965.772" x2="1532.111" y2="2577.957">
			<stop offset="0" stop-color="#bccffb"  />
			<stop offset="1" stop-color="#bccffb"  />
		</linearGradient>
		<linearGradient id="grd35" gradientUnits="userSpaceOnUse"  x1="2830.483" y1="3234.22" x2="2693.507" y2="3234.22">
			<stop offset="0" stop-color="#263138"  />
			<stop offset="1" stop-color="#263138"  />
		</linearGradient>
		<linearGradient id="grd36" gradientUnits="userSpaceOnUse"  x1="2830.992" y1="3186.984" x2="2696.906" y2="3186.984">
			<stop offset="0" stop-color="#263138"  />
			<stop offset="1" stop-color="#263138"  />
		</linearGradient>
		<linearGradient id="grd37" gradientUnits="userSpaceOnUse"  x1="2818.306" y1="3153.14" x2="2779.399" y2="3153.14">
			<stop offset="0" stop-color="#febbba"  />
			<stop offset="1" stop-color="#ff928e"  />
		</linearGradient>
		<linearGradient id="grd38" gradientUnits="userSpaceOnUse"  x1="3105.331" y1="3229.067" x2="3053.536" y2="3229.067">
			<stop offset="0" stop-color="#263138"  />
			<stop offset="1" stop-color="#263138"  />
		</linearGradient>
		<linearGradient id="grd39" gradientUnits="userSpaceOnUse"  x1="3106.047" y1="3153.079" x2="3031.312" y2="3153.079">
			<stop offset="0" stop-color="#263138"  />
			<stop offset="1" stop-color="#263138"  />
		</linearGradient>
		<linearGradient id="grd40" gradientUnits="userSpaceOnUse"  x1="3064.814" y1="3117.058" x2="3019.161" y2="3117.058">
			<stop offset="0" stop-color="#febbba"  />
			<stop offset="1" stop-color="#ff928e"  />
		</linearGradient>
		<linearGradient id="grd41" gradientUnits="userSpaceOnUse"  x1="2015.56" y1="3697.706" x2="2722.486" y2="2593.558">
			<stop offset="0" stop-color="#21c0dc"  />
			<stop offset="1" stop-color="#21c0dc"  />
		</linearGradient>
		<linearGradient id="grd42" gradientUnits="userSpaceOnUse"  x1="288.704" y1="-6122.056" x2="385.197" y2="-5750.558">
			<stop offset="0" stop-color="#263138"  />
			<stop offset="1" stop-color="#263138"  />
		</linearGradient>
		<linearGradient id="grd43" gradientUnits="userSpaceOnUse"  x1="2924.272" y1="2962.751" x2="2902.239" y2="2918.685">
			<stop offset="0" stop-color="#4f52ff"  />
			<stop offset="1" stop-color="#4042e2"  />
		</linearGradient>
		<linearGradient id="grd44" gradientUnits="userSpaceOnUse"  x1="2805.303" y1="2521.993" x2="2970.831" y2="2668.572">
			<stop offset="0" stop-color="#febbba"  />
			<stop offset="1" stop-color="#ff928e"  />
		</linearGradient>
		<linearGradient id="grd45" gradientUnits="userSpaceOnUse"  x1="774.154" y1="-6586.061" x2="875.138" y2="-6197.273">
			<stop offset="0" stop-color="#263138"  />
			<stop offset="1" stop-color="#263138"  />
		</linearGradient>
		<linearGradient id="grd46" gradientUnits="userSpaceOnUse"  x1="197.584" y1="-6506.616" x2="298.568" y2="-6117.828">
			<stop offset="0" stop-color="#263138"  />
			<stop offset="1" stop-color="#263138"  />
		</linearGradient>
		<linearGradient id="grd47" gradientUnits="userSpaceOnUse"  x1="2542.325" y1="2439.186" x2="2411.965" y2="2439.186">
			<stop offset="0" stop-color="#febbba"  />
			<stop offset="1" stop-color="#ff928e"  />
		</linearGradient>
		<linearGradient id="grd48" gradientUnits="userSpaceOnUse"  x1="2618.981" y1="2134.348" x2="2620.376" y2="2372.857">
			<stop offset="0" stop-color="#febbba"  />
			<stop offset="1" stop-color="#ff928e"  />
		</linearGradient>
		<linearGradient id="grd49" gradientUnits="userSpaceOnUse"  x1="2548.09" y1="2125.24" x2="2636.45" y2="2285.467">
			<stop offset="0" stop-color="#febbba"  />
			<stop offset="1" stop-color="#ff928e"  />
		</linearGradient>
		<linearGradient id="grd50" gradientUnits="userSpaceOnUse"  x1="2684.926" y1="2048.826" x2="2550.747" y2="2029.466">
			<stop offset="0" stop-color="#263138"  />
			<stop offset="1" stop-color="#263138"  />
		</linearGradient>
		<linearGradient id="grd51" gradientUnits="userSpaceOnUse"  x1="2747.605" y1="2206.192" x2="2684.514" y2="2119.53">
			<stop offset="0" stop-color="#febbba"  />
			<stop offset="1" stop-color="#ff928e"  />
		</linearGradient>
		<linearGradient id="grd52" gradientUnits="userSpaceOnUse"  x1="2414.587" y1="2442.075" x2="2380.049" y2="2442.075">
			<stop offset="0" stop-color="#febbba"  />
			<stop offset="1" stop-color="#ff928e"  />
		</linearGradient>
		<linearGradient id="grd53" gradientUnits="userSpaceOnUse"  x1="2037.191" y1="2436.156" x2="3526.566" y2="3522.63">
			<stop offset="0" stop-color="#21c0dc"  />
			<stop offset="1" stop-color="#21c0dc"  />
		</linearGradient>
		<linearGradient id="grd54" gradientUnits="userSpaceOnUse"  x1="1873.085" y1="2318.352" x2="2021.349" y2="2318.352">
			<stop offset="0" stop-color="#498184"  />
			<stop offset="1" stop-color="#4b898d"  />
		</linearGradient>
		<linearGradient id="grd55" gradientUnits="userSpaceOnUse"  x1="-230.949" y1="-6379.2" x2="-129.965" y2="-5990.412">
			<stop offset="0" stop-color="#263138"  />
			<stop offset="1" stop-color="#263138"  />
		</linearGradient>
		<linearGradient id="grd56" gradientUnits="userSpaceOnUse"  x1="2226.577" y1="2424.646" x2="2887.656" y2="3104.037">
			<stop offset="0" stop-color="#263138"  />
			<stop offset="1" stop-color="#263138"  />
		</linearGradient>
		<linearGradient id="grd57" gradientUnits="userSpaceOnUse"  x1="2209.465" y1="2484.412" x2="2870.545" y2="3163.806">
			<stop offset="0" stop-color="#263138"  />
			<stop offset="1" stop-color="#263138"  />
		</linearGradient>
		<linearGradient id="grd58" gradientUnits="userSpaceOnUse"  x1="2769.908" y1="2573.965" x2="2915.162" y2="2702.591">
			<stop offset="0" stop-color="#febbba"  />
			<stop offset="1" stop-color="#ff928e"  />
		</linearGradient>
	</defs>
	<style>
		tspan { white-space:pre }
		.shp0 { fill: #f5f5f5 } 
		.shp1 { fill: #21c0dc } 
		.shp2 { mix-blend-mode: soft-light;fill: #ffffff } 
		.shp3 { fill: url(#grd1) } 
		.shp4 { fill: url(#grd2) } 
		.shp5 { fill: url(#grd3) } 
		.shp6 { fill: #fafafa } 
		.shp7 { opacity: 0.58;fill: #ffffff } 
		.shp8 { opacity: 0.58;fill: #e0e0e0 } 
		.shp9 { fill: #ebebeb } 
		.shp10 { fill: #ffffff } 
		.shp11 { fill: url(#grd4) } 
		.shp12 { fill: #91b3fa } 
		.shp13 { fill: url(#grd5) } 
		.shp14 { fill: url(#grd6) } 
		.shp15 { fill: url(#grd7) } 
		.shp16 { fill: url(#grd8) } 
		.shp17 { fill: #e0e0e0 } 
		.shp18 { fill: url(#grd9) } 
		.shp19 { fill: url(#grd10) } 
		.shp20 { fill: url(#grd11) } 
		.shp21 { fill: url(#grd12) } 
		.shp22 { fill: url(#grd13) } 
		.shp23 { fill: url(#grd14) } 
		.shp24 { fill: url(#grd15) } 
		.shp25 { fill: url(#grd16) } 
		.shp26 { fill: url(#grd17) } 
		.shp27 { fill: url(#grd18) } 
		.shp28 { fill: url(#grd19) } 
		.shp29 { opacity: 0.2;fill: #ffffff } 
		.shp30 { fill: url(#grd20) } 
		.shp31 { fill: url(#grd21) } 
		.shp32 { fill: url(#grd22) } 
		.shp33 { fill: url(#grd23) } 
		.shp34 { fill: url(#grd24) } 
		.shp35 { fill: url(#grd25) } 
		.shp36 { fill: url(#grd26) } 
		.shp37 { fill: url(#grd27) } 
		.shp38 { fill: url(#grd28) } 
		.shp39 { fill: url(#grd29) } 
		.shp40 { fill: url(#grd30) } 
		.shp41 { fill: url(#grd31) } 
		.shp42 { fill: url(#grd32) } 
		.shp43 { fill: url(#grd33) } 
		.shp44 { fill: url(#grd34) } 
		.shp45 { fill: url(#grd35) } 
		.shp46 { fill: url(#grd36) } 
		.shp47 { fill: url(#grd37) } 
		.shp48 { fill: url(#grd38) } 
		.shp49 { fill: url(#grd39) } 
		.shp50 { fill: url(#grd40) } 
		.shp51 { fill: url(#grd41) } 
		.shp52 { fill: url(#grd42) } 
		.shp53 { fill: url(#grd43) } 
		.shp54 { fill: url(#grd44) } 
		.shp55 { fill: url(#grd45) } 
		.shp56 { fill: url(#grd46) } 
		.shp57 { fill: url(#grd47) } 
		.shp58 { fill: url(#grd48) } 
		.shp59 { fill: url(#grd49) } 
		.shp60 { fill: url(#grd50) } 
		.shp61 { fill: url(#grd51) } 
		.shp62 { fill: url(#grd52) } 
		.shp63 { fill: url(#grd53) } 
		.shp64 { fill: url(#grd54) } 
		.shp65 { fill: url(#grd55) } 
		.shp66 { opacity: 0.561;fill: url(#grd56) } 
		.shp67 { opacity: 0.58;fill: url(#grd57) } 
		.shp68 { fill: url(#grd58) } 
	</style>
	<path id="&lt;Path&gt; 297 " class="shp0" d="M3319.67 3263C3319.67 3330.41 2661.61 3385 1849.84 3385C1038.06 3385 380 3330.41 380 3263C380 3195.63 1038.06 3141 1849.84 3141C2661.61 3141 3319.67 3195.63 3319.67 3263Z" />
	<path id="&lt;Path&gt; 297 " class="shp0" d="M437.67 -91.29C437.67 -72.52 177.25 -57.32 -144 -57.32C-465.25 -57.32 -725.67 -72.52 -725.67 -91.29C-725.67 -110.05 -465.25 -125.26 -144 -125.26C177.25 -125.26 437.67 -110.05 437.67 -91.29Z" />
	<g id="Illustration">
		<g id="&lt;Group&gt;">
			<g id="&lt;Group&gt;">
				<g id="&lt;Group&gt;">
					<path id="&lt;Path&gt;" class="shp1" d="M1172.91 1565.31C1183.17 1674.88 1207.23 1819.73 1236.16 1944.56L1254.32 1944.56C1216.92 1793.93 1182.5 1587.63 1192.63 1349.84C1202.86 1110.03 1260.52 818.87 1153 679.79C1063.5 564.03 683.76 546.73 558.89 544.18C543.29 543.86 534.35 562.16 544.06 574.61C591.94 635.96 692.18 778.04 700.92 902.12C712.43 1065.65 837.22 1194.01 961.21 1247.44C1085.21 1300.87 1151.99 1341.63 1172.91 1565.31Z" />
					<path id="&lt;Path&gt;" class="shp2" d="M715.02 645.26C791.83 665.12 864.48 700.81 928.04 749.69C959.88 774.03 988.74 802.64 1013.62 834.57C1038.24 866.69 1058.92 902.26 1073.27 940.47L1078.58 954.82C1080.32 959.61 1081.62 964.56 1083.15 969.42C1084.57 974.3 1086.17 979.22 1087.43 984.07L1091.23 998.6C1096.33 1017.97 1101.34 1037.36 1106.15 1056.8C1115.84 1095.68 1124.92 1134.71 1133.4 1173.88C1150.4 1252.21 1165.02 1331.06 1174.88 1410.79C1175.12 1412.7 1173.79 1414.45 1171.91 1414.69C1170.1 1414.92 1168.44 1413.67 1168.11 1411.86L1168.09 1411.75C1161.08 1372.51 1153.33 1333.26 1144.84 1294.24C1136.53 1255.17 1127.76 1216.21 1118.57 1177.35L1104.6 1119.11L1089.99 1061.03C1085.13 1041.66 1080.08 1022.35 1074.94 1003.06L1071.11 988.59C1069.84 983.76 1068.32 979.18 1066.93 974.47C1065.48 969.8 1064.27 965.05 1062.63 960.45L1057.6 946.67C1044.12 909.91 1024.25 875.88 1001.07 844.52C989.15 829.09 976.67 814.01 962.82 800.23L957.73 794.97L952.43 789.92C948.89 786.56 945.43 783.1 941.82 779.82C934.5 773.36 927.25 766.79 919.59 760.72C889.38 735.87 856.2 714.79 821.72 696.29C787.23 677.84 750.95 662.26 713.71 650.71L713.54 650.66C712.09 650.21 711.27 648.64 711.71 647.16C712.14 645.73 713.6 644.9 715.02 645.26Z" />
				</g>
				<g id="&lt;Group&gt;">
					<path id="&lt;Path&gt;" class="shp1" d="M1176.49 1713.71C1241.44 1810.83 1233.1 1865.17 1235.1 1911.19C1235.45 1919.36 1235.89 1930.91 1236.82 1944.56L1254.56 1944.56C1250.93 1925.82 1248.37 1906.93 1247.45 1888.41C1241.13 1761.3 1212.98 1544.34 1105.35 1414.56C997.72 1284.78 879.87 1272.94 731.36 1390.93C607.6 1489.24 530.4 1538.86 485.13 1548.08C473.92 1550.37 468.2 1563.26 473.66 1573.49C502.69 1627.95 584.79 1753.05 722.63 1744.25C898.46 1733.01 1111.55 1616.6 1176.49 1713.71Z" />
					<path id="&lt;Path&gt; 297 " class="shp0" d="M563.67 -107.29C563.67 -88.52 303.25 -73.32 -18 -73.32C-339.25 -73.32 -599.67 -88.52 -599.67 -107.29C-599.67 -126.05 -339.25 -141.26 -18 -141.26C303.25 -141.26 563.67 -126.05 563.67 -107.29Z" />
					<path id="&lt;Path&gt;" class="shp2" d="M781.67 1547.23C791.39 1537.8 801.7 1529.31 812.33 1521.11C822.96 1512.93 833.91 1505.15 845.32 1498.04C868.05 1483.75 892.31 1471.55 918.14 1463.14C931.06 1458.99 944.36 1455.79 957.97 1454.02C971.58 1452.35 985.49 1452.12 999.29 1453.86C1002.72 1454.43 1006.19 1454.76 1009.59 1455.54C1012.97 1456.35 1016.46 1457.01 1019.74 1457.96L1039.12 1464.09L1058.08 1471.6L1076.47 1480.59C1100.56 1493.53 1122.36 1511 1140.5 1531.59C1158.78 1552.11 1173.08 1575.77 1184.85 1600.27L1189.26 1609.47C1190.78 1612.52 1191.88 1615.75 1193.21 1618.88C1195.71 1625.19 1198.4 1631.44 1200.73 1637.8L1207.25 1657.07C1209.57 1663.45 1211.04 1670.07 1212.91 1676.58C1220.27 1702.63 1225.35 1729.19 1229.74 1755.77C1229.98 1757.26 1229 1758.66 1227.54 1758.91C1226.15 1759.15 1224.83 1758.25 1224.5 1756.87L1224.48 1756.79C1218.29 1730.73 1212.33 1704.64 1203.81 1679.4C1199.95 1666.64 1195.05 1654.31 1190.5 1641.86C1188.04 1635.71 1185.24 1629.72 1182.64 1623.65C1181.26 1620.65 1180.11 1617.54 1178.55 1614.63L1174.02 1605.86C1162.03 1582.44 1147.48 1560.5 1130.09 1541.31C1112.69 1522.12 1092.04 1506.29 1069.43 1494.16L1052.09 1485.79L1034.13 1478.79L1015.68 1473.07C1012.61 1472.19 1009.61 1471.6 1006.57 1470.84C1003.54 1470.12 1000.42 1469.82 997.35 1469.27C984.97 1467.62 972.3 1467.72 959.72 1469.18C947.12 1470.55 934.57 1473.26 922.26 1476.92C897.59 1484.24 873.8 1495.16 850.94 1507.87C839.56 1514.32 828.28 1521.05 817.33 1528.35C806.42 1535.65 795.63 1543.37 785.35 1551.47L785.29 1551.53C784.07 1552.48 782.33 1552.26 781.39 1551.02C780.51 1549.86 780.65 1548.22 781.67 1547.23Z" />
				</g>
			</g>
			<g id="&lt;Group&gt;">
				<path id="&lt;Path&gt;" class="shp3" d="M1095.83 954.85C1095.83 859.33 1173.26 781.89 1268.79 781.89L2739.61 781.89C2820.75 781.89 2887.66 845.48 2891.79 926.52L3000.35 3058.94C3003.58 3122.35 2953.66 3175.85 2890.17 3177L1204.43 3207.64C1144.77 3208.72 1095.83 3160.66 1095.83 3101L1095.83 954.85Z" />
				<path id="&lt;Path&gt;" class="shp4" d="M1454.8 3171.39L1454.75 3171.39L1266.13 3168.95C1203.05 3168.13 1151.74 3116.15 1151.74 3053.07L1151.74 2768.29C1151.74 2766.06 1153.54 2764.26 1155.77 2764.26C1157.99 2764.26 1159.79 2766.06 1159.79 2768.29L1159.79 3053.07C1159.79 3111.76 1207.54 3160.13 1266.23 3160.89L1454.85 3163.33C1457.08 3163.36 1458.86 3165.19 1458.83 3167.41C1458.8 3169.62 1457 3171.39 1454.8 3171.39Z" />
				<path id="&lt;Path&gt;" class="shp5" d="M1155.77 2684.1C1153.54 2684.1 1151.74 2682.3 1151.74 2680.07L1151.74 2633.95C1151.74 2631.72 1153.54 2629.92 1155.77 2629.92C1157.99 2629.92 1159.79 2631.72 1159.79 2633.95L1159.79 2680.07C1159.79 2682.3 1157.99 2684.1 1155.77 2684.1Z" />
				<g id="&lt;Group&gt;">
					<path id="&lt;Path&gt;" class="shp6" d="M1257.99 856.39C1257.81 826.98 1283.68 804.22 1312.82 808.17C1506.11 834.38 2170.79 915.45 2720.33 873.27C2745.4 871.34 2767.15 890.33 2768.48 915.43L2878.03 2976.7C2879.53 3004.96 2857.95 3029.13 2829.7 3030.8C2598.57 3044.48 1646.71 3097.35 1307.19 3061.79C1286.53 3059.63 1270.84 3042.23 1270.72 3021.45L1257.99 856.39Z" />
					<g id="Folder 1">
						<path id="&lt;Path&gt;" class="shp7" d="M2677.91 1175.79L1385.96 1175.79C1380.2 1175.79 1375.54 1171.12 1375.54 1165.36L1375.54 1009.49C1375.54 1003.73 1380.2 999.07 1385.96 999.07L2677.91 999.07C2683.66 999.07 2688.33 1003.73 2688.33 1009.49L2688.33 1165.36C2688.33 1171.12 2683.66 1175.79 2677.91 1175.79Z" />
						<path id="&lt;Path&gt;" class="shp8" d="M2701.03 2003.01L1375.49 2003.01C1372.26 2003.01 1369.63 2000.38 1369.63 1997.15L1369.63 1920.51C1369.63 1917.27 1372.26 1914.65 1375.49 1914.65L2701.03 1914.65C2704.27 1914.65 2706.89 1917.27 2706.89 1920.51L2706.89 1997.15C2706.89 2000.38 2704.27 2003.01 2701.03 2003.01Z" />
						<path id="&lt;Path&gt;" class="shp8" d="M2702.61 2139.34L1373.91 2139.34C1371.55 2139.34 1369.63 2137.42 1369.63 2135.06L1369.63 2055.26C1369.63 2052.89 1371.55 2050.98 1373.91 2050.98L2702.61 2050.98C2704.97 2050.98 2706.89 2052.89 2706.89 2055.26L2706.89 2135.06C2706.89 2137.42 2704.97 2139.34 2702.61 2139.34Z" />
						<path id="&lt;Path&gt;" class="shp8" d="M2730.78 2917.76L1375.9 2917.76C1373.05 2917.76 1370.74 2915.45 1370.74 2912.6L1370.74 2834.56C1370.74 2831.71 1373.05 2829.4 1375.9 2829.4L2730.78 2829.4C2733.63 2829.4 2735.94 2831.71 2735.94 2834.56L2735.94 2912.6C2735.94 2915.45 2733.63 2917.76 2730.78 2917.76Z" />
						<path id="&lt;Path&gt;" class="shp9" d="M2673.35 1822.08L1401.69 1822.08C1383.99 1822.08 1369.63 1807.73 1369.63 1790.02L1369.63 1313.87C1369.63 1296.17 1383.99 1281.82 1401.69 1281.82L2651.79 1281.82C2668.93 1281.82 2683.04 1295.3 2683.81 1312.42L2705.37 1788.57C2706.2 1806.83 2691.62 1822.08 2673.35 1822.08Z" />
						<path id="&lt;Compound Path&gt;" fill-rule="evenodd" class="shp10" d="M2674.09 1827.13L1402.43 1827.13C1381.97 1827.13 1365.32 1810.48 1365.32 1790.02L1365.32 1313.87C1365.32 1293.41 1381.97 1276.77 1402.43 1276.77L2652.53 1276.77C2672.41 1276.77 2688.7 1292.33 2689.6 1312.2L2711.16 1788.34C2711.62 1798.56 2707.98 1808.27 2700.92 1815.66C2693.84 1823.06 2684.32 1827.13 2674.09 1827.13ZM1402.43 1286.87C1387.54 1286.87 1375.42 1298.98 1375.42 1313.87L1375.42 1790.02C1375.42 1804.92 1387.54 1817.03 1402.43 1817.03L2674.09 1817.03C2681.54 1817.03 2688.47 1814.07 2693.61 1808.69C2698.76 1803.3 2701.41 1796.24 2701.07 1788.8L2679.51 1312.65C2678.85 1298.19 2667 1286.87 2652.53 1286.87L1402.43 1286.87Z" />
						<path id="&lt;Path&gt;" class="shp9" d="M2693.67 2775.5L1411.41 2775.5C1388.95 2775.5 1370.74 2757.3 1370.74 2734.84L1370.74 2275.9C1370.74 2253.44 1388.95 2235.24 1411.41 2235.24L2675.88 2235.24C2697.73 2235.24 2715.67 2252.5 2716.51 2274.32L2734.31 2733.26C2735.2 2756.32 2716.75 2775.5 2693.67 2775.5Z" />
						<path id="&lt;Compound Path&gt;" fill-rule="evenodd" class="shp10" d="M2693.67 2780.55L1411.41 2780.55C1386.2 2780.55 1365.69 2760.04 1365.69 2734.84L1365.69 2275.9C1365.69 2250.7 1386.2 2230.19 1411.41 2230.19L2675.88 2230.19C2700.54 2230.19 2720.61 2249.49 2721.56 2274.13L2739.35 2733.07C2739.84 2745.61 2735.31 2757.49 2726.62 2766.53C2717.92 2775.57 2706.22 2780.55 2693.67 2780.55ZM1411.41 2240.29C1391.77 2240.29 1375.79 2256.26 1375.79 2275.9L1375.79 2734.84C1375.79 2754.48 1391.77 2770.45 1411.41 2770.45L2693.67 2770.45C2703.45 2770.45 2712.56 2766.57 2719.34 2759.53C2726.12 2752.48 2729.64 2743.23 2729.26 2733.46L2711.47 2274.52C2710.72 2255.32 2695.09 2240.29 2675.88 2240.29L1411.41 2240.29Z" />
						<path id="&lt;Path&gt;" class="shp10" d="M1769.63 1822.17L1760.65 1281.9L1770.75 1281.73L1779.73 1822L1769.63 1822.17Z" />
						<path id="&lt;Path&gt;" class="shp10" d="M2264.48 1822.22L2249.89 1281.95L2259.99 1281.68L2274.57 1821.94L2264.48 1822.22Z" />
						<path id="&lt;Path&gt;" class="shp10" d="M1770.26 1457.61L1770.12 1447.52L2690.22 1434.05L2690.36 1444.15L1770.26 1457.61Z" />
						<path id="&lt;Path&gt;" class="shp10" d="M2698.17 1661.28L1772.43 1661.28L1772.43 1651.18L2698.17 1651.18L2698.17 1661.28Z" />
						<path id="&lt;Path&gt;" class="shp10" d="M1770.75 2775.56L1760.65 2775.44L1767.38 2235.18L1777.48 2235.3L1770.75 2775.56Z" />
						<path id="&lt;Path&gt;" class="shp10" d="M2721.73 2371.57L1775.8 2371.57L1775.8 2361.47L2721.73 2361.47L2721.73 2371.57Z" />
						<path id="&lt;Path&gt;" class="shp10" d="M2725.1 2496.12L1769.07 2496.12L1769.07 2486.02L2725.1 2486.02L2725.1 2496.12Z" />
						<path id="&lt;Path&gt;" class="shp10" d="M2730.7 2646.95L1770.13 2634.97L1770.25 2624.87L2730.83 2636.85L2730.7 2646.95Z" />
					</g>
				</g>
				<path id="&lt;Compound Path&gt;" fill-rule="evenodd" class="shp11" d="M2102.41 700.6L1935.53 685.79L1921.5 532.71C1918.68 501.91 1937.91 473.27 1967.57 464.52C2000.09 454.92 2046.29 454.19 2099.42 491.15C2168.88 539.47 2169.88 609.29 2102.41 700.6ZM2067.64 573.03C2067.64 550.05 2049.01 531.42 2026.03 531.42C2003.05 531.42 1984.42 550.05 1984.42 573.03C1984.42 596.01 2003.05 614.64 2026.03 614.64C2049.01 614.64 2067.64 596.01 2067.64 573.03Z" />
				<path id="&lt;Compound Path&gt;" class="shp12" d="M1952.2 621.39C1950.14 621.39 1948.38 619.82 1948.19 617.73L1945.96 593.35C1945.76 591.14 1947.39 589.18 1949.6 588.98C1951.86 588.77 1953.78 590.4 1953.98 592.62L1956.21 617C1956.42 619.21 1954.78 621.17 1952.57 621.38C1952.44 621.39 1952.32 621.39 1952.2 621.39ZM1947.82 573.62C1945.76 573.62 1944.01 572.05 1943.82 569.96L1942.12 551.45C1939.43 522.11 1957.89 494.79 1986.02 486.49C2005.93 480.61 2026.46 479.77 2047.01 483.99C2049.19 484.43 2050.59 486.56 2050.14 488.74C2049.7 490.92 2047.59 492.31 2045.39 491.87C2026.14 487.93 2006.93 488.72 1988.3 494.21C1963.85 501.43 1947.8 525.2 1950.14 550.72L1951.83 569.23C1952.04 571.44 1950.41 573.4 1948.19 573.61C1948.07 573.62 1947.94 573.62 1947.82 573.62Z" />
				<path id="&lt;Path&gt;" class="shp13" d="M1707.76 784.71L1707.76 707.75C1707.76 681.18 1729.78 659.9 1756.33 660.81L2286.95 678.99C2310.49 679.8 2329.56 698.39 2330.98 721.91L2335.41 795.86L1707.76 784.71Z" />
				<path id="&lt;Path&gt;" class="shp12" d="M1905.62 689.81L1882.8 689.81C1880.57 689.81 1878.77 688.01 1878.77 685.79C1878.77 683.56 1880.57 681.76 1882.8 681.76L1905.62 681.76C1907.84 681.76 1909.64 683.56 1909.64 685.79C1909.64 688.01 1907.84 689.81 1905.62 689.81Z" />
				<path id="&lt;Path&gt;" class="shp12" d="M1736.48 760.54C1734.26 760.54 1732.46 758.74 1732.46 756.52L1732.46 725.38C1732.46 701.33 1752.03 681.76 1776.08 681.76L1859.98 681.76C1862.2 681.76 1864 683.56 1864 685.79C1864 688.01 1862.2 689.81 1859.98 689.81L1776.08 689.81C1756.47 689.81 1740.51 705.77 1740.51 725.38L1740.51 756.52C1740.51 758.74 1738.71 760.54 1736.48 760.54Z" />
				<path id="&lt;Path&gt;" class="shp14" d="M1491.56 804.14C1492.84 777.49 1514.82 756.54 1541.5 756.54L2469.38 756.52C2502.74 756.52 2531.27 780.53 2536.96 813.4L2537.74 817.94C2543.98 853.95 2516.25 886.88 2479.71 886.88L1527.76 886.88C1505.89 886.88 1488.46 868.6 1489.51 846.75L1491.56 804.14Z" />
			</g>
			<g id="&lt;Group&gt;">
				<g id="&lt;Group&gt;">
					<g id="&lt;Group&gt;">
						<path id="&lt;Path&gt;" class="shp15" d="M1214.3 1433.05C1233.39 1503.43 1191.82 1575.96 1121.44 1595.05C1051.06 1614.14 978.53 1572.57 959.44 1502.19C940.35 1431.81 981.93 1359.28 1052.3 1340.19C1122.68 1321.1 1195.21 1362.67 1214.3 1433.05Z" />
						<path id="&lt;Path&gt;" class="shp16" d="M1210.06 1434.2C1228.52 1502.24 1188.33 1572.35 1120.29 1590.81C1052.25 1609.27 982.14 1569.08 963.68 1501.04C945.22 1433 985.42 1362.88 1053.45 1344.43C1121.49 1325.97 1191.61 1366.16 1210.06 1434.2Z" />
						<path id="&lt;Path&gt;" class="shp7" d="M972.52 1448.12C971.9 1448.29 971.22 1448.32 970.55 1448.18C968.24 1447.71 966.75 1445.45 967.23 1443.15C976.56 1397.69 1010.16 1361.92 1054.9 1349.78C1062.05 1347.84 1069.37 1346.55 1076.68 1345.93C1079.02 1345.73 1081.09 1347.47 1081.29 1349.82C1081.49 1352.17 1079.76 1354.25 1077.4 1354.43C1070.6 1355.01 1063.79 1356.22 1057.14 1358.02C1015.52 1369.31 984.27 1402.59 975.59 1444.86C975.25 1446.49 974.03 1447.72 972.52 1448.12Z" />
						<path id="&lt;Path&gt;" class="shp17" d="M1194.55 1441.29C1210.17 1498.87 1176.15 1558.22 1118.57 1573.84C1060.98 1589.46 1001.64 1555.45 986.02 1497.86C970.4 1440.28 1004.41 1380.93 1062 1365.31C1119.58 1349.69 1178.93 1383.7 1194.55 1441.29Z" />
						<g id="&lt;Group&gt;">
							<path id="&lt;Compound Path&gt;" class="shp18" d="M1101.08 1549.86L1098 1538.52C1086.05 1541.26 1073.59 1541.64 1064.3 1540.25C1060.98 1539.76 1058.57 1536.84 1058.57 1533.49L1058.59 1522.14C1058.59 1517.97 1062.26 1514.83 1066.39 1515.37C1075.57 1516.59 1086.49 1516.57 1097.46 1513.59C1108.85 1510.5 1116.29 1504.33 1114.15 1496.42C1112.21 1489.28 1104.49 1486.81 1087.51 1486.86C1063.25 1486.81 1044.36 1481.36 1038.97 1461.48C1034.1 1443.52 1043.51 1426.25 1065.29 1416.41L1062.21 1405.06C1061.22 1401.41 1063.38 1397.65 1067.03 1396.66L1073.69 1394.85C1077.34 1393.86 1081.11 1396.02 1082.1 1399.67L1084.86 1409.85C1095.92 1407.32 1104.39 1407.03 1111.32 1407.54C1114.87 1407.8 1117.58 1410.81 1117.58 1414.37L1117.58 1424.86C1117.58 1428.9 1114.12 1432.06 1110.09 1431.67C1103.67 1431.05 1094.82 1430.99 1084.13 1433.89C1070.61 1437.55 1068.27 1444.2 1069.63 1449.22C1071.31 1455.4 1080.57 1457.44 1099.6 1458.08C1126.74 1458.81 1139.99 1466.4 1145.07 1485.13C1149.74 1502.31 1141.18 1521.21 1117.52 1531.78L1120.96 1544.47C1121.95 1548.12 1119.8 1551.88 1116.15 1552.87L1109.48 1554.68C1105.83 1555.67 1102.07 1553.51 1101.08 1549.86Z" />
						</g>
					</g>
					<g id="&lt;Group&gt;">
						<path id="&lt;Path&gt;" class="shp19" d="M1553.45 1037.33C1584.61 1152.18 1516.76 1270.55 1401.91 1301.71C1287.05 1332.87 1168.68 1265.02 1137.52 1150.16C1106.37 1035.31 1174.22 916.94 1289.07 885.78C1403.93 854.62 1522.29 922.47 1553.45 1037.33Z" />
						<path id="&lt;Path&gt;" class="shp20" d="M1546.54 1039.2C1576.66 1150.24 1511.07 1264.67 1400.03 1294.79C1288.99 1324.91 1174.56 1259.32 1144.44 1148.28C1114.32 1037.25 1179.91 922.82 1290.95 892.69C1401.98 862.57 1516.42 928.17 1546.54 1039.2Z" />
						<path id="&lt;Path&gt;" class="shp7" d="M1158.09 1059.07C1157.51 1059.22 1156.88 1059.25 1156.24 1059.12C1154.08 1058.68 1152.68 1056.56 1153.13 1054.4C1168.14 981.32 1222.15 923.81 1294.09 904.29C1305.57 901.17 1317.35 899.09 1329.1 898.1C1331.3 897.91 1333.24 899.54 1333.43 901.75C1333.62 903.95 1331.99 905.91 1329.78 906.07C1318.51 907.02 1307.21 909.03 1296.19 912.01C1227.18 930.73 1175.37 985.91 1160.97 1056.01C1160.66 1057.54 1159.51 1058.68 1158.09 1059.07Z" />
						<path id="&lt;Path&gt;" class="shp17" d="M1521.22 1050.77C1546.72 1144.75 1491.2 1241.6 1397.22 1267.1C1303.24 1292.59 1206.39 1237.08 1180.89 1143.1C1155.4 1049.12 1210.92 952.27 1304.9 926.77C1398.87 901.28 1495.73 956.8 1521.22 1050.77Z" />
						<g id="&lt;Group&gt;">
							<path id="&lt;Compound Path&gt;" class="shp21" d="M1368.68 1227.97L1363.65 1209.45C1344.15 1213.92 1323.82 1214.54 1308.65 1212.28C1303.24 1211.48 1299.3 1206.71 1299.3 1201.24L1299.33 1182.72C1299.34 1175.92 1305.33 1170.79 1312.06 1171.68C1327.04 1173.67 1344.86 1173.63 1362.76 1168.77C1381.35 1163.73 1393.51 1153.66 1390 1140.74C1386.84 1129.09 1374.25 1125.06 1346.53 1125.14C1306.94 1125.06 1276.11 1116.17 1267.31 1083.72C1259.36 1054.42 1274.72 1026.24 1310.27 1010.17L1305.25 991.65C1303.63 985.69 1307.15 979.55 1313.11 977.94L1323.98 974.99C1329.94 973.37 1336.08 976.89 1337.7 982.85L1342.21 999.47C1360.26 995.34 1374.09 994.87 1385.39 995.7C1391.18 996.12 1395.61 1001.03 1395.61 1006.83L1395.61 1023.96C1395.61 1030.56 1389.95 1035.71 1383.38 1035.07C1372.91 1034.06 1358.46 1033.96 1341.01 1038.69C1318.95 1044.68 1315.13 1055.52 1317.35 1063.72C1320.09 1073.8 1335.2 1077.14 1366.27 1078.18C1410.56 1079.36 1432.18 1091.76 1440.47 1122.32C1448.08 1150.36 1434.13 1181.2 1395.51 1198.45L1401.13 1219.16C1402.74 1225.12 1399.23 1231.26 1393.27 1232.88L1382.39 1235.83C1376.43 1237.44 1370.29 1233.93 1368.68 1227.97Z" />
						</g>
					</g>
					<g id="&lt;Group&gt;">
						<path id="&lt;Path&gt;" class="shp22" d="M1828.92 1461.28C1860.98 1579.47 1791.16 1701.27 1672.98 1733.33C1554.79 1765.39 1432.99 1695.57 1400.93 1577.39C1368.87 1459.2 1438.69 1337.4 1556.87 1305.34C1675.06 1273.28 1796.85 1343.1 1828.92 1461.28Z" />
						<path id="&lt;Path&gt;" class="shp23" d="M1821.8 1460.21C1852.8 1574.47 1785.3 1692.22 1671.04 1723.21C1556.79 1754.21 1439.04 1686.71 1408.05 1572.46C1377.05 1458.2 1444.55 1340.45 1558.8 1309.46C1673.06 1278.46 1790.81 1345.96 1821.8 1460.21Z" />
						<path id="&lt;Path&gt;" class="shp7" d="M1422.07 1483.54C1421.48 1483.7 1420.85 1483.73 1420.22 1483.6C1418.05 1483.15 1416.66 1481.03 1417.1 1478.87C1432.53 1403.72 1488.08 1344.57 1562.07 1324.5C1573.87 1321.3 1585.99 1319.16 1598.07 1318.13C1600.27 1317.94 1602.21 1319.58 1602.4 1321.78C1602.58 1323.98 1600.97 1325.93 1598.75 1326.1C1587.14 1327.09 1575.51 1329.15 1564.16 1332.23C1493.11 1351.5 1439.76 1408.31 1424.94 1480.48C1424.63 1482.01 1423.48 1483.16 1422.07 1483.54Z" />
						<path id="&lt;Path&gt;" class="shp17" d="M1795.75 1475.12C1821.98 1571.82 1764.86 1671.48 1668.15 1697.72C1571.45 1723.95 1471.79 1666.82 1445.56 1570.12C1419.32 1473.42 1476.45 1373.76 1573.15 1347.52C1669.86 1321.29 1769.52 1378.42 1795.75 1475.12Z" />
						<g id="&lt;Group&gt;">
							<path id="&lt;Compound Path&gt;" class="shp24" d="M1638.78 1657.45L1633.62 1638.4C1613.54 1642.99 1592.63 1643.63 1577.02 1641.31C1571.45 1640.48 1567.39 1635.58 1567.4 1629.95L1567.42 1610.89C1567.43 1603.9 1573.6 1598.61 1580.53 1599.53C1595.94 1601.58 1614.27 1601.53 1632.7 1596.53C1651.83 1591.34 1664.33 1580.99 1660.73 1567.7C1657.47 1555.7 1644.52 1551.56 1616 1551.64C1575.25 1551.56 1543.53 1542.41 1534.48 1509.02C1526.3 1478.87 1542.1 1449.87 1578.68 1433.33L1573.51 1414.28C1571.85 1408.15 1575.47 1401.84 1581.6 1400.17L1592.79 1397.14C1598.93 1395.47 1605.24 1399.09 1606.9 1405.22L1611.55 1422.33C1630.12 1418.08 1644.35 1417.59 1655.98 1418.44C1661.93 1418.88 1666.49 1423.93 1666.5 1429.91L1666.5 1447.52C1666.5 1454.32 1660.67 1459.62 1653.91 1458.96C1643.14 1457.92 1628.27 1457.82 1610.31 1462.69C1587.62 1468.85 1583.69 1480.01 1585.97 1488.44C1588.79 1498.81 1604.34 1502.25 1636.3 1503.32C1681.88 1504.53 1704.13 1517.29 1712.66 1548.74C1720.49 1577.59 1706.13 1609.33 1666.39 1627.07L1672.18 1648.39C1673.84 1654.52 1670.22 1660.84 1664.09 1662.5L1652.89 1665.54C1646.76 1667.2 1640.45 1663.58 1638.78 1657.45Z" />
						</g>
					</g>
					<g id="&lt;Group&gt;">
						<path id="&lt;Path&gt;" class="shp25" d="M1956.62 1044.05C1982.27 1138.57 1926.43 1235.98 1831.91 1261.62C1737.39 1287.26 1639.98 1231.42 1614.34 1136.9C1588.7 1042.38 1644.53 944.97 1739.05 919.33C1833.57 893.69 1930.98 949.53 1956.62 1044.05Z" />
						<path id="&lt;Path&gt;" class="shp26" d="M1950.93 1045.59C1975.72 1136.97 1921.74 1231.14 1830.36 1255.93C1738.99 1280.71 1644.82 1226.73 1620.03 1135.36C1595.24 1043.98 1649.22 949.81 1740.6 925.02C1831.97 900.23 1926.14 954.21 1950.93 1045.59Z" />
						<path id="&lt;Path&gt;" class="shp7" d="M1631.54 1062.97C1630.91 1063.14 1630.22 1063.18 1629.53 1063.03C1627.16 1062.55 1625.64 1060.24 1626.13 1057.88C1638.56 997.34 1683.31 949.69 1742.9 933.53C1752.4 930.95 1762.16 929.22 1771.9 928.39C1774.31 928.19 1776.42 929.97 1776.63 932.37C1776.83 934.78 1775.07 936.92 1772.64 937.1C1763.42 937.88 1754.18 939.52 1745.19 941.96C1688.79 957.26 1646.45 1002.35 1634.68 1059.63C1634.34 1061.3 1633.09 1062.55 1631.54 1062.97Z" />
						<path id="&lt;Path&gt;" class="shp17" d="M1930.1 1055.11C1951.08 1132.45 1905.39 1212.16 1828.05 1233.14C1750.71 1254.12 1671.01 1208.43 1650.03 1131.09C1629.05 1053.75 1674.74 974.05 1752.07 953.06C1829.41 932.08 1909.12 977.77 1930.1 1055.11Z" />
						<g id="&lt;Group&gt;">
							<path id="&lt;Compound Path&gt;" class="shp27" d="M1804.56 1200.93L1800.43 1185.7C1784.38 1189.37 1767.65 1189.88 1755.17 1188.03C1750.71 1187.36 1747.47 1183.44 1747.47 1178.94L1747.49 1163.7C1747.5 1158.1 1752.43 1153.88 1757.97 1154.61C1770.3 1156.25 1784.96 1156.21 1799.7 1152.21C1815 1148.07 1825 1139.78 1822.11 1129.15C1819.51 1119.56 1809.15 1116.25 1786.34 1116.31C1753.75 1116.24 1728.39 1108.93 1721.14 1082.22C1714.6 1058.11 1727.24 1034.92 1756.5 1021.69L1752.36 1006.46C1751.03 1001.55 1753.93 996.5 1758.83 995.17L1767.78 992.74C1772.69 991.41 1777.74 994.31 1779.07 999.21L1782.78 1012.89C1797.64 1009.49 1809.01 1009.1 1818.31 1009.79C1823.08 1010.13 1826.73 1014.17 1826.73 1018.95L1826.73 1033.04C1826.73 1038.47 1822.07 1042.71 1816.66 1042.19C1808.04 1041.35 1796.16 1041.27 1781.79 1045.17C1763.64 1050.1 1760.5 1059.02 1762.33 1065.76C1764.58 1074.06 1777.01 1076.81 1802.58 1077.67C1839.03 1078.64 1856.83 1088.84 1863.65 1113.99C1869.91 1137.06 1858.42 1162.45 1826.64 1176.64L1831.27 1193.69C1832.6 1198.59 1829.7 1203.64 1824.8 1204.97L1815.85 1207.4C1810.95 1208.73 1805.89 1205.83 1804.56 1200.93Z" />
						</g>
					</g>
				</g>
			</g>
			<g id="&lt;Group&gt;">
				<g id="&lt;Group&gt;">
					<g id="&lt;Group&gt;">
						<path id="&lt;Path&gt;" class="shp28" d="M466.71 1892.32C460.34 2119.7 439.69 2904.01 449.55 3181.95C450.6 3211.39 477.26 3235.03 510.51 3235.99C675 3240.75 1278.02 3252.83 1547.07 3242.84C1603.1 3240.76 1647.67 3200.57 1648.83 3150.93C1654.42 2912.26 1666.76 2241 1637.44 1933.49C1633.93 1896.65 1601.26 1867.31 1559.71 1863.62C1380.57 1847.76 774.96 1808.98 542.52 1822.33C500.6 1824.74 467.75 1855.14 466.71 1892.32Z" />
						<path id="&lt;Path&gt;" class="shp12" d="M513.95 1992.57L513.95 2185.27C513.95 2222.22 543.91 2252.17 580.86 2252.17L1501.51 2252.17C1538.46 2252.17 1568.42 2222.22 1568.42 2185.27L1568.42 1992.57C1568.42 1955.62 1538.46 1925.66 1501.51 1925.66L580.86 1925.66C543.91 1925.66 513.95 1955.62 513.95 1992.57Z" />
						<path id="&lt;Path&gt;" class="shp29" d="M1521.46 1991.47C1513.32 1983.05 1502.17 1978.22 1490.46 1978.03L628.99 1964.34C605.96 1963.98 586.53 1981.4 584.38 2004.33L566.48 2195.45C565.02 2211.1 590.76 2224.27 623.59 2224.67L1470.53 2234.93C1503.3 2235.33 1530.39 2222.83 1530.66 2207.19L1533.86 2022.89C1534.06 2011.19 1529.6 1999.88 1521.46 1991.47Z" />
					</g>
					<path id="&lt;Path&gt;" class="shp30" d="M744.12 2447.55C744.12 2481.54 716.56 2509.1 682.56 2509.1L607.62 2509.1C573.63 2509.1 546.07 2481.54 546.07 2447.55C546.07 2413.55 573.63 2385.99 607.62 2385.99L682.56 2385.99C716.56 2385.99 744.12 2413.55 744.12 2447.55Z" />
					<path id="&lt;Path&gt;" class="shp31" d="M1022.45 2447.55C1022.45 2481.54 994.89 2509.1 960.9 2509.1L885.96 2509.1C851.96 2509.1 824.4 2481.54 824.4 2447.55C824.4 2413.55 851.96 2385.99 885.96 2385.99L960.9 2385.99C994.89 2385.99 1022.45 2413.55 1022.45 2447.55Z" />
					<path id="&lt;Path&gt;" class="shp32" d="M1290.08 2447.55C1290.08 2481.54 1262.52 2509.1 1228.53 2509.1L1153.59 2509.1C1119.59 2509.1 1092.04 2481.54 1092.04 2447.55C1092.04 2413.55 1119.59 2385.99 1153.59 2385.99L1228.53 2385.99C1262.52 2385.99 1290.08 2413.55 1290.08 2447.55Z" />
					<path id="&lt;Path&gt;" class="shp33" d="M1561.38 2456.58C1561.38 2491.13 1533.37 2519.13 1498.83 2519.13L1426.4 2519.13C1391.85 2519.13 1363.85 2491.13 1363.85 2456.58C1363.85 2422.04 1391.85 2394.03 1426.4 2394.03L1498.83 2394.03C1533.37 2394.03 1561.38 2422.04 1561.38 2456.58Z" />
					<path id="&lt;Path&gt;" class="shp34" d="M744.12 2640.24C744.12 2674.24 716.56 2701.79 682.56 2701.79L607.62 2701.79C573.63 2701.79 546.07 2674.24 546.07 2640.24C546.07 2606.24 573.63 2578.68 607.62 2578.68L682.56 2578.68C716.56 2578.68 744.12 2606.24 744.12 2640.24Z" />
					<path id="&lt;Path&gt;" class="shp35" d="M1022.45 2640.24C1022.45 2674.24 994.89 2701.79 960.9 2701.79L885.96 2701.79C851.96 2701.79 824.4 2674.24 824.4 2640.24C824.4 2606.24 851.96 2578.68 885.96 2578.68L960.9 2578.68C994.89 2578.68 1022.45 2606.24 1022.45 2640.24Z" />
					<path id="&lt;Path&gt;" class="shp36" d="M1290.08 2640.24C1290.08 2674.24 1262.52 2701.79 1228.53 2701.79L1153.59 2701.79C1119.59 2701.79 1092.04 2674.24 1092.04 2640.24C1092.04 2606.24 1119.59 2578.68 1153.59 2578.68L1228.53 2578.68C1262.52 2578.68 1290.08 2606.24 1290.08 2640.24Z" />
					<path id="&lt;Path&gt;" class="shp37" d="M1568.42 2640.24C1568.42 2674.24 1540.86 2701.79 1506.86 2701.79L1431.93 2701.79C1397.93 2701.79 1370.37 2674.24 1370.37 2640.24C1370.37 2606.24 1397.93 2578.68 1431.93 2578.68L1506.86 2578.68C1540.86 2578.68 1568.42 2606.24 1568.42 2640.24Z" />
					<g id="&lt;Group&gt;">
						<path id="&lt;Path&gt;" class="shp38" d="M747.12 2813.9C747.12 2847.89 719.56 2875.45 685.56 2875.45L610.62 2875.45C576.63 2875.45 549.07 2847.89 549.07 2813.9C549.07 2779.9 576.63 2752.34 610.62 2752.34L685.56 2752.34C719.56 2752.34 747.12 2779.9 747.12 2813.9Z" />
						<path id="&lt;Path&gt;" class="shp39" d="M1022.45 2810.9C1022.45 2844.89 994.89 2872.45 960.9 2872.45L885.96 2872.45C851.96 2872.45 824.4 2844.89 824.4 2810.9C824.4 2776.9 851.96 2749.34 885.96 2749.34L960.9 2749.34C994.89 2749.34 1022.45 2776.9 1022.45 2810.9Z" />
						<path id="&lt;Path&gt;" class="shp40" d="M1293.08 2810.9C1293.08 2844.89 1265.52 2872.45 1231.53 2872.45L1156.59 2872.45C1122.59 2872.45 1095.04 2844.89 1095.04 2810.9C1095.04 2776.9 1122.59 2749.34 1156.59 2749.34L1231.53 2749.34C1265.52 2749.34 1293.08 2776.9 1293.08 2810.9Z" />
					</g>
					<g id="&lt;Group&gt;">
						<path id="&lt;Path&gt;" class="shp41" d="M744.12 2998.24C744.12 3032.23 716.56 3059.79 682.56 3059.79L607.62 3059.79C573.63 3059.79 546.07 3032.23 546.07 2998.24C546.07 2964.24 573.63 2936.68 607.62 2936.68L682.56 2936.68C716.56 2936.68 744.12 2964.24 744.12 2998.24Z" />
						<path id="&lt;Path&gt;" class="shp42" d="M1022.45 2998.24C1022.45 3032.23 994.89 3059.79 960.9 3059.79L885.96 3059.79C851.96 3059.79 824.4 3032.23 824.4 2998.24C824.4 2964.24 851.96 2936.68 885.96 2936.68L960.9 2936.68C994.89 2936.68 1022.45 2964.24 1022.45 2998.24Z" />
						<path id="&lt;Path&gt;" class="shp43" d="M1290.08 2998.24C1290.08 3032.23 1262.52 3059.79 1228.53 3059.79L1153.59 3059.79C1119.59 3059.79 1092.04 3032.23 1092.04 2998.24C1092.04 2964.24 1119.59 2936.68 1153.59 2936.68L1228.53 2936.68C1262.52 2936.68 1290.08 2964.24 1290.08 2998.24Z" />
					</g>
					<path id="&lt;Path&gt;" class="shp44" d="M1541.66 2993.21C1541.66 3036.24 1506.77 3071.13 1463.74 3071.13L1458.99 3071.13C1415.96 3071.13 1381.08 3036.24 1381.08 2993.21L1381.08 2843.94C1381.08 2800.91 1415.96 2766.03 1458.99 2766.03L1463.74 2766.03C1506.77 2766.03 1541.66 2800.91 1541.66 2843.94L1541.66 2993.21Z" />
				</g>
				<g id="&lt;Group&gt;" style="opacity: 0.702">
					<path id="&lt;Path&gt;" class="shp10" d="M1434.6 2019.34C1434.6 2026.73 1428.61 2032.72 1421.22 2032.72L1383.75 2032.72C1376.36 2032.72 1370.37 2026.73 1370.37 2019.34C1370.37 2011.95 1376.36 2005.95 1383.75 2005.95L1421.22 2005.95C1428.61 2005.95 1434.6 2011.95 1434.6 2019.34Z" />
					<path id="&lt;Path&gt;" class="shp10" d="M1434.6 2201.32C1434.6 2208.71 1428.61 2214.71 1421.22 2214.71L1383.75 2214.71C1376.36 2214.71 1370.37 2208.71 1370.37 2201.32C1370.37 2193.93 1376.36 2187.94 1383.75 2187.94L1421.22 2187.94C1428.61 2187.94 1434.6 2193.93 1434.6 2201.32Z" />
					<path id="&lt;Path&gt;" class="shp10" d="M1375.72 2094.27C1375.72 2101.66 1369.73 2107.65 1362.34 2107.65C1354.95 2107.65 1348.96 2101.66 1348.96 2094.27L1348.96 2056.8C1348.96 2049.41 1354.95 2043.42 1362.34 2043.42C1369.73 2043.42 1375.72 2049.41 1375.72 2056.8L1375.72 2094.27Z" />
					<path id="&lt;Path&gt;" class="shp10" d="M1375.72 2169.21C1375.72 2176.6 1369.73 2182.59 1362.34 2182.59C1354.95 2182.59 1348.96 2176.6 1348.96 2169.21L1348.96 2131.74C1348.96 2124.35 1354.95 2118.36 1362.34 2118.36C1369.73 2118.36 1375.72 2124.35 1375.72 2131.74L1375.72 2169.21Z" />
					<path id="&lt;Path&gt;" class="shp10" d="M1466.72 2094.27C1466.72 2101.66 1460.73 2107.65 1453.34 2107.65C1445.95 2107.65 1439.96 2101.66 1439.96 2094.27L1439.96 2056.8C1439.96 2049.41 1445.95 2043.42 1453.34 2043.42C1460.73 2043.42 1466.72 2049.41 1466.72 2056.8L1466.72 2094.27Z" />
					<path id="&lt;Path&gt;" class="shp10" d="M1466.72 2169.21C1466.72 2176.6 1460.73 2182.59 1453.34 2182.59C1445.95 2182.59 1439.96 2176.6 1439.96 2169.21L1439.96 2131.74C1439.96 2124.35 1445.95 2118.36 1453.34 2118.36C1460.73 2118.36 1466.72 2124.35 1466.72 2131.74L1466.72 2169.21Z" />
				</g>
			</g>
			<g id="&lt;Group&gt;">
				<g id="&lt;Group&gt;">
					<g id="&lt;Group&gt;">
						<path id="&lt;Path&gt;" class="shp45" d="M2696.83 3235.96C2720.49 3238 2761.56 3241.32 2793.94 3242.75C2813.4 3243.61 2824.61 3241.7 2831.06 3239.12C2831.05 3239.84 2831.03 3240.53 2831 3241.17C2830.85 3244.58 2828.08 3247.3 2824.64 3247.5C2763.46 3250.91 2714.81 3248.68 2697.48 3247.62C2693.9 3247.4 2691.77 3243.51 2693.6 3240.46C2694.52 3238.93 2695.63 3237.44 2696.83 3235.96Z" />
						<path id="&lt;Path&gt;" class="shp46" d="M2793.94 3243.75C2761.56 3242.32 2720.49 3239 2696.83 3236.96C2712.34 3217.93 2744.71 3202 2793.94 3189.18L2814.79 3189.18C2829.14 3209.85 2831.22 3229.54 2831.06 3240.12C2824.61 3242.7 2813.4 3244.61 2793.94 3243.75Z" />
						<path id="&lt;Path&gt;" class="shp47" d="M2818.31 3155.13L2816.35 3193.75C2816.14 3197.93 2813.01 3201.44 2808.82 3202.04C2804.66 3202.64 2799.08 3202.72 2793.16 3200.75C2789.52 3199.53 2786.81 3196.47 2786.14 3192.72L2779.4 3155.13L2818.31 3155.13Z" />
					</g>
					<g id="&lt;Group&gt;">
						<g id="&lt;Group&gt;">
							<path id="&lt;Path&gt;" class="shp48" d="M3089.19 3243.46C3099.45 3242.03 3104.1 3236.7 3106.04 3231C3106.06 3231.05 3106.07 3231.1 3106.08 3231.15C3107.59 3237.16 3104.09 3243.39 3097.1 3246.36C3088.64 3249.94 3079.39 3250.55 3072.21 3250.25C3064.51 3249.94 3057.44 3246.75 3053.55 3241.65L3053.5 3241.57C3061.23 3245.4 3072.08 3245.85 3089.19 3243.46Z" />
							<path id="&lt;Path&gt;" class="shp49" d="M3040.81 3154.88L3058.01 3154.88C3084.21 3154.34 3100.66 3209.6 3106.04 3231C3104.1 3236.7 3099.45 3242.03 3089.19 3243.46C3072.08 3245.85 3061.23 3245.4 3053.5 3241.57C3039.34 3222.95 3032.33 3195.67 3028.95 3179.75C3026.4 3167.68 3030.35 3159.39 3040.81 3154.88Z" />
						</g>
						<path id="&lt;Path&gt;" class="shp50" d="M3055.8 3119.03L3065.35 3157.02C3066.52 3161.68 3064.29 3166.49 3059.99 3168.7C3054.64 3171.44 3047.12 3174.33 3040.21 3173.49C3036.96 3173.1 3034.26 3170.81 3033.18 3167.75L3019.16 3127.78L3055.8 3119.03Z" />
					</g>
					<path id="&lt;Path&gt;" class="shp51" d="M3067.19 3130.01C3059.27 3137.04 3042.43 3141.02 3016.66 3141.94C2923.85 2919.18 2858.46 2791.98 2820.49 2760.33C2833.89 2844.41 2834.97 2979.53 2823.73 3165.67C2808.42 3172.43 2790.89 3172.43 2771.14 3165.67C2769.27 2959.19 2737.54 2779.13 2700.05 2637.17C2794.14 2635.05 2844.18 2602.85 2860.52 2589.93C2912.81 2674.23 2981.7 2854.26 3067.19 3130.01Z" />
					<path id="&lt;Path&gt;" class="shp52" d="M2836.62 2205.67C2854.43 2294.51 2848.05 2453.51 2843.86 2526.03C2842.68 2546.42 2856.91 2574.68 2868.41 2593.96C2870.22 2596.98 2869.1 2600.85 2865.97 2602.46C2846.71 2612.36 2781.48 2643.03 2705.87 2646.85C2700.82 2647.1 2696.32 2643.67 2695.02 2638.79C2657.63 2499.18 2617.22 2384.77 2573.79 2295.56C2621.74 2219 2709.35 2189.03 2836.62 2205.67Z" />
					<path id="&lt;Path&gt;" class="shp53" d="M2810.99 2752.42C2811.78 2752.42 2812.58 2752.21 2813.31 2751.77C2815.41 2750.49 2816.07 2747.75 2814.8 2745.65C2814.05 2744.42 2796.04 2715.31 2759.6 2697.73C2757.38 2696.67 2754.72 2697.58 2753.64 2699.8C2752.57 2702.02 2753.5 2704.69 2755.72 2705.76C2789.69 2722.15 2807.01 2750.01 2807.18 2750.29C2808.02 2751.66 2809.49 2752.42 2810.99 2752.42Z" />
					<g id="&lt;Group&gt;">
						<path id="&lt;Path&gt;" class="shp54" d="M2948.34 2460.63C2942.62 2502.02 2925.71 2547.16 2891.9 2595.11L2879.05 2584.63C2888.94 2544.49 2891.07 2501.65 2885.45 2456.11C2906.31 2452.04 2930.94 2456.23 2948.34 2460.63Z" />
						<path id="&lt;Path&gt;" class="shp55" d="M2816.73 2315.28L2836.62 2205.67C2925.23 2273.4 2962.47 2358.39 2948.34 2460.63C2930.94 2456.23 2906.31 2452.04 2885.45 2456.11C2879.37 2406.89 2861.22 2353.46 2816.73 2315.28Z" />
					</g>
					<g id="&lt;Group&gt;">
						<path id="&lt;Path&gt;" class="shp56" d="M2573.79 2295.56L2625.09 2406.05C2616.8 2472.76 2580.96 2501.6 2542.33 2512.67C2539.92 2482.27 2532.23 2457.7 2525.1 2440.71C2558.01 2406.73 2574.24 2358.35 2573.79 2295.56Z" />
						<path id="&lt;Path&gt;" class="shp57" d="M2525.1 2440.71C2532.23 2457.7 2539.92 2482.27 2542.33 2512.67C2473.6 2539.33 2430.15 2526.81 2411.97 2475.1L2431.02 2471.74C2474.04 2476.27 2504.09 2462.4 2525.1 2440.71Z" />
					</g>
					<path id="&lt;Path&gt;" class="shp58" d="M2621.06 2159.15L2645.83 2250.2C2648.61 2260.43 2659.67 2265.93 2669.51 2261.99C2680.14 2257.74 2693.61 2251.95 2705.21 2245.68C2717.6 2239 2721.47 2223.07 2713.63 2211.38L2662.14 2134.6L2621.06 2159.15Z" />
				</g>
				<g id="&lt;Group&gt;">
					<path id="&lt;Path&gt;" class="shp59" d="M2566.87 2089.98C2566.72 2091.02 2573.61 2125.65 2587.53 2193.88L2645.71 2180.71L2640.33 2080.78C2593.87 2069.46 2569.39 2072.53 2566.87 2089.98Z" />
					<path id="&lt;Path&gt;" class="shp60" d="M2627.24 2103.05L2634.19 2155.43C2634.28 2156.1 2634.28 2156.77 2634.19 2157.44C2633.6 2161.55 2630.55 2175.52 2616.43 2171.53C2603.63 2167.9 2591.89 2164.78 2583.78 2167.26C2580.14 2168.37 2577.94 2172.06 2578.7 2175.79C2580.6 2185.09 2585.27 2205.96 2592.09 2223.48C2593.48 2227.03 2597.37 2228.9 2601.03 2227.83C2612.07 2224.62 2635.15 2217.18 2652.32 2206.85C2654.64 2205.45 2656.03 2202.92 2655.91 2200.2C2655.36 2186.98 2653.81 2146.78 2655.11 2135.51C2656.33 2124.93 2669.32 2118.59 2674.96 2116.32C2676.8 2115.58 2678.25 2114.12 2678.99 2112.27C2681.6 2105.72 2685.21 2090.58 2666.12 2084.37C2662.12 2083.07 2660.02 2078.77 2661.44 2074.81C2664.27 2066.94 2665.46 2054.93 2650.69 2048.32C2635.68 2041.59 2624.48 2049.59 2618.42 2056.09C2615.98 2058.72 2612.05 2059.12 2609.02 2057.2C2607.29 2056.11 2605.06 2055.75 2602.37 2057.43C2598.74 2059.69 2593.94 2058.15 2592.07 2054.31C2588.48 2046.93 2581.15 2039.03 2566.46 2041.55C2540.39 2046.01 2537.44 2074.9 2544.31 2091.83C2551.19 2108.76 2579.18 2102.31 2593.23 2093.78C2603.9 2087.29 2617.75 2094.09 2623.78 2097.72C2625.68 2098.88 2626.95 2100.84 2627.24 2103.05Z" />
					<path id="&lt;Path&gt;" class="shp61" d="M2657.45 2154.61C2650.31 2134.6 2650.41 2122.14 2657.75 2117.24C2668.76 2109.89 2685.07 2113.71 2681.48 2135.45C2678.5 2153.48 2670.49 2159.87 2657.45 2154.61Z" />
				</g>
				<path id="&lt;Path&gt;" class="shp62" d="M2419.61 2489.29C2414.42 2493.34 2396.64 2484.88 2385.76 2479.03C2380.46 2476.18 2377.89 2469.98 2379.71 2464.24C2382.33 2455.98 2386.69 2445.33 2392.07 2443.98C2400.98 2441.75 2440.99 2472.58 2419.61 2489.29Z" />
				<g id="&lt;Group&gt;">
					<g id="&lt;Group&gt;">
						<path id="&lt;Path&gt;" class="shp63" d="M3235.51 2728.32L2198.86 2359.63L2144.02 2511.98L3180.31 2890.97C3202.32 2899.02 3226.88 2890.09 3238.68 2869.84C3250.79 2849.03 3262.37 2816.53 3263.07 2767.85C3263.32 2750.15 3252.19 2734.25 3235.51 2728.32Z" />
						<g id="&lt;Group&gt;">
							<path id="&lt;Path&gt;" class="shp64" d="M1878.15 2320.25L2021.35 2337.84C2021.2 2357.54 2014.75 2383.04 1992.9 2412.29L1873.31 2333.41C1866.97 2329.22 1870.61 2319.33 1878.15 2320.25Z" />
							<path id="&lt;Path&gt;" class="shp65" d="M2198.86 2359.63C2203.24 2423.28 2184.95 2474.07 2144.02 2511.98L1992.9 2412.29C2014.75 2383.04 2021.2 2357.54 2021.35 2337.84L2198.86 2359.63Z" />
						</g>
					</g>
					<path id="&lt;Path&gt;" class="shp66" d="M3222.66 2775.04C3223.91 2775.04 3225.09 2774.26 3225.53 2773C3226.09 2771.42 3225.26 2769.68 3223.67 2769.12L2231.87 2418.61C2230.28 2418.05 2228.54 2418.88 2227.99 2420.47C2227.42 2422.05 2228.26 2423.79 2229.84 2424.35L3221.64 2774.86C3221.98 2774.98 3222.32 2775.04 3222.66 2775.04Z" />
					<path id="&lt;Path&gt;" class="shp67" d="M3205.55 2834.81C3206.8 2834.81 3207.98 2834.03 3208.42 2832.77C3208.98 2831.19 3208.15 2829.45 3206.56 2828.89L2214.76 2478.38C2213.17 2477.82 2211.44 2478.64 2210.88 2480.23C2210.31 2481.82 2211.15 2483.56 2212.73 2484.12L3204.53 2834.63C3204.87 2834.75 3205.21 2834.81 3205.55 2834.81Z" />
				</g>
				<path id="&lt;Path&gt;" class="shp68" d="M2884.35 2582.8L2824.35 2577.91L2798.37 2601.87C2802.46 2607.53 2810.92 2608.74 2823.73 2605.48C2836.54 2602.22 2851.73 2600.2 2869.28 2599.4C2886.96 2607.37 2895.92 2603.9 2896.13 2588.98L2884.35 2582.8Z" />
			</g>
		</g>
	</g>
</svg>