<svg xmlns="http://www.w3.org/2000/svg" viewBox="0 0 2112 1386" width="2112" height="1386">
	<defs>
		<linearGradient id="grd1" gradientUnits="userSpaceOnUse"  x1="333.699" y1="270.641" x2="876.629" y2="-249.52">
			<stop offset="0" stop-color="#ff8800"  />
			<stop offset="1" stop-color="#ff8800"  />
		</linearGradient>
	</defs>
	<style>
		tspan { white-space:pre }
		.shp0 { fill: #f5f5f5 } 
		.shp1 { fill: #a9abad } 
		.shp2 { fill: #ffffff } 
		.shp3 { fill: #ff8800 } 
		.shp4 { fill: #c82333 } 
		.shp5 { fill: #21c0dc } 
		.shp6 { fill: url(#grd1) } 
		.shp7 { fill: #74a1bd } 
		.shp8 { fill: #c4c695 } 
		.shp9 { fill: #dfdfe0 } 
		.shp10 { fill: #bed5dc } 
		.shp11 { fill: #2f1a31 } 
		.shp12 { fill: #b6b6b6 } 
		.shp13 { fill: #a5a5a5 } 
		.shp14 { fill: #e0e0e0 } 
		.shp15 { fill: #4b878b } 
		.shp16 { fill: #f7b686 } 
		.shp17 { fill: #263238 } 
		.shp18 { fill: #56335b } 
		.shp19 { fill: #060633 } 
		.shp20 { fill: #e08b65 } 
		.shp21 { fill: #d89364 } 
	</style>
	<path id="&lt;Path&gt; 297 " class="shp0" d="M1914.14 1198.52C1914.16 1285.27 1493.3 1355.73 974.11 1355.99C454.92 1356.26 34.02 1286.22 34 1199.47C33.98 1112.77 454.83 1042.26 974.03 1042C1493.22 1041.74 1914.11 1111.82 1914.14 1198.52Z" />
	<g id="&lt;Group&gt;">
		<g id="&lt;Group&gt;" style="opacity: 0.529">
			<path id="&lt;Path&gt;" class="shp1" d="M288.28 1172.8L94 1172.8L94 376.49L288.28 376.49L288.28 1172.8Z" />
		</g>
		<g id="&lt;Group&gt;" style="opacity: 0.529">
			<path id="&lt;Path&gt;" class="shp1" d="M540.33 1172.8L346.05 1172.8L346.05 376.49L540.33 376.49L540.33 1172.8Z" />
		</g>
		<g id="&lt;Group&gt;" style="opacity: 0.529">
			<path id="&lt;Path&gt;" class="shp1" d="M809.1 1172.8L614.82 1172.8L614.82 376.49L809.1 376.49L809.1 1172.8Z" />
		</g>
		<g id="&lt;Group&gt;" style="opacity: 0.529">
			<path id="&lt;Path&gt;" class="shp1" d="M1077.25 1172.8L882.97 1172.8L882.97 376.49L1077.25 376.49L1077.25 1172.8Z" />
		</g>
		<g id="&lt;Group&gt;" style="opacity: 0.529">
			<path id="&lt;Path&gt;" class="shp1" d="M1345.41 1172.8L1151.13 1172.8L1151.13 376.49L1345.41 376.49L1345.41 1172.8Z" />
		</g>
		<g id="&lt;Group&gt;" style="opacity: 0.529">
			<path id="&lt;Path&gt;" class="shp1" d="M1617.07 1172.8L1422.79 1172.8L1422.79 376.49L1617.07 376.49L1617.07 1172.8Z" />
		</g>
		<g id="&lt;Group&gt;" style="opacity: 0.529">
			<path id="&lt;Path&gt;" class="shp2" d="M1884.17 1172.8L1689.89 1172.8L1689.89 376.49L1884.17 376.49L1884.17 1172.8Z" />
		</g>
		<path id="&lt;Path&gt;" class="shp3" d="M287.08 1172.8L94 1172.8L94 977.49L287.08 977.49L287.08 1172.8Z" />
		<path id="&lt;Path&gt;" class="shp4" d="M539.73 1172.8L346.65 1172.8L346.65 898.62L539.73 898.62L539.73 1172.8Z" />
		<path id="&lt;Path&gt;" class="shp3" d="M809.18 1173.37L616.11 1173.37L616.11 820.26L809.18 820.26L809.18 1173.37Z" />
		<path id="&lt;Path&gt;" class="shp3" d="M1081.05 1173.37L880.22 1173.37L880.22 743.08L1081.05 743.08L1081.05 1173.37Z" />
		<path id="&lt;Path&gt;" class="shp4" d="M1348.99 1173.37L1148.17 1173.37L1148.17 627.69L1348.99 627.69L1348.99 1173.37Z" />
		<path id="&lt;Path&gt;" class="shp3" d="M1620.34 1176.1L1419.52 1176.1L1419.52 500.61L1620.34 500.61L1620.34 1176.1Z" />
		<path id="&lt;Path&gt;" class="shp5" d="M1887.2 1176.1L1686.38 1176.1L1686.38 426.95L1887.2 426.95L1887.2 1176.1Z" />
		<path id="&lt;Path&gt;" class="shp5" d="M1794.92 212.8C1770.77 252.37 1679.47 417 1651.28 467.92C1647.57 474.63 1652.44 482.87 1660.04 482.76L1921.39 479.19C1927.04 479.11 1930.69 473.12 1928.21 467.98L1805.16 213.33C1803.14 209.14 1797.34 208.83 1794.92 212.8Z" />
	</g>
	<g id="&lt;Group&gt;">
		<path id="&lt;Path&gt;" class="shp5" d="M469.68 413.1C490.76 452.71 523.62 486.7 566.51 509.35C645.25 550.94 737.19 543.39 806.55 497.52L676.53 304.74L469.68 413.1Z" />
		<path id="&lt;Path&gt;" class="shp5" d="M805.03 497.62C836.12 477.07 862.68 448.84 881.47 413.88C889.08 399.74 895.05 385.17 899.47 370.38L675.01 304.84L805.03 497.62Z" />
		<path id="&lt;Path&gt;" class="shp5" d="M899.47 371.95C914.77 320.67 911.28 266.76 891.71 219.02L675.01 306.4L899.47 371.95Z" />
		<path id="&lt;Path&gt;" class="shp6" d="M656.99 296.88L672.54 65.5C583.56 59.67 495.19 104.8 450.53 187.85C412.61 258.35 415.17 339.53 450.14 405.25L656.99 296.88Z" />
		<path id="&lt;Path&gt;" class="shp4" d="M893.71 219.02C884.94 197.64 872.95 177.5 857.98 159.39C812.93 197.61 752.61 246.61 677.01 306.4L893.71 219.02Z" />
		<path id="&lt;Path&gt;" class="shp4" d="M859.06 161.35C840.05 138.35 816.24 118.61 788.11 103.75C757.89 87.79 725.72 79.07 693.64 76.97L678.09 308.37C753.69 248.58 814.01 199.57 859.06 161.35Z" />
	</g>
	<g id="&lt;Layer&gt;">
		<g id="&lt;Group&gt;">
			<g id="&lt;Group&gt;">
			</g>
			<g id="&lt;Group&gt;">
			</g>
			<g id="&lt;Group&gt;" style="opacity: 0.6">
			</g>
			<g id="&lt;Group&gt;">
				<g id="&lt;Group&gt;">
				</g>
				<g id="&lt;Group&gt;">
					<g id="&lt;Group&gt;">
					</g>
				</g>
			</g>
			<g id="&lt;Group&gt;">
				<g id="&lt;Group&gt;">
					<g id="&lt;Group&gt;">
					</g>
				</g>
				<g id="&lt;Group&gt;" style="opacity: 0.502">
					<g id="&lt;Group&gt;">
						<g id="&lt;Group&gt;">
						</g>
					</g>
					<g id="&lt;Group&gt;">
						<g id="&lt;Group&gt;">
							<path id="&lt;Path&gt;" class="shp7" d="M1822.71 979.22C1776.67 942.96 1766.98 912.4 1766.59 911.12L1770.69 909.87C1770.78 910.17 1780.5 940.52 1825.36 975.86L1822.71 979.22Z" />
						</g>
					</g>
					<g id="&lt;Group&gt;">
						<g id="&lt;Group&gt;">
							<path id="&lt;Path&gt;" class="shp7" d="M1833.27 1024.86C1819.64 1004.14 1818.76 973.05 1830.72 934.95C1839.67 906.42 1852.81 883.64 1852.94 883.41L1856.64 885.56C1856.13 886.45 1805.52 974.86 1836.85 1022.51L1833.27 1024.86Z" />
						</g>
					</g>
					<g id="&lt;Group&gt;">
						<g id="&lt;Group&gt;">
						</g>
					</g>
					<g id="&lt;Group&gt;">
						<g id="&lt;Group&gt;">
						</g>
					</g>
				</g>
			</g>
			<g id="&lt;Group&gt;">
			</g>
			<g id="&lt;Group&gt;">
			</g>
			<g id="&lt;Group&gt;">
			</g>
			<g id="&lt;Group&gt;">
				<g id="&lt;Group&gt;">
					<g id="&lt;Group&gt;">
					</g>
					<g id="&lt;Group&gt;">
					</g>
					<g id="&lt;Group&gt;">
						<g id="&lt;Group&gt;">
							<g id="&lt;Group&gt;">
							</g>
						</g>
						<g id="&lt;Group&gt;">
							<g id="&lt;Group&gt;">
							</g>
						</g>
						<g id="&lt;Group&gt;">
							<g id="&lt;Group&gt;">
							</g>
						</g>
						<g id="&lt;Group&gt;">
							<g id="&lt;Group&gt;">
							</g>
						</g>
						<g id="&lt;Group&gt;">
							<g id="&lt;Group&gt;">
							</g>
						</g>
						<g id="&lt;Group&gt;">
							<g id="&lt;Group&gt;">
							</g>
						</g>
						<g id="&lt;Group&gt;">
							<g id="&lt;Group&gt;">
							</g>
						</g>
					</g>
				</g>
			</g>
			<g id="&lt;Group&gt;">
			</g>
			<g id="&lt;Group&gt;">
				<g id="&lt;Group&gt;">
				</g>
				<g id="&lt;Group&gt;">
					<g id="&lt;Group&gt;">
					</g>
				</g>
			</g>
			<g id="&lt;Group&gt;">
				<g id="&lt;Group&gt;">
					<g id="&lt;Group&gt;">
					</g>
				</g>
				<g id="&lt;Group&gt;">
					<g id="&lt;Group&gt;">
						<g id="&lt;Group&gt;">
						</g>
					</g>
					<g id="&lt;Group&gt;">
						<g id="&lt;Group&gt;">
							<path id="&lt;Path&gt;" class="shp8" d="M159.04 892.6C215.16 839.9 224.36 798.82 224.72 797.09L219.21 795.93C219.13 796.33 209.87 837.14 155.19 888.49L159.04 892.6Z" />
						</g>
					</g>
					<g id="&lt;Group&gt;">
						<g id="&lt;Group&gt;">
							<path id="&lt;Path&gt;" class="shp8" d="M150.43 953.52C165.89 924.86 163.51 884.07 143.52 835.58C128.56 799.26 108.78 770.95 108.58 770.67L103.97 773.91C104.75 775.01 181.04 884.94 145.47 950.85L150.43 953.52Z" />
						</g>
					</g>
					<g id="&lt;Group&gt;">
						<g id="&lt;Group&gt;">
						</g>
					</g>
					<g id="&lt;Group&gt;">
						<g id="&lt;Group&gt;">
						</g>
					</g>
				</g>
			</g>
			<g id="&lt;Group&gt;">
				<path id="&lt;Path&gt;" class="shp9" d="M130.85 694.06L796.43 720.18C820.51 721.12 841.15 737.66 847.33 760.95L973.31 1235.77L204.21 1246.98L75.66 763.05C66.14 727.34 93.92 692.61 130.85 694.06Z" />
			</g>
			<g id="&lt;Group&gt;">
				<path id="&lt;Path&gt;" class="shp9" d="M1233 1268.76L226.06 1268.76C218.72 1268.76 209.84 1266.75 208.23 1261.99C206.99 1258.33 205.36 1250.66 204.15 1246.98C201.88 1240.04 209.78 1233.68 220.46 1233.72L686.99 1232.42L1237.75 1237.56C1248.57 1237.6 1256.29 1244.4 1253.18 1251.14L1248.52 1261.24C1246.46 1265.7 1240.15 1268.76 1233 1268.76Z" />
			</g>
			<g id="&lt;Group&gt;">
				<path id="&lt;Path&gt;" class="shp9" d="M1242.49 1268.76L693.32 1268.76C689.31 1268.76 684.47 1266.75 683.59 1261.99C682.92 1258.33 682.02 1250.66 681.37 1246.98C680.13 1240.04 681.16 1232.38 686.99 1232.42L1245.08 1237.56C1250.98 1237.6 1255.19 1244.4 1253.49 1251.14L1250.95 1261.24C1249.83 1265.7 1246.39 1268.76 1242.49 1268.76Z" />
			</g>
			<g id="&lt;Group&gt;">
				<path id="&lt;Path&gt;" class="shp10" d="M952.3 1237.62L784.81 1238.12L596.54 1238.7L580.06 1238.75L392.61 1239.32L334.94 1239.49L239.15 1239.78L230.24 1203.54L122.32 764.38C119.11 751.32 129.28 738.8 142.71 739.26L373.02 747.03L419.02 748.58L419.03 748.58L431.92 749.02L492.95 751.08L500.54 751.34L532.59 752.42L724.51 758.9L777.39 760.69C786.19 760.98 794.5 763.48 801.75 767.71C802.74 768.28 803.71 768.89 804.66 769.53C814.49 776.17 822 786.15 825.45 798.12L857.81 910.25L952.3 1237.62Z" />
			</g>
			<g id="&lt;Group&gt;">
				<path id="&lt;Path&gt;" class="shp11" d="M489.59 725.93C491.29 731.08 486.15 733.25 483.69 733.25C481.23 733.25 476.35 729.97 476.35 725.93C476.35 719.93 481.23 718.62 483.69 718.62C486.15 718.62 488.32 722.1 489.59 725.93Z" />
			</g>
			<g id="&lt;Group&gt;">
				<path id="&lt;Path&gt;" class="shp12" d="M1830.03 1284.09L1780.58 1284.16L1448.83 1259.92C1430.26 1258.74 1415.7 1243.15 1415.4 1224.13L1405.5 602.2C1405.19 582.56 1420.15 566.19 1439.33 565.2L1772.31 545.17L1823 545.21C1843.21 544.16 1860.22 560.51 1860.45 581.21L1867.87 1247.28C1868.1 1268.47 1850.7 1285.4 1830.03 1284.09Z" />
			</g>
			<g id="&lt;Group&gt;">
				<path id="&lt;Path&gt;" class="shp9" d="M1775.19 1284.09L1393.99 1259.92C1375.42 1258.74 1360.86 1243.15 1360.56 1224.13L1350.66 602.2C1350.35 582.56 1365.31 566.19 1384.49 565.2L1768.16 545.21C1788.37 544.16 1805.38 560.51 1805.61 581.21L1813.03 1247.28C1813.26 1268.47 1795.86 1285.4 1775.19 1284.09Z" />
			</g>
			<g id="&lt;Group&gt;">
				<path id="&lt;Path&gt;" class="shp10" d="M1782.28 1201.86C1782.35 1207 1390.64 1183.64 1390.57 1179.01L1390.42 1169.89L1390.42 1169.88L1390.26 1159.6L1388.69 1064.17L1388.68 1063.36L1388.64 1060.68L1385.95 895.89L1385.95 895.73L1385.9 892.94L1385.9 892.93L1384.26 792.38L1381.33 613.19C1381.25 608.42 1384.98 604.44 1389.76 604.2L1606.02 593.23L1606.03 593.23L1627.34 592.15L1629.07 592.05L1668.42 590.06L1675.53 589.7L1701.34 588.39L1765.99 585.11C1771.04 584.86 1775.28 588.83 1775.34 593.86L1775.72 626.5L1775.9 642.37L1776.07 658.08L1776.9 730.76L1778.15 839.67L1780.26 1024.19L1780.26 1024.2L1781.27 1112.48L1781.27 1112.49L1781.37 1121.97L1781.55 1137.83L1781.76 1156.27L1782.14 1189.1L1782.28 1201.86Z" />
			</g>
			<g id="&lt;Group&gt;">
				<path id="&lt;Path&gt;" class="shp13" d="M1590.13 1228.88C1592.91 1250.32 1578.53 1261.61 1559.83 1259.64C1546.43 1258.22 1530.46 1248.35 1533.55 1231.42C1535.77 1219.27 1547.36 1212.26 1560.76 1210.82C1581.78 1208.56 1588.54 1216.65 1590.13 1228.88Z" />
			</g>
			<g id="&lt;Group&gt;">
				<g id="&lt;Group&gt;">
					<path id="&lt;Path&gt;" class="shp14" d="M1025.86 356.89C1025.86 291.67 1056.88 222.18 1157.02 222.18C1222.24 222.18 1278.08 277.82 1284.64 342.71C1292.62 421.58 1244.76 469.44 1150.48 479.19C1085.61 485.9 1025.86 438.42 1025.86 356.89Z" />
				</g>
				<g id="&lt;Group&gt;">
					<path id="&lt;Compound Path&gt;" fill-rule="evenodd" class="shp15" d="M1140.78 464.1C1116.48 464.1 1093.76 455.53 1075.91 439.42C1053.87 419.55 1041.73 389.92 1041.73 356C1041.73 333.51 1046 301.33 1066.34 275.72C1086.27 250.63 1116.71 237.9 1156.82 237.9C1212.72 237.9 1262.99 285.31 1268.88 343.59C1275.84 412.4 1234.2 455 1151.63 463.54C1147.98 463.92 1144.36 464.1 1140.78 464.1ZM1156.82 244.99C1124.35 244.99 1048.82 255.81 1048.82 356C1048.82 387.89 1060.13 415.64 1080.66 434.16C1099.64 451.28 1124.59 459.21 1150.9 456.49C1190.05 452.44 1219.49 440.68 1238.39 421.54C1257.2 402.49 1265.08 376.51 1261.83 344.3C1256.29 289.54 1209.18 244.99 1156.82 244.99Z" />
				</g>
				<g id="&lt;Group&gt;">
					<g id="&lt;Group&gt;">
						<path id="&lt;Compound Path&gt;" class="shp5" d="M1156.29 424.31L1155.04 416.2C1154.59 413.25 1151.98 411.16 1149 411.29C1141.97 411.59 1134.94 410.65 1129.32 408.76C1126.59 407.85 1124.97 405.04 1125.49 402.21L1125.86 400.26C1126.49 396.84 1129.96 394.75 1133.29 395.78C1139.71 397.77 1147.31 398.65 1155.01 397.47C1168.14 395.46 1172.77 385.72 1171.11 374.88C1169.5 364.42 1164.35 359.63 1149.79 356.03C1129.76 351.31 1109.76 345.41 1107.22 328.87C1105.01 314.44 1111.65 298.51 1133.33 294.49C1135.92 294.01 1137.15 290.9 1136.75 288.3L1135.39 279.42C1134.9 276.25 1137.08 273.29 1140.24 272.8C1143.41 272.32 1146.37 274.49 1146.85 277.66L1147.99 285.06C1148.43 287.95 1150.96 290.08 1153.89 289.98C1159.77 289.76 1164.66 290.47 1168.74 291.59C1171.67 292.4 1173.45 295.36 1172.85 298.33L1172.47 300.21C1171.8 303.49 1168.5 305.47 1165.27 304.61C1160.73 303.4 1154.57 302.53 1146.87 303.71C1132.64 305.9 1128.62 315.47 1129.78 323.08C1131.3 332.97 1141.41 332.39 1158.55 336.77C1178.82 341.84 1192.58 351.25 1196.73 367.86C1201.16 385.59 1192.52 399.77 1169.91 406.87C1167.4 407.66 1166.09 410.46 1166.49 413.07L1167.94 422.52C1168.42 425.69 1166.25 428.65 1163.09 429.13L1162.9 429.16C1159.73 429.65 1156.77 427.48 1156.29 424.31Z" />
					</g>
				</g>
			</g>
			<g id="&lt;Group&gt;">
				<g id="&lt;Group&gt;">
					<path id="&lt;Path&gt;" class="shp14" d="M1156.14 586.02C1171.03 547.94 1205.01 514.46 1263.48 537.33C1301.55 552.23 1321.44 597.47 1310.45 636.85C1297.09 684.72 1258.22 701.73 1200.96 685.88C1161.55 674.98 1137.51 633.62 1156.14 586.02Z" />
				</g>
				<g id="&lt;Group&gt;">
					<path id="&lt;Compound Path&gt;" fill-rule="evenodd" class="shp15" d="M1238.45 681.99C1228.35 681.99 1217.24 680.34 1205.2 677.01C1187.99 672.25 1174.25 661.11 1166.5 645.63C1158.18 629 1157.86 608.93 1165.6 589.13C1170.74 576 1180.59 558.18 1198.31 547.88C1215.67 537.78 1236.36 537.31 1259.77 546.47C1292.4 559.23 1310.92 598.39 1301.05 633.76C1292.19 665.5 1270.41 681.99 1238.45 681.99ZM1170.48 643.65C1177.65 657.98 1190.4 668.3 1206.38 672.72C1230.17 679.31 1250.04 679.16 1265.45 672.3C1280.78 665.48 1291.31 652.11 1296.77 632.57C1306.04 599.33 1288.72 562.57 1258.15 550.61C1239.19 543.19 1192.63 532.25 1169.74 590.75C1162.46 609.36 1162.72 628.15 1170.48 643.65Z" />
				</g>
				<g id="&lt;Group&gt;">
					<g id="&lt;Group&gt;">
						<path id="&lt;Compound Path&gt;" class="shp5" d="M1216.88 655.17L1218.01 650.15C1218.42 648.33 1217.37 646.51 1215.6 645.91C1211.43 644.48 1207.54 642.32 1204.69 639.93C1203.3 638.78 1203 636.77 1203.95 635.24L1204.61 634.18C1205.76 632.33 1208.26 631.9 1209.97 633.26C1213.26 635.89 1217.5 638.14 1222.26 639.21C1230.39 641.03 1235.32 636.41 1236.82 629.7C1238.28 623.22 1236.36 619.25 1228.68 613.82C1218.07 606.5 1207.74 598.48 1210.04 588.24C1212.04 579.32 1219.56 571.54 1233.13 574.14C1234.75 574.45 1236.18 572.91 1236.54 571.3L1237.77 565.81C1238.21 563.85 1240.16 562.62 1242.12 563.06C1244.08 563.5 1245.31 565.44 1244.87 567.4L1243.84 571.98C1243.44 573.77 1244.43 575.59 1246.16 576.2C1249.64 577.42 1252.34 578.95 1254.47 580.54C1255.99 581.67 1256.36 583.81 1255.32 585.41L1254.67 586.42C1253.53 588.18 1251.15 588.58 1249.46 587.34C1247.09 585.6 1243.69 583.69 1238.93 582.62C1230.12 580.64 1225.59 585.31 1224.53 590.02C1223.16 596.14 1229.19 598.11 1238.2 604.58C1248.87 612.17 1254.76 620.81 1253.39 631.45C1251.92 642.81 1243.64 649.12 1228.82 648.1C1227.17 647.99 1225.76 649.33 1225.4 650.94L1224.09 656.79C1223.65 658.75 1221.71 659.98 1219.75 659.54L1219.63 659.51C1217.67 659.08 1216.44 657.13 1216.88 655.17Z" />
					</g>
				</g>
			</g>
			<g id="&lt;Group&gt;">
				<g id="&lt;Group&gt;">
					<path id="&lt;Path&gt;" class="shp14" d="M1079.53 763.99C1077.48 741.16 1086.16 715.86 1121.22 712.71C1144.06 710.66 1165.35 728.39 1169.69 750.9C1174.96 778.27 1159.71 796.52 1127.01 802.9C1104.5 807.28 1082.09 792.54 1079.53 763.99Z" />
				</g>
				<g id="&lt;Group&gt;">
					<path id="&lt;Compound Path&gt;" fill-rule="evenodd" class="shp15" d="M1119.94 798.07C1112.58 798.07 1105.56 795.76 1099.65 791.32C1091.31 785.05 1086.13 775.06 1085.06 763.19C1084.36 755.31 1084.84 743.91 1091.16 734.31C1097.35 724.89 1107.6 719.48 1121.65 718.22C1141.21 716.47 1160.3 731.49 1164.2 751.71C1168.79 775.58 1155.55 791.8 1126.91 797.38C1124.57 797.84 1122.24 798.07 1119.94 798.07ZM1087.54 762.96C1088.55 774.13 1093.38 783.49 1101.14 789.33C1108.33 794.72 1117.31 796.72 1126.44 794.94C1153.89 789.59 1166.11 774.8 1161.75 752.18C1158.09 733.18 1140.2 719.05 1121.87 720.71C1110.5 721.72 1084.4 727.88 1087.54 762.96Z" />
				</g>
				<g id="&lt;Group&gt;">
					<g id="&lt;Group&gt;">
						<path id="&lt;Compound Path&gt;" class="shp5" d="M1127.31 783.5L1126.62 780.7C1126.37 779.68 1125.39 779.03 1124.35 779.17C1121.9 779.5 1119.41 779.39 1117.38 778.91C1116.4 778.67 1115.74 777.74 1115.84 776.73L1115.9 776.04C1116.02 774.82 1117.17 773.98 1118.37 774.24C1120.67 774.73 1123.36 774.8 1126.02 774.15C1130.56 773.03 1131.87 769.47 1130.95 765.73C1130.06 762.12 1128.11 760.61 1122.89 759.8C1115.73 758.78 1108.55 757.34 1107.14 751.63C1105.91 746.65 1107.74 740.86 1115.2 738.77C1116.09 738.52 1116.42 737.4 1116.2 736.5L1115.45 733.43C1115.18 732.34 1115.84 731.23 1116.94 730.96C1118.03 730.69 1119.14 731.36 1119.41 732.46L1120.04 735.01C1120.28 736.01 1121.23 736.68 1122.25 736.55C1124.31 736.29 1126.04 736.38 1127.51 736.65C1128.56 736.84 1129.27 737.82 1129.16 738.88L1129.08 739.55C1128.95 740.72 1127.86 741.51 1126.7 741.31C1125.07 741.03 1122.89 740.92 1120.23 741.58C1115.31 742.79 1114.21 746.27 1114.86 748.89C1115.7 752.31 1119.22 751.79 1125.36 752.78C1132.61 753.92 1137.72 756.78 1139.7 762.47C1141.81 768.54 1139.23 773.77 1131.54 776.97C1130.68 777.33 1130.31 778.35 1130.53 779.25L1131.34 782.51C1131.61 783.6 1130.94 784.71 1129.84 784.98L1129.78 784.99C1128.69 785.26 1127.58 784.6 1127.31 783.5Z" />
					</g>
				</g>
			</g>
			<g id="&lt;Group&gt;">
				<g id="&lt;Group&gt;">
					<g id="&lt;Group&gt;">
						<path id="&lt;Path&gt;" class="shp16" d="M1152.39 957.45C1060.89 910.57 933.61 834.15 846.87 736.34C826.77 713.68 819.42 704.63 809.61 689.16C801.72 676.72 771.9 682.44 751.53 701.5C732.41 719.4 721.29 754.29 724.61 761.72C730.26 774.37 744.04 790.78 766.04 816.53C842.46 906 965.33 989.86 1121.09 1063.3L1152.39 957.45Z" />
					</g>
				</g>
				<g id="&lt;Group&gt;">
					<path id="&lt;Path&gt;" class="shp5" d="M813.04 1023.94C812.78 1030.68 812.05 1040.69 810.84 1053.99C809.16 1073.94 805.92 1103.73 800.35 1143.1C799.96 1145.83 799.57 1148.67 799.18 1151.65C798.41 1156.45 797.76 1161.5 796.98 1166.68C796.89 1166.77 796.85 1166.85 796.85 1166.94L796.72 1167.84C793.87 1187.27 790.37 1208.78 786.1 1232.22L393.63 1233.64L398.54 1186.04L403.21 1152.95L405.29 1135.98L405.94 1130.93L417.21 1036.76L627.43 1010.34C627.08 1018.71 626.13 1031.11 624.58 1047.51L813.04 1023.94Z" />
				</g>
				<g id="&lt;Group&gt;">
					<path id="&lt;Path&gt;" class="shp11" d="M389.45 1137.71C388.74 1153.51 483.71 1166.48 601.97 1171.09C720.22 1175.69 815.66 1166 816.37 1150.19C817.07 1134.39 722.78 1118.46 604.52 1113.85C486.26 1109.24 390.15 1121.9 389.45 1137.71Z" />
				</g>
				<g id="&lt;Group&gt;">
					<path id="&lt;Path&gt;" class="shp17" d="M449.71 693.05C467.49 638.9 527.72 615.15 630.39 621.79C852.49 636.18 817.6 838.73 816.37 1150.19C672.03 1119.34 529.77 1113.88 389.61 1133.82C391.62 921.96 411.65 775.04 449.71 693.05Z" />
				</g>
				<g id="&lt;Group&gt;">
					<path id="&lt;Path&gt;" class="shp17" d="M393.71 677.2L490.36 739.9C636.2 763.54 728.82 773.52 768.24 769.83C807.65 766.15 833.71 750.38 846.41 722.52C807.93 676.67 753.82 645.53 684.09 629.11C674.26 626.78 664.04 624.86 653.4 623.42C635.53 621 617.54 619.98 599.84 620.72C509.73 624.52 441.02 643.35 393.71 677.2Z" />
				</g>
				<g id="&lt;Group&gt;">
					<path id="&lt;Path&gt;" class="shp16" d="M610.56 601.38L624.81 564.69L628.96 554.01L653.36 491.21L651.49 555.25L650.36 593.7L650.01 605.86C649.77 614.12 654.66 616.21 660.27 623.79C662.54 626.87 677.15 645.57 658.61 652.25C635.52 660.57 594.7 642.64 580.16 621.9C580.29 621.88 605.95 613.24 610.56 601.38Z" />
				</g>
				<g id="&lt;Group&gt;">
					<path id="&lt;Path&gt;" class="shp5" d="M796.89 1161.65C713.42 1130.59 582.2 1126.07 403.26 1148.09L398.54 1186.04L785.74 1227.02L796.89 1161.65Z" />
				</g>
				<g id="&lt;Group&gt;">
					<path id="&lt;Path&gt;" class="shp11" d="M710.8 1143.72C673.14 1140.13 645.93 1153.3 629.18 1183.2C639.5 1152.9 636.7 1137.43 620.8 1136.8C614.22 1136.54 617.65 1134.65 631.09 1131.14L710.8 1143.72Z" />
				</g>
				<g id="&lt;Group&gt;">
					<path id="&lt;Path&gt;" class="shp11" d="M391.38 679.46C380.56 692.75 396.15 723.86 426.21 748.95C456.26 774.04 489.4 783.61 500.22 770.33C511.04 757.04 495.45 725.93 465.4 700.84C435.34 675.75 402.2 666.17 391.38 679.46Z" />
				</g>
				<g id="&lt;Group&gt;">
					<g id="&lt;Group&gt;">
						<path id="&lt;Path&gt;" class="shp16" d="M492.33 771.29C491.2 772.91 490.12 774.48 489.07 776.02C478.86 791.01 472 803.61 457.26 832.72C433.58 879.47 413.46 930.77 396.41 983.03C368.29 1069.24 348.52 1158.06 334.94 1233.49L239.15 1233.78L230.24 1197.54C258.9 1018.29 301.1 877.24 359.15 767.09C364.24 757.45 368.82 748.77 373.02 741.03C380.59 727.04 386.9 716.09 392.55 707.89C395.3 703.93 397.89 700.61 400.4 697.92C402.86 695.26 410.07 693.69 419.26 693.76C427.65 693.83 437.7 695.26 447.28 698.49C453.6 700.62 459.73 703.54 465.05 707.36C476.71 715.73 485.89 728.02 491.02 740C491.75 741.7 492.4 743.4 492.95 745.08C496.44 755.52 496.59 765.22 492.33 771.29Z" />
					</g>
				</g>
				<g id="&lt;Group&gt;">
					<g id="&lt;Group&gt;">
						<path id="&lt;Path&gt;" class="shp18" d="M706.23 470.69C708.21 481.24 707.39 492.92 703.77 505.72C700.16 518.52 692.86 508.49 681.9 475.63L706.23 470.69Z" />
					</g>
					<g id="&lt;Group&gt;">
						<path id="&lt;Path&gt;" class="shp16" d="M705.74 511.5C703.44 473.48 676.01 444.21 644.48 446.12C612.95 448.02 589.25 480.39 591.55 518.41C593.85 556.43 621.28 585.71 652.81 583.8C684.34 581.89 708.03 549.52 705.74 511.5Z" />
					</g>
					<g id="&lt;Group&gt;">
						<path id="&lt;Path&gt;" class="shp17" d="M591.51 498.62L619.33 497.69C625.45 497.49 631.23 494.61 634.88 489.7C641.16 481.24 648.29 477.17 673.98 479.95C706.52 483.46 729.42 465.53 734.15 448.71C738.97 431.54 723.1 418.56 706.13 425.71C689.16 432.87 697.63 412.99 682.03 409.72C652.87 403.62 645.76 425.92 621.7 423.49C590.16 420.3 531.86 440.35 554.8 497.87L591.51 498.62Z" />
					</g>
					<g id="&lt;Group&gt;">
						<g id="&lt;Group&gt;">
							<path id="&lt;Path&gt;" class="shp19" d="M651.85 512.29C652.16 512.12 652.39 511.81 652.45 511.44C652.54 510.81 652.11 510.22 651.48 510.12C651.11 510.06 642.6 507.92 637.61 516.77C637.3 517.33 637.47 518.03 638.03 518.36C638.58 518.68 639.18 518.42 639.61 517.95C643.99 513.26 650.81 512.37 651.13 512.41C651.38 512.45 651.63 512.4 651.85 512.29Z" />
						</g>
					</g>
					<g id="&lt;Group&gt;">
						<path id="&lt;Path&gt;" class="shp19" d="M645.79 526.77C646.33 529.48 648.36 531.37 650.33 530.97C652.3 530.58 653.46 528.07 652.92 525.35C652.38 522.64 650.35 520.76 648.38 521.15C646.41 521.54 645.25 524.06 645.79 526.77Z" />
					</g>
					<g id="&lt;Group&gt;">
						<g id="&lt;Group&gt;">
							<path id="&lt;Path&gt;" class="shp19" d="M694.88 511.86C695.15 511.83 695.4 511.64 695.54 511.33C695.79 510.79 695.63 510.07 695.2 509.73C694.95 509.53 689.36 504.15 683.32 510.24C682.94 510.62 682.87 511.34 683.18 511.86C683.49 512.38 684 512.37 684.45 512.12C688.91 509.59 694.1 511.52 694.32 511.68C694.49 511.82 694.69 511.88 694.88 511.86Z" />
						</g>
					</g>
					<g id="&lt;Group&gt;">
						<path id="&lt;Path&gt;" class="shp19" d="M683.5 522.97C682.96 525.68 684.13 528.2 686.1 528.59C688.06 528.98 690.1 527.09 690.63 524.38C691.16 521.66 690 519.15 688.03 518.76C686.06 518.37 684.03 520.26 683.5 522.97Z" />
					</g>
					<g id="&lt;Group&gt;">
						<path id="&lt;Path&gt;" class="shp17" d="M554.8 497.87C565.59 526.2 579.93 542.01 597.81 545.29C584.7 523.35 593.96 507.09 625.59 496.51C597.68 490.09 574.09 490.54 554.8 497.87Z" />
					</g>
					<g id="&lt;Group&gt;">
						<path id="&lt;Path&gt;" class="shp16" d="M591.33 523.26C596.86 527.35 604.3 526.66 607.95 521.72C611.6 516.78 610.08 509.47 604.56 505.38C599.03 501.29 591.59 501.99 587.94 506.92C584.29 511.86 585.81 519.18 591.33 523.26Z" />
					</g>
					<g id="&lt;Group&gt;">
						<path id="&lt;Path&gt;" class="shp17" d="M625.59 496.51C621.51 519.36 621.66 533.13 626.04 537.81C632.61 544.83 678.83 550.9 701.08 544.05C699.88 566.26 682.87 584.75 660.74 586.88C653.41 587.59 645.93 587.07 638.58 585.25C623.6 581.54 609.3 574.23 604.04 559.72C602.97 556.78 604.89 546.66 609.82 529.36C611.93 519.16 610.18 511.16 604.56 505.38C611.91 499.65 618.92 496.69 625.59 496.51Z" />
					</g>
					<g id="&lt;Group&gt;">
						<path id="&lt;Path&gt;" class="shp2" d="M688.77 555.71C676.69 558.08 664.21 558.19 651.35 556.03C652.41 568.16 659.57 573.49 672.85 572.02C680.57 571.16 685.88 565.73 688.77 555.71Z" />
					</g>
					<g id="&lt;Group&gt;">
						<path id="&lt;Path&gt;" class="shp11" d="M703.29 422.78C694.27 422.42 694.01 414.71 694.01 414.63L695.57 414.6L694.79 414.62L695.57 414.6C695.58 414.86 695.83 420.92 703.36 421.22L703.29 422.78Z" />
					</g>
					<g id="&lt;Group&gt;">
						<path id="&lt;Path&gt;" class="shp2" d="M683.87 471.45L683.7 470.69C684.06 470.61 719.49 462.76 722.18 445C722.95 439.97 722.34 436.56 720.32 434.56C717.09 431.36 710.72 432.38 705.11 433.28C704.24 433.42 703.4 433.55 702.59 433.67L702.48 432.9C703.28 432.78 704.12 432.65 704.98 432.51C710.78 431.58 717.36 430.52 720.87 434C723.07 436.19 723.76 439.82 722.96 445.11C721.8 452.71 714.66 459.67 702.3 465.26C693.02 469.45 683.96 471.43 683.87 471.45Z" />
					</g>
					<g id="&lt;Group&gt;">
						<path id="&lt;Path&gt;" class="shp2" d="M622.96 430.59C618.3 430.59 613.21 430.11 607.69 428.96L607.85 428.2C625.39 431.84 638.42 428.62 646.27 425.29C654.78 421.67 659.2 417.13 659.24 417.09L659.81 417.63C659.66 417.78 647.04 430.59 622.96 430.59Z" />
					</g>
				</g>
				<g id="&lt;Group&gt;">
					<path id="&lt;Compound Path&gt;" fill-rule="evenodd" class="shp20" d="M314.14 996.18C313.14 996.18 312.14 996.07 311.14 995.84C301.55 993.55 296.35 980.71 299.57 967.2C302.78 953.69 313.2 944.57 322.8 946.85C332.4 949.13 337.59 961.98 334.38 975.48C331.5 987.59 322.82 996.18 314.14 996.18ZM304.16 968.29C301.6 979.08 305.3 989.58 312.24 991.23C319.18 992.89 327.21 985.17 329.78 974.39C332.34 963.6 328.65 953.1 321.7 951.45C314.77 949.8 306.73 957.51 304.16 968.29Z" />
				</g>
			</g>
			<g id="&lt;Group&gt;">
				<g id="&lt;Group&gt;">
					<g id="&lt;Group&gt;">
						<path id="&lt;Path&gt;" class="shp16" d="M1272.43 992.38C1270.4 990.32 1267.69 988.34 1264.47 986.46C1288.05 979.13 1287.31 967.84 1248.41 961.2C1229.34 957.95 1195.95 945.88 1171.3 947.53C1159.92 948.28 1149.97 949.7 1141.44 951.79C1132.09 950.68 1073.01 1039.22 1074.5 1040.52C1129.24 1080.12 1220.23 1103.81 1235.41 1098.25C1250.7 1092.66 1241.88 1079.6 1253.79 1073.57C1266.47 1067.16 1256.78 1053.07 1265.72 1047.11C1274.67 1041.14 1272.62 1031.68 1270.38 1021.2C1268.14 1010.72 1283.98 1004.09 1272.43 992.38Z" />
					</g>
				</g>
				<g id="&lt;Group&gt;">
					<g id="&lt;Group&gt;">
						<g id="&lt;Group&gt;">
							<path id="&lt;Path&gt;" class="shp5" d="M1527.68 731.81C1525.89 735.72 1524.32 739.31 1522.84 742.95C1518.39 753.89 1514.79 765.17 1508.52 786.35C1504.66 799.37 1502.18 813.24 1500.71 827.71C1500.64 828.37 1500.58 829.03 1500.51 829.69C1500.47 830.15 1500.43 830.61 1500.39 831.07C1495.39 886.46 1504.7 950.07 1508.73 1007.51C1509.08 1012.34 1509.37 1017.12 1509.62 1021.85C1509.67 1022.68 1509.71 1023.52 1509.75 1024.35C1509.76 1024.44 1509.76 1024.53 1509.77 1024.62C1511.16 1052.71 1510.72 1078.91 1506.01 1101.37C1505.11 1105.65 1504.06 1109.78 1502.82 1113.78C1501.67 1117.56 1500.36 1121.21 1498.87 1124.72C1495.88 1131.81 1476.68 1156.29 1469.52 1161C1469.42 1161.06 1469.01 1176.92 1464.79 1177.98C1464.73 1178 1450.5 1190.79 1448.39 1190.76C1406.92 1190.22 1392.41 1190.76 1390.57 1179.01C1378.88 1126.4 1372.2 1089.34 1370.55 1067.81C1370.54 1067.71 1370.54 1067.6 1370.52 1067.5C1370.45 1066.61 1370.39 1065.73 1370.33 1064.86C1370.24 1063.84 1370.17 1062.82 1370.1 1061.8C1368.17 1035.38 1367.04 1009.62 1366.74 984.68C1366.37 956.97 1367.01 930.28 1368.66 904.77C1368.66 904.71 1368.66 904.67 1368.67 904.63C1368.73 903.69 1368.78 902.74 1368.86 901.8C1371.53 862.19 1376.65 825.47 1384.26 792.38C1393.66 751.43 1406.86 716.03 1423.94 687.54C1423.95 687.53 1423.96 687.51 1423.98 687.49C1424.2 687.13 1424.57 686.76 1425.07 686.41C1425.08 686.41 1425.08 686.41 1425.08 686.4C1432.05 681.45 1463.79 677.13 1485.13 681.04C1489.37 681.81 1493.19 682.92 1496.34 684.4C1517.84 694.58 1533.5 719.18 1527.68 731.81Z" />
						</g>
					</g>
				</g>
				<g id="&lt;Group&gt;">
					<g id="&lt;Group&gt;">
						<path id="&lt;Path&gt;" class="shp17" d="M1655.57 1203.56L1640.34 1202.62L1552.78 1197.21L1552.69 1197.21L1494.53 1193.62L1467.34 1191.94L1448.39 1190.76L1448.29 1190.76C1447.78 1186.12 1447.3 1181.55 1446.84 1177.07C1446.63 1175.04 1446.42 1173.02 1446.22 1171.02C1445.73 1166.07 1445.25 1161.22 1444.8 1156.48C1444.38 1152.04 1443.97 1147.69 1443.6 1143.43C1443.33 1140.47 1443.07 1137.56 1442.83 1134.69L1442.81 1134.48L1442.8 1134.35L1442.78 1134.12C1442.77 1134.02 1442.77 1133.94 1442.76 1133.84L1442.76 1133.83C1442.32 1128.77 1441.91 1123.83 1441.54 1119.03C1441.31 1116.17 1441.09 1113.34 1440.88 1110.57C1439.14 1087.37 1438.02 1067.58 1437.3 1051.22C1437.29 1050.83 1437.28 1050.44 1437.26 1050.05C1437.22 1049.14 1437.19 1048.24 1437.15 1047.34C1436.17 1023.55 1435.87 1005.61 1436.23 993.52L1508.73 1007.51L1532.88 1012.17L1534.37 1012.47L1535.63 1012.71L1537.42 1013.05L1613.75 1027.79L1626.56 1030.26L1646.49 1034.11L1650.02 1099.87L1650.63 1111.31L1651.25 1123.03L1653.11 1157.84L1655.03 1193.59L1655.57 1203.56Z" />
					</g>
				</g>
				<g id="&lt;Group&gt;">
					<g id="&lt;Group&gt;">
						<path id="&lt;Compound Path&gt;" class="shp17" d="M1785.14 1189.1L1784.76 1156.27L1784.55 1137.83L1784.37 1121.97L1784.27 1112.49L1784.27 1112.48L1783.26 1024.2L1783.26 1024.19L1640.5 1008.63L1614.95 1005.84C1615.21 1010.76 1615.81 1018.08 1616.75 1027.79C1617.24 1032.79 1617.84 1038.66 1618.61 1045.35C1620.21 1059.51 1622.47 1077.44 1625.65 1099.06C1626.19 1102.83 1626.78 1106.71 1627.39 1110.7C1627.94 1114.27 1628.5 1117.93 1629.1 1121.67C1630.85 1132.75 1632.81 1144.61 1635.01 1157.23C1637.04 1168.89 1639.28 1181.21 1641.73 1194.17C1642.25 1196.95 1642.79 1199.77 1643.34 1202.62L1658.57 1203.56L1775.84 1210.8C1781 1211.12 1785.35 1207 1785.28 1201.86L1785.14 1189.1Z" />
					</g>
				</g>
				<g id="&lt;Group&gt;">
					<g id="&lt;Group&gt;">
						<path id="&lt;Path&gt;" class="shp11" d="M1781.37 1121.97L1781.55 1137.83L1781.76 1156.27C1746.97 1158.54 1702.3 1159.07 1653.11 1157.84C1648.38 1157.73 1643.6 1157.59 1638.78 1157.45C1636.52 1157.37 1634.25 1157.3 1632.01 1157.23C1623.95 1156.93 1616.02 1156.6 1608.22 1156.2C1606.65 1156.11 1605.08 1156.03 1603.52 1155.95L1603.5 1155.95C1558.59 1153.52 1518.53 1149.32 1487.7 1144.15C1469.25 1141.05 1454.12 1137.61 1443.23 1133.99L1443.22 1133.99C1443.06 1133.95 1442.91 1133.9 1442.76 1133.84L1442.76 1133.83C1431.8 1130.16 1425.25 1126.31 1424.12 1122.47C1423.99 1122.03 1423.93 1121.6 1423.94 1121.17C1423.95 1121.07 1423.95 1120.96 1423.96 1120.86C1424.04 1120.01 1424.41 1119.18 1425.03 1118.37C1427.22 1115.51 1432.67 1112.9 1440.88 1110.57C1455.13 1106.55 1477.68 1103.4 1506.01 1101.37C1538.55 1099.03 1578.7 1098.15 1622.65 1099.06C1628.45 1099.19 1634.32 1099.33 1640.26 1099.52C1643.53 1099.63 1646.79 1099.74 1650.02 1099.87C1683.49 1101.15 1727.28 1108.52 1781.37 1121.97Z" />
					</g>
				</g>
				<g id="&lt;Group&gt;">
					<g id="&lt;Group&gt;">
						<path id="&lt;Path&gt;" class="shp5" d="M1781.27 1112.49L1781.27 1112.48L1780.26 1024.2L1780.26 1024.19L1778.15 839.67L1776.9 730.76L1776.07 658.08L1775.9 642.37C1758.75 630.11 1739.01 619.42 1716.48 612.01L1716.47 612.01C1710.51 610.05 1704.35 608.32 1698 606.85C1682.82 603.34 1666.51 601.31 1649.03 601.22C1642.64 601.19 1636.46 601.31 1630.47 601.61C1626.02 601.83 1621.67 602.14 1617.44 602.55L1617.42 602.55C1607.74 603.47 1598.61 604.85 1589.96 606.7L1589.95 606.7C1540.56 617.23 1507.61 642.71 1485.13 681.04C1476.73 695.31 1469.81 711.38 1464.04 729.12C1454.27 759.09 1447.77 793.84 1443.07 832.85C1443.06 832.86 1443.06 832.87 1443.07 832.88C1442.93 834.03 1442.79 835.19 1442.65 836.35L1442.65 836.36C1441.62 845.19 1440.67 854.24 1439.8 863.49L1439.8 863.5C1439.72 864.37 1439.63 865.24 1439.55 866.12C1439.53 866.32 1439.52 866.52 1439.5 866.73C1434.47 921.11 1431.82 982.61 1428.17 1050.05C1428.11 1050.97 1428.06 1051.9 1428.02 1052.82C1427.99 1053.23 1427.97 1053.64 1427.95 1054.06C1426.93 1072.74 1425.83 1091.88 1424.57 1111.46C1424.57 1111.47 1424.57 1111.48 1424.57 1111.49C1424.37 1114.61 1424.17 1117.72 1423.96 1120.86C1423.95 1120.96 1423.95 1121.07 1423.94 1121.17C1424.23 1121.13 1424.67 1121.07 1425.24 1120.99C1427.61 1120.68 1433.19 1119.96 1441.54 1119.03C1455.19 1117.53 1476.25 1115.49 1502.82 1113.78C1536 1111.65 1577.76 1110.05 1624.39 1110.7C1632.98 1110.83 1641.73 1111.02 1650.63 1111.31C1691.92 1112.62 1736.29 1115.82 1781.37 1121.97L1781.27 1112.49Z" />
					</g>
				</g>
				<g id="&lt;Group&gt;">
					<g id="&lt;Group&gt;">
						<path id="&lt;Path&gt;" class="shp5" d="M1776.9 730.76C1758.96 732.32 1695.91 737.67 1632.99 740.91C1632.78 740.91 1632.57 740.92 1632.36 740.95C1630.64 741.03 1628.92 741.11 1627.2 741.2C1625.81 741.27 1624.41 741.33 1623.02 741.41C1608.72 742.09 1594.57 742.64 1581.08 743L1581.07 743C1559.13 743.61 1538.96 743.68 1522.84 742.95C1513.55 742.53 1505.61 741.84 1499.46 740.82C1485.33 738.49 1473.64 734.25 1464.04 729.12C1443.59 718.23 1430.23 704.37 1423.94 687.54C1423.95 687.53 1423.96 687.51 1423.98 687.49C1424.11 687.37 1424.47 687 1425.07 686.41C1425.08 686.41 1425.08 686.41 1425.08 686.4C1433.98 677.72 1494.16 622.05 1591.22 605.32C1592.25 605.14 1593.29 604.96 1594.33 604.8C1602.04 603.54 1609.96 602.53 1618.11 601.81C1620.61 601.59 1623.15 601.4 1625.7 601.23C1627.23 601.13 1628.76 601.04 1630.31 600.99C1636.85 600.69 1643.39 600.65 1649.9 600.81C1649.91 600.81 1649.91 600.81 1649.91 600.81C1659.98 601.01 1670 601.64 1679.93 602.31C1686.05 602.73 1691.97 603.3 1697.68 604.01C1697.69 604.01 1697.69 604.01 1697.7 604.01C1705.02 604.9 1712.01 606.04 1718.71 607.37C1740.82 611.77 1759.67 618.42 1775.72 626.5L1775.9 642.37L1776.07 658.08L1776.9 730.76Z" />
					</g>
				</g>
				<g id="&lt;Group&gt;">
					<g id="&lt;Group&gt;">
						<path id="&lt;Path&gt;" class="shp17" d="M1782.14 1189.1L1655.03 1193.59L1638.73 1194.17L1552.78 1197.21L1552.69 1197.21L1494.53 1193.62L1468.96 1192.03L1468.4 1192L1467.34 1191.94L1450.93 1190.92C1451.85 1188.13 1454.08 1185.79 1457.09 1184.89C1457.25 1184.84 1453.7 1180.2 1446.43 1170.97L1444.99 1156.47L1443.71 1143.52L1442.83 1134.69L1442.81 1134.48L1442.8 1134.35L1442.78 1134.12C1442.88 1134.09 1443.02 1134.05 1443.22 1133.99L1443.23 1133.99C1446.27 1133.15 1464.69 1128.3 1498.87 1124.72C1508.34 1123.71 1519.01 1122.81 1530.9 1122.12C1530.92 1122.12 1530.94 1122.12 1530.96 1122.12C1555.85 1120.66 1586.05 1120.11 1621.66 1121.51C1621.84 1121.51 1622.02 1121.51 1622.21 1121.52C1623.5 1121.57 1624.79 1121.62 1626.1 1121.67C1634.21 1122.02 1642.59 1122.47 1651.25 1123.03C1689.35 1125.47 1732.76 1130.08 1781.55 1137.83L1781.76 1156.27L1782.14 1189.1Z" />
					</g>
				</g>
				<g id="&lt;Group&gt;">
					<g id="&lt;Group&gt;">
						<path id="&lt;Path&gt;" class="shp11" d="M1530.91 1122.12C1569.16 1121.18 1595.68 1136.38 1610.46 1167.75C1602.2 1136.44 1606.12 1121.03 1622.21 1121.52C1628.87 1121.72 1625.54 1119.58 1612.23 1115.08L1530.91 1122.12Z" />
					</g>
				</g>
				<g id="&lt;Group&gt;">
					<g id="&lt;Group&gt;">
						<path id="&lt;Path&gt;" class="shp18" d="M1583.22 443.4C1580.47 453.9 1580.47 465.74 1583.22 478.91C1585.96 492.08 1594.03 482.48 1607.42 450.1L1583.22 443.4Z" />
					</g>
				</g>
				<g id="&lt;Group&gt;">
					<g id="&lt;Group&gt;">
						<path id="&lt;Path&gt;" class="shp16" d="M1699.71 604.89C1683.56 624.78 1654.55 621.98 1631.86 611.96C1613.61 603.89 1616.23 604.05 1618.74 601.12C1624.92 593.87 1630.03 592.11 1630.37 583.76L1630.81 572.82L1630.86 571.46L1631.44 557.19L1632.46 532.59L1635.1 467.85L1655.29 532.93L1658.71 544L1670.5 582.04C1674.29 594.31 1699.58 604.86 1699.71 604.89Z" />
					</g>
				</g>
				<g id="&lt;Group&gt;">
					<g id="&lt;Group&gt;">
						<path id="&lt;Path&gt;" class="shp11" d="M1661.86 554.21C1654.91 564.61 1644.56 570.81 1630.81 572.82L1630.86 571.46L1631.44 557.19C1638.87 556.48 1649.01 555.48 1661.86 554.21Z" />
					</g>
				</g>
				<g id="&lt;Group&gt;">
					<g id="&lt;Group&gt;">
						<path id="&lt;Path&gt;" class="shp16" d="M1580.83 484.61C1585.84 446.41 1615.59 418.81 1647.26 422.97C1678.94 427.13 1700.56 461.47 1695.54 499.67C1690.53 537.86 1660.78 565.46 1629.1 561.3C1597.43 557.14 1575.81 522.8 1580.83 484.61Z" />
					</g>
				</g>
				<g id="&lt;Group&gt;">
					<g id="&lt;Group&gt;">
						<g id="&lt;Group&gt;">
							<path id="&lt;Path&gt;" class="shp19" d="M1626.62 489.68C1626.28 489.59 1625.97 489.35 1625.83 488.99C1625.58 488.4 1625.86 487.71 1626.46 487.46C1626.81 487.32 1634.65 483.15 1641.68 490.64C1642.13 491.12 1642.13 491.85 1641.66 492.3C1641.2 492.76 1640.55 492.64 1640 492.29C1634.57 488.74 1627.65 489.51 1627.36 489.63C1627.12 489.73 1626.86 489.74 1626.62 489.68Z" />
						</g>
					</g>
				</g>
				<g id="&lt;Group&gt;">
					<g id="&lt;Group&gt;">
						<g id="&lt;Group&gt;">
							<path id="&lt;Path&gt;" class="shp19" d="M1595.49 489.39C1595.21 489.38 1594.95 489.21 1594.78 488.9C1594.5 488.37 1594.6 487.64 1595.01 487.26C1595.25 487.04 1600.52 481.23 1607.04 486.95C1607.45 487.31 1607.57 488.03 1607.29 488.57C1607.01 489.12 1606.5 489.15 1606.03 488.92C1601.35 486.69 1596.24 488.99 1596.04 489.17C1595.87 489.33 1595.68 489.39 1595.49 489.39Z" />
						</g>
					</g>
				</g>
				<g id="&lt;Group&gt;">
					<g id="&lt;Group&gt;">
						<path id="&lt;Path&gt;" class="shp2" d="M1601.03 521.38C1613.05 524.63 1625.63 525.62 1638.77 524.35C1636.84 536.51 1629.23 541.38 1615.94 538.96C1608.21 537.55 1603.24 531.69 1601.03 521.38Z" />
					</g>
				</g>
				<g id="&lt;Group&gt;">
					<g id="&lt;Group&gt;">
						<path id="&lt;Path&gt;" class="shp17" d="M1648.65 615.15C1630.37 609.5 1618.8 608.87 1613.94 613.26C1606.65 619.84 1612.01 649.96 1624.64 652.64C1637.27 655.31 1661.14 622.42 1648.65 615.15Z" />
					</g>
				</g>
				<g id="&lt;Group&gt;">
					<g id="&lt;Group&gt;">
						<path id="&lt;Path&gt;" class="shp5" d="M1632.54 608.05C1656.41 599.61 1670.67 591.18 1675.32 582.74C1682.3 570.09 1719.37 599.32 1718.72 608.05C1718.08 616.77 1651.32 665.2 1646.96 659.09C1642.6 652.99 1623.8 616.34 1632.54 608.05Z" />
					</g>
				</g>
				<g id="&lt;Group&gt;">
					<g id="&lt;Group&gt;">
						<path id="&lt;Path&gt;" class="shp5" d="M1632.54 608.05C1628.98 599.19 1628.06 592.36 1629.77 587.55C1630.91 583.33 1629.66 581.36 1626.02 581.65C1620.57 582.09 1590.9 602.81 1588.28 609.14C1585.66 615.46 1585.23 645.13 1594.83 647.31C1604.42 649.5 1627.56 617.63 1630.28 614.47C1632.09 612.37 1632.85 610.23 1632.54 608.05Z" />
					</g>
				</g>
				<g id="&lt;Group&gt;">
					<g id="&lt;Group&gt;">
						<path id="&lt;Path&gt;" class="shp17" d="M1616.96 640.99C1554.07 804.02 1524.72 919.69 1528.91 988.02C1533.34 1027.89 1549.69 1058.59 1577.96 1080.12C1616.11 1055.1 1637.74 1024.4 1642.87 988.02C1649.19 943.17 1621.22 683.3 1637.36 647.42L1616.96 640.99Z" />
					</g>
				</g>
				<g id="&lt;Group&gt;">
					<g id="&lt;Group&gt;">
						<path id="&lt;Path&gt;" class="shp11" d="M1624.85 653.29C1624.78 653.29 1624.7 653.29 1624.63 653.29C1616.31 653.15 1611.78 636.88 1611.59 636.19L1612.86 635.84C1612.9 636 1617.31 651.86 1624.65 651.98C1624.72 651.98 1624.78 651.98 1624.85 651.98C1632.32 651.98 1639.01 645.05 1639.08 644.98L1640.03 645.88C1639.73 646.19 1632.87 653.29 1624.85 653.29Z" />
					</g>
				</g>
				<g id="&lt;Group&gt;">
					<g id="&lt;Group&gt;">
						<path id="&lt;Path&gt;" class="shp17" d="M1662.76 449.27C1653.46 463.9 1638.64 471.69 1618.28 472.64C1615.86 471.74 1616.4 470.19 1619.9 467.96C1625.15 464.63 1632.6 455.51 1630.62 452.67C1628.64 449.83 1606.08 480.58 1582.56 478.99C1560.78 478.25 1556.21 471.38 1568.87 458.4C1580.65 446.31 1568.87 398.63 1646.92 394.27C1658.33 393.63 1682.96 395.11 1692.12 412.74C1712.78 412.1 1725.21 424.27 1729.42 449.27C1735.75 486.87 1721.71 512.56 1687.32 526.34C1695.85 494.43 1695.41 480.54 1686.01 484.68C1667.9 492.65 1658.31 482.37 1666.16 471.98C1674.01 461.59 1675.93 441 1662.76 449.27Z" />
					</g>
				</g>
				<g id="&lt;Group&gt;">
					<g id="&lt;Group&gt;">
						<path id="&lt;Path&gt;" class="shp16" d="M1695.42 504.58C1689.55 508.31 1682.09 507.09 1678.76 501.84C1675.43 496.6 1677.48 489.33 1683.34 485.6C1689.21 481.87 1696.66 483.09 1700 488.33C1703.33 493.57 1701.28 500.85 1695.42 504.58Z" />
					</g>
				</g>
				<g id="&lt;Group&gt;">
					<g id="&lt;Group&gt;">
						<path id="&lt;Path&gt;" class="shp11" d="M1716.66 415.21C1716.32 415.21 1715.99 415.08 1715.73 414.82C1707.2 406.29 1694.21 409.57 1694.09 409.6C1693.38 409.78 1692.67 409.37 1692.49 408.67C1692.3 407.97 1692.72 407.25 1693.42 407.07C1694.01 406.91 1708 403.39 1717.58 412.97C1718.1 413.48 1718.1 414.31 1717.58 414.82C1717.33 415.08 1717 415.21 1716.66 415.21Z" />
					</g>
				</g>
				<g id="&lt;Group&gt;">
					<g id="&lt;Group&gt;">
						<path id="&lt;Path&gt;" class="shp11" d="M1689.38 402.45C1689.32 402.45 1689.26 402.44 1689.2 402.43C1688.48 402.33 1687.99 401.68 1688.08 400.96C1688.12 400.66 1688.79 394.09 1678.6 390.59C1677.92 390.36 1677.56 389.62 1677.79 388.93C1678.03 388.25 1678.77 387.88 1679.45 388.12C1691.79 392.35 1690.73 400.95 1690.68 401.32C1690.58 401.97 1690.02 402.45 1689.38 402.45Z" />
					</g>
				</g>
				<g id="&lt;Group&gt;">
					<g id="&lt;Group&gt;">
						<path id="&lt;Path&gt;" class="shp11" d="M1443.73 836.91C1443.62 836.91 1443.52 836.9 1443.41 836.87C1442.71 836.7 1442.28 835.99 1442.46 835.29C1449.6 806.67 1458.49 780.92 1468.87 758.74C1469.18 758.08 1469.96 757.8 1470.61 758.11C1471.27 758.41 1471.55 759.19 1471.24 759.85C1460.93 781.88 1452.1 807.47 1445 835.92C1444.85 836.51 1444.32 836.91 1443.73 836.91Z" />
					</g>
				</g>
				<g id="&lt;Group&gt;">
					<g id="&lt;Group&gt;">
						<path id="&lt;Path&gt;" class="shp11" d="M1423.94 1122.48C1423.26 1122.48 1422.69 1121.97 1422.63 1121.29C1422.62 1121.15 1421.44 1107.11 1420.68 1084.34C1420.66 1083.61 1421.22 1083.01 1421.95 1082.99C1421.96 1082.98 1421.97 1082.98 1421.99 1082.98C1422.69 1082.98 1423.27 1083.54 1423.3 1084.25C1424.05 1106.95 1425.23 1120.93 1425.24 1121.06C1425.3 1121.79 1424.77 1122.42 1424.05 1122.48C1424.01 1122.48 1423.97 1122.48 1423.94 1122.48Z" />
					</g>
				</g>
				<g id="&lt;Group&gt;">
					<g id="&lt;Group&gt;">
						<path id="&lt;Path&gt;" class="shp19" d="M1597.77 502.74C1598.09 505.22 1599.8 507.05 1601.6 506.82C1603.4 506.59 1604.61 504.39 1604.29 501.91C1603.98 499.42 1602.26 497.6 1600.46 497.83C1598.66 498.06 1597.45 500.25 1597.77 502.74Z" />
					</g>
				</g>
				<g id="&lt;Group&gt;">
					<g id="&lt;Group&gt;">
						<path id="&lt;Path&gt;" class="shp19" d="M1627.55 503.6C1627.86 506.08 1629.58 507.91 1631.38 507.68C1633.18 507.45 1634.39 505.25 1634.07 502.77C1633.76 500.29 1632.04 498.46 1630.24 498.69C1628.44 498.92 1627.23 501.12 1627.55 503.6Z" />
					</g>
				</g>
				<g id="&lt;Group&gt;">
					<g id="&lt;Group&gt;">
						<g id="&lt;Group&gt;">
							<path id="&lt;Path&gt;" class="shp5" d="M1778.15 839.67C1776.93 841.04 1775.7 842.4 1774.45 843.78C1764.63 854.55 1753.94 865.26 1742.53 875.84C1742.52 875.86 1742.51 875.87 1742.5 875.87C1713.55 902.67 1679.93 928.59 1643.61 952.36C1625.65 964.12 1607.03 975.34 1588 985.89C1587.95 985.93 1587.89 985.96 1587.83 985.99C1570.71 995.48 1553.25 1004.42 1535.63 1012.71C1535.28 1012.87 1534.93 1013.03 1534.59 1013.19C1526.34 1017.06 1518.05 1020.78 1509.75 1024.35C1506.6 1025.7 1503.44 1027.04 1500.28 1028.34C1500.21 1028.37 1500.14 1028.39 1500.07 1028.42C1479.12 1037.12 1458.08 1044.77 1437.3 1051.22C1434.18 1052.2 1431.06 1053.14 1427.95 1054.06C1414.72 1057.95 1401.61 1061.34 1388.69 1064.17C1382.6 1065.51 1376.54 1066.73 1370.55 1067.81C1367.19 1068.42 1363.84 1069 1360.52 1069.52L1360.51 1069.5L1359.46 1067.02L1353.45 1052.77L1352.99 1051.7L1352.76 1051.18L1345.41 1033.75C1345.4 1033.74 1345.39 1033.72 1345.39 1033.7L1332.42 1003.04C1332.41 1003.01 1332.4 1002.99 1332.39 1002.97L1329.92 997.08L1329.92 997.07L1310.47 951.04L1310.37 950.79L1309.94 949.77L1309.39 948.49L1303.97 935.65C1306.18 934.69 1308.45 933.72 1310.75 932.68C1310.76 932.67 1310.77 932.67 1310.78 932.67C1327.88 925.12 1347.48 915.66 1368.66 904.77C1368.76 904.71 1368.87 904.66 1368.97 904.61C1368.98 904.61 1368.99 904.61 1368.99 904.61C1374.54 901.75 1380.19 898.79 1385.95 895.73C1403.14 886.62 1421.15 876.68 1439.55 866.12C1459.59 854.63 1480.11 842.4 1500.51 829.69C1510.02 823.78 1519.51 817.76 1528.91 811.67C1541.98 803.19 1554.89 794.63 1567.5 786.11L1567.51 786.11C1577.44 779.42 1587.15 772.75 1596.61 766.17C1609.04 757.55 1621.02 749.08 1632.36 740.95C1632.57 740.79 1632.78 740.64 1632.98 740.5C1688.27 700.79 1728.51 668.84 1733.94 662.58C1740.07 655.5 1757.33 654.6 1776.07 658.08L1776.9 730.76L1778.15 839.67Z" />
						</g>
					</g>
				</g>
				<g id="&lt;Group&gt;">
					<g id="&lt;Group&gt;">
						<path id="&lt;Path&gt;" class="shp11" d="M1360.51 1069.51C1341.7 1076.55 1314.72 1051.78 1300.26 1014.21C1285.79 976.63 1289.31 940.47 1308.12 933.44C1326.92 926.41 1353.9 951.17 1368.37 988.75C1382.84 1026.32 1379.32 1062.48 1360.51 1069.51Z" />
					</g>
				</g>
				<g id="&lt;Group&gt;">
					<g id="&lt;Group&gt;">
						<path id="&lt;Path&gt;" class="shp16" d="M1346.46 1056.5C1331.97 1061.92 1311.19 1042.85 1300.05 1013.9C1288.9 984.96 1291.61 957.1 1306.1 951.69C1320.59 946.27 1341.37 965.35 1352.52 994.29C1363.66 1023.23 1360.95 1051.09 1346.46 1056.5Z" />
					</g>
				</g>
				<g id="&lt;Group&gt;">
					<g id="&lt;Group&gt;">
						<path id="&lt;Path&gt;" class="shp16" d="M1351.4 1051.07C1351.51 1050.98 1351.59 1050.9 1351.65 1050.84L1347.87 1043.25C1345.18 1031.48 1339.61 1013.11 1328.96 997.6C1332.01 996.05 1334.59 993.55 1336.17 990.25L1338.22 985.99C1342.03 978.02 1327.84 956.61 1319.87 952.79C1293.5 945.28 1271.23 936.82 1253.05 927.42C1198 898.95 1173.2 924.31 1207.44 943.7C1209.7 944.98 1228.36 955.52 1240.15 962.06C1243.58 963.97 1243.01 969.06 1239.25 970.15C1198.04 982.08 1065.04 1024.91 1077.02 1056.47C1084.2 1075.4 1171.52 1031.35 1171.08 1033.92C1170.63 1036.49 1093.89 1062.15 1114.43 1081.65C1128.24 1094.76 1199.75 1065.78 1198.7 1068.4C1197.65 1071.03 1137.34 1090.85 1142.58 1102.73C1151.38 1122.71 1207.79 1096.03 1208.14 1096.51C1208.49 1096.99 1169.49 1119.26 1180.67 1128.35C1191.86 1137.44 1329.78 1096.28 1352.56 1052.2L1351.4 1051.07Z" />
					</g>
				</g>
				<g id="&lt;Group&gt;">
					<g id="&lt;Group&gt;">
						<path id="&lt;Path&gt;" class="shp21" d="M1228.19 956.44C1228.02 956.44 1227.84 956.39 1227.68 956.3C1219.39 951.65 1208.3 945.39 1206.92 944.62C1193.98 937.28 1188.05 928.04 1191.82 921.08C1197.26 911.04 1220.73 909.53 1253.53 926.49C1280.4 940.38 1319.77 951.67 1320.16 951.78C1320.72 951.94 1321.04 952.52 1320.88 953.08C1320.72 953.64 1320.14 953.97 1319.58 953.8C1319.19 953.69 1279.62 942.34 1252.57 928.35C1219 910.99 1197.92 914.23 1193.67 922.08C1190.49 927.94 1196.1 936.07 1207.96 942.79C1209.33 943.57 1220.42 949.82 1228.71 954.47C1229.21 954.76 1229.39 955.4 1229.11 955.9C1228.92 956.24 1228.56 956.44 1228.19 956.44Z" />
					</g>
				</g>
				<g id="&lt;Group&gt;">
					<g id="&lt;Group&gt;">
						<path id="&lt;Compound Path&gt;" class="shp21" d="M1353.23 1051.4C1353.17 1051.35 1353.11 1051.31 1353.04 1051.27C1352.95 1051.22 1352.86 1051.19 1352.76 1051.18C1352.42 1051.1 1352.05 1051.21 1351.8 1051.47C1351.74 1051.54 1351.67 1051.62 1351.62 1051.72C1351.13 1052.67 1350.58 1053.63 1349.99 1054.57C1347.38 1058.71 1343.84 1062.73 1339.65 1066.6C1338.69 1067.51 1337.69 1068.39 1336.65 1069.27C1336.37 1069.51 1336.08 1069.75 1335.79 1070C1335.5 1070.24 1335.21 1070.48 1334.91 1070.72C1327.71 1076.6 1319.21 1082.07 1310.54 1086.93C1310.37 1087.04 1310.19 1087.13 1310.01 1087.24C1309.9 1087.29 1309.8 1087.35 1309.69 1087.41C1309.39 1087.58 1309.07 1087.75 1308.76 1087.93C1302.09 1091.61 1295.37 1094.94 1289.12 1097.83C1286.06 1099.25 1282.91 1100.65 1279.69 1102.04C1279.46 1102.13 1279.23 1102.23 1279 1102.33L1278.02 1102.74C1277.71 1102.88 1277.38 1103.01 1277.06 1103.16C1268.34 1106.82 1259.2 1110.33 1250.08 1113.5C1249.89 1113.57 1249.71 1113.63 1249.53 1113.69C1249.38 1113.75 1249.22 1113.8 1249.06 1113.85C1248.73 1113.98 1248.39 1114.09 1248.06 1114.2C1239.89 1117 1231.79 1119.51 1224.06 1121.64C1223.71 1121.75 1223.35 1121.84 1223 1121.94C1222.65 1122.03 1222.3 1122.13 1221.96 1122.22C1216.52 1123.69 1211.31 1124.96 1206.42 1125.98C1186.48 1130.13 1182.18 1128.22 1181.34 1127.53C1180.17 1126.58 1179.64 1125.48 1179.71 1124.14C1180.1 1116.35 1199.49 1103.58 1205.85 1099.38C1209.01 1097.31 1209.08 1097.28 1209.18 1096.71C1209.22 1096.43 1209.16 1096.12 1208.99 1095.89C1208.54 1095.27 1208.47 1095.18 1206.15 1096.1C1205.72 1096.28 1205.2 1096.48 1204.6 1096.73C1180.01 1106.69 1149.46 1115.74 1143.54 1102.31C1143.21 1101.57 1143.23 1100.77 1143.59 1099.87C1145.41 1095.29 1154.7 1089.81 1165.1 1084.77C1172.55 1081.15 1180.59 1077.78 1186.86 1075.14C1197.03 1070.86 1199.26 1069.85 1199.68 1068.8C1199.84 1068.37 1199.76 1067.9 1199.46 1067.58C1198.7 1066.77 1197.85 1066.96 1186.29 1070.62C1177.64 1073.37 1164.91 1077.4 1152.49 1080.32C1136.31 1084.15 1120.65 1086.09 1115.16 1080.89C1112.62 1078.49 1111.62 1075.98 1112.11 1073.23C1112.56 1070.62 1114.3 1067.95 1116.92 1065.27C1126.89 1055.12 1149.5 1045.12 1161.69 1039.74C1170.96 1035.65 1171.93 1035.12 1172.11 1034.1C1172.17 1033.72 1172 1033.26 1171.7 1033.01C1170.89 1032.38 1170.36 1032.49 1157.39 1037.96C1143.79 1043.69 1120.48 1053.52 1102.51 1057.93L1102.5 1057.93C1096.8 1059.32 1091.65 1060.17 1087.51 1060.17C1084.96 1060.17 1082.79 1059.85 1081.13 1059.13C1079.54 1058.45 1078.52 1057.47 1078 1056.1C1076.81 1052.95 1077.01 1049.05 1079.98 1044.34C1086.99 1033.16 1109.5 1017.36 1165.55 995.92C1166.1 995.71 1166.36 995.1 1166.16 994.57C1165.95 994.02 1165.34 993.75 1164.81 993.96C1116.2 1012.56 1087.22 1029.04 1078.23 1043.16C1075.15 1048 1074.41 1052.57 1076.03 1056.84C1076.76 1058.75 1078.19 1060.16 1080.3 1061.06C1085.48 1063.28 1094.64 1062.16 1105.25 1059.4C1116.59 1056.44 1129.58 1051.61 1141.13 1046.97C1131.01 1052.06 1120.82 1058.08 1114.96 1064.33C1112.3 1067.15 1110.53 1070.02 1110.04 1072.88C1109.44 1076.32 1110.67 1079.53 1113.71 1082.41C1120.23 1088.59 1138.15 1086.09 1156.08 1081.64C1167.29 1078.84 1178.51 1075.3 1186.93 1072.63C1187.59 1072.42 1188.25 1072.21 1188.9 1072C1187.96 1072.39 1187 1072.8 1186.04 1073.2C1178.88 1076.21 1170.13 1079.89 1162.26 1083.81C1152.19 1088.82 1143.58 1094.22 1141.65 1099.08C1141.07 1100.53 1141.06 1101.89 1141.61 1103.16C1146.65 1114.57 1166.28 1113.78 1199.98 1100.8C1188.93 1108.38 1177.96 1117.18 1177.62 1124.04C1177.51 1126.06 1178.32 1127.79 1180.02 1129.17C1181.34 1130.24 1183.91 1130.66 1187.14 1130.66C1192.75 1130.66 1200.35 1129.39 1206.85 1128.02C1211.68 1127.01 1217.15 1125.68 1223.09 1124.07C1223.44 1123.96 1223.79 1123.87 1224.14 1123.77C1224.5 1123.68 1224.84 1123.57 1225.2 1123.48C1232.63 1121.4 1240.71 1118.89 1249.11 1116C1249.42 1115.9 1249.73 1115.79 1250.05 1115.68C1250.07 1115.67 1250.1 1115.65 1250.13 1115.65C1250.47 1115.53 1250.8 1115.41 1251.15 1115.29C1259.93 1112.23 1269 1108.77 1277.98 1104.99C1278.31 1104.85 1278.63 1104.7 1278.96 1104.57L1279.93 1104.16C1280.09 1104.08 1280.25 1104.02 1280.4 1103.96C1290.94 1099.44 1301.29 1094.46 1310.81 1089.16C1311.02 1089.04 1311.23 1088.92 1311.43 1088.8C1320.4 1083.76 1328.62 1078.44 1335.51 1072.9C1335.81 1072.66 1336.12 1072.42 1336.41 1072.17C1336.72 1071.92 1337.01 1071.68 1337.3 1071.44C1338.81 1070.17 1340.25 1068.9 1341.61 1067.62C1346.76 1062.77 1350.82 1057.8 1353.45 1052.77C1353.46 1052.74 1353.48 1052.71 1353.49 1052.68C1353.72 1052.24 1353.59 1051.71 1353.23 1051.4Z" />
					</g>
				</g>
				<g id="&lt;Group&gt;">
					<g id="&lt;Group&gt;">
						<path id="&lt;Path&gt;" class="shp11" d="M1359.19 1069.71C1358.57 1069.71 1358.01 1069.26 1357.91 1068.62C1357.78 1067.91 1358.26 1067.24 1358.97 1067.11C1359.62 1067 1424.9 1055.57 1508.13 1022.45C1557 1003.01 1602.41 980 1643.1 954.07C1693.93 921.68 1737.49 884.6 1772.57 843.88C1773.04 843.33 1773.87 843.27 1774.42 843.74C1774.96 844.21 1775.03 845.04 1774.55 845.58C1739.3 886.51 1695.54 923.76 1644.47 956.3C1603.64 982.32 1558.07 1005.4 1509.04 1024.91C1425.56 1058.12 1360.07 1069.58 1359.42 1069.69C1359.34 1069.71 1359.27 1069.71 1359.19 1069.71Z" />
					</g>
				</g>
				<g id="&lt;Group&gt;">
					<g id="&lt;Group&gt;">
						<path id="&lt;Path&gt;" class="shp11" d="M1368.75 904.63C1368.27 904.63 1367.81 904.37 1367.58 903.91C1367.26 903.27 1367.52 902.48 1368.16 902.16C1370.47 900.99 1599.96 784.71 1660.6 702.35C1661.03 701.77 1661.85 701.65 1662.43 702.07C1663.02 702.5 1663.14 703.32 1662.71 703.91C1630.8 747.24 1552.7 799.49 1492.81 835.68C1427.98 874.86 1369.92 904.2 1369.34 904.49C1369.15 904.59 1368.95 904.63 1368.75 904.63Z" />
					</g>
				</g>
				<g id="&lt;Group&gt;">
					<g id="&lt;Group&gt;">
						<path id="&lt;Path&gt;" class="shp16" d="M1253.43 1120.33C1244.23 1109.4 1229.08 1070.92 1243.69 1064.02C1258.3 1057.13 1282.36 1101.38 1281.5 1109.55C1280.64 1117.71 1259.25 1127.23 1253.43 1120.33Z" />
					</g>
				</g>
				<g id="&lt;Group&gt;">
					<g id="&lt;Group&gt;">
						<path id="&lt;Path&gt;" class="shp16" d="M1226.37 1126.85C1218.55 1117.57 1205.68 1084.86 1218.1 1079C1230.51 1073.15 1250.96 1110.76 1250.23 1117.69C1249.5 1124.63 1231.32 1132.72 1226.37 1126.85Z" />
					</g>
				</g>
				<g id="&lt;Group&gt;">
					<g id="&lt;Group&gt;">
						<path id="&lt;Path&gt;" class="shp16" d="M1283.99 1112.72C1274.24 1100.29 1258.17 1056.54 1273.66 1048.7C1289.16 1040.86 1314.68 1091.18 1313.77 1100.46C1312.85 1109.74 1290.16 1120.57 1283.99 1112.72Z" />
					</g>
				</g>
				<g id="&lt;Group&gt;">
					<g id="&lt;Group&gt;">
						<path id="&lt;Path&gt;" class="shp16" d="M1309.54 1087.24C1300.58 1075.82 1285.81 1035.61 1300.05 1028.41C1314.29 1021.21 1337.74 1067.45 1336.9 1075.98C1336.07 1084.51 1315.21 1094.46 1309.54 1087.24Z" />
					</g>
				</g>
				<g id="&lt;Group&gt;">
					<g id="&lt;Group&gt;">
						<path id="&lt;Path&gt;" class="shp21" d="M1253.43 1121.37C1253.13 1121.37 1252.83 1121.25 1252.63 1121C1247.56 1114.98 1241.54 1102.06 1238.62 1090.93C1234.75 1076.2 1236.39 1066.31 1243.24 1063.07C1252 1058.94 1262.56 1071.19 1268.07 1078.86C1268.41 1079.33 1268.31 1079.99 1267.84 1080.32C1267.36 1080.66 1266.71 1080.55 1266.37 1080.09C1257.63 1067.94 1249.53 1062.43 1244.14 1064.97C1236.27 1068.68 1238.57 1082.49 1240.65 1090.39C1243.9 1102.78 1250.07 1114.71 1254.23 1119.65C1254.61 1120.09 1254.55 1120.75 1254.11 1121.13C1253.91 1121.29 1253.67 1121.37 1253.43 1121.37Z" />
					</g>
				</g>
				<g id="&lt;Group&gt;">
					<g id="&lt;Group&gt;">
						<path id="&lt;Path&gt;" class="shp21" d="M1226.38 1127.9C1226.08 1127.9 1225.78 1127.77 1225.57 1127.53C1219.32 1120.1 1209.65 1097.74 1212.34 1085.43C1213.13 1081.83 1214.92 1079.35 1217.65 1078.06C1222.25 1075.88 1228.14 1078.68 1234.7 1086.15C1235.08 1086.59 1235.04 1087.25 1234.61 1087.63C1234.17 1088.01 1233.51 1087.97 1233.13 1087.53C1229.03 1082.87 1223.18 1077.77 1218.55 1079.95C1216.43 1080.95 1215.03 1082.95 1214.39 1085.88C1211.88 1097.4 1221.31 1119.21 1227.18 1126.18C1227.55 1126.62 1227.49 1127.28 1227.05 1127.66C1226.85 1127.82 1226.61 1127.9 1226.38 1127.9Z" />
					</g>
				</g>
				<g id="&lt;Group&gt;">
					<g id="&lt;Group&gt;">
						<path id="&lt;Path&gt;" class="shp21" d="M1284 1113.76C1283.68 1113.76 1283.38 1113.63 1283.17 1113.36C1279.02 1108.08 1274.13 1097.91 1270.7 1087.44C1268.33 1080.21 1264.68 1066.65 1266.82 1057C1267.81 1052.51 1269.96 1049.4 1273.19 1047.77C1278.73 1044.96 1285.86 1048.5 1293.8 1058.02C1294.17 1058.46 1294.11 1059.12 1293.66 1059.49C1293.21 1059.87 1292.55 1059.81 1292.18 1059.36C1287.14 1053.31 1279.91 1046.71 1274.14 1049.64C1271.49 1050.98 1269.72 1053.61 1268.87 1057.46C1265.44 1072.91 1277.33 1102.53 1284.82 1112.07C1285.18 1112.52 1285.1 1113.18 1284.64 1113.54C1284.45 1113.69 1284.22 1113.76 1284 1113.76Z" />
					</g>
				</g>
				<g id="&lt;Group&gt;">
					<g id="&lt;Group&gt;">
						<path id="&lt;Path&gt;" class="shp21" d="M1309.54 1088.29C1309.23 1088.29 1308.93 1088.15 1308.72 1087.89C1306.95 1085.64 1304.98 1082.34 1303.03 1078.35C1298.47 1069.05 1294.97 1058.21 1293.66 1049.36C1291.96 1037.86 1294.01 1030.29 1299.58 1027.47C1301.78 1026.36 1304.26 1026.31 1306.95 1027.33C1317.67 1031.4 1329.97 1052.12 1335.29 1065.53C1336.64 1068.93 1338.2 1073.53 1337.95 1076.08C1337.89 1076.66 1337.39 1077.07 1336.8 1077.02C1336.23 1076.96 1335.8 1076.45 1335.86 1075.88C1336.02 1074.24 1335.1 1070.75 1333.34 1066.3C1328.32 1053.62 1316.22 1033.09 1306.21 1029.29C1304.06 1028.48 1302.2 1028.5 1300.52 1029.35C1290.03 1034.65 1296.94 1061.17 1304.91 1077.43C1306.8 1081.29 1308.69 1084.46 1310.37 1086.59C1310.73 1087.05 1310.65 1087.71 1310.19 1088.07C1310 1088.22 1309.77 1088.29 1309.54 1088.29Z" />
					</g>
				</g>
				<g id="&lt;Group&gt;">
					<g id="&lt;Group&gt;">
						<path id="&lt;Path&gt;" class="shp21" d="M1254.64 998.19C1215.05 998.19 1161.96 989.35 1158.66 988.8C1158.09 988.7 1157.71 988.16 1157.8 987.59C1157.9 987.02 1158.44 986.63 1159.01 986.73C1160.2 986.93 1278.25 1006.59 1294.08 988.42C1295.69 986.57 1296.08 984.4 1295.25 981.78C1291.75 970.65 1236.27 958.63 1188.33 949.4C1173.56 946.56 1149.9 952.01 1149.67 952.06C1149.11 952.19 1148.54 951.84 1148.41 951.28C1148.28 950.72 1148.63 950.15 1149.19 950.02C1150.18 949.79 1173.52 944.41 1188.72 947.34C1262.74 961.58 1294.18 971.38 1297.26 981.15C1298.3 984.48 1297.76 987.39 1295.66 989.8C1290.2 996.07 1274.04 998.19 1254.64 998.19Z" />
					</g>
				</g>
			</g>
		</g>
	</g>
</svg>