<svg xmlns="http://www.w3.org/2000/svg" viewBox="0 0 3710 3710" width="3710" height="3710">
	<defs>
		<linearGradient id="grd1" gradientUnits="userSpaceOnUse"  x1="2639.016" y1="1481.749" x2="2668.498" y2="1470.916">
			<stop offset="0" stop-color="#dae3fe"  />
			<stop offset="1" stop-color="#e9effd"  />
		</linearGradient>
		<linearGradient id="grd2" gradientUnits="userSpaceOnUse"  x1="2887.703" y1="1657.954" x2="2907.123" y2="1650.819">
			<stop offset="0" stop-color="#dae3fe"  />
			<stop offset="1" stop-color="#e9effd"  />
		</linearGradient>
		<linearGradient id="grd3" gradientUnits="userSpaceOnUse"  x1="2442.005" y1="2231.873" x2="2470.905" y2="2221.253">
			<stop offset="0" stop-color="#dae3fe"  />
			<stop offset="1" stop-color="#e9effd"  />
		</linearGradient>
		<linearGradient id="grd4" gradientUnits="userSpaceOnUse"  x1="1977.639" y1="2390.056" x2="1991.727" y2="2384.879">
			<stop offset="0" stop-color="#dae3fe"  />
			<stop offset="1" stop-color="#e9effd"  />
		</linearGradient>
		<linearGradient id="grd5" gradientUnits="userSpaceOnUse"  x1="2117.899" y1="2495.867" x2="2140.043" y2="2487.729">
			<stop offset="0" stop-color="#dae3fe"  />
			<stop offset="1" stop-color="#e9effd"  />
		</linearGradient>
		<linearGradient id="grd6" gradientUnits="userSpaceOnUse"  x1="675.974" y1="1169.015" x2="1721.478" y2="167.358">
			<stop offset="0" stop-color="#21c0dc"  />
			<stop offset="1" stop-color="#21c0dc"  />
		</linearGradient>
		<linearGradient id="grd7" gradientUnits="userSpaceOnUse"  x1="1971.945" y1="2715.782" x2="1973.197" y2="3070.764">
			<stop offset="0" stop-color="#374045"  />
			<stop offset="1" stop-color="#374045"  />
		</linearGradient>
		<linearGradient id="grd8" gradientUnits="userSpaceOnUse"  x1="1253.85" y1="2869.377" x2="1134.918" y2="1531.397">
			<stop offset="0" stop-color="#21c0dc"  />
			<stop offset="1" stop-color="#21c0dc"  />
		</linearGradient>
		<linearGradient id="grd9" gradientUnits="userSpaceOnUse"  x1="1932.911" y1="2263.434" x2="1988.209" y2="3642.964">
			<stop offset="0" stop-color="#e1473d"  />
			<stop offset="1" stop-color="#e9605a"  />
		</linearGradient>
		<linearGradient id="grd10" gradientUnits="userSpaceOnUse"  x1="1671.171" y1="2274.029" x2="1726.459" y2="3653.335">
			<stop offset="0" stop-color="#e1473d"  />
			<stop offset="1" stop-color="#e9605a"  />
		</linearGradient>
		<linearGradient id="grd11" gradientUnits="userSpaceOnUse"  x1="832.119" y1="1537.133" x2="737.59" y2="1774.257">
			<stop offset="0" stop-color="#263138"  />
			<stop offset="1" stop-color="#263138"  />
		</linearGradient>
		<linearGradient id="grd12" gradientUnits="userSpaceOnUse"  x1="1152.239" y1="1731.263" x2="878.158" y2="2110.121">
			<stop offset="0" stop-color="#febbba"  />
			<stop offset="1" stop-color="#ff928e"  />
		</linearGradient>
		<linearGradient id="grd13" gradientUnits="userSpaceOnUse"  x1="602.936" y1="3179.34" x2="519.425" y2="3179.34">
			<stop offset="0" stop-color="#21c0dc"  />
			<stop offset="1" stop-color="#21c0dc"  />
		</linearGradient>
		<linearGradient id="grd14" gradientUnits="userSpaceOnUse"  x1="1031.1" y1="3552.887" x2="906.824" y2="2100.417">
			<stop offset="0" stop-color="#febbba"  />
			<stop offset="1" stop-color="#ff928e"  />
		</linearGradient>
		<linearGradient id="grd15" gradientUnits="userSpaceOnUse"  x1="1001.951" y1="3146.719" x2="867.73" y2="3146.719">
			<stop offset="0" stop-color="#21c0dc"  />
			<stop offset="1" stop-color="#21c0dc"  />
		</linearGradient>
		<linearGradient id="grd16" gradientUnits="userSpaceOnUse"  x1="870.796" y1="3553.238" x2="751.409" y2="2157.898">
			<stop offset="0" stop-color="#febbba"  />
			<stop offset="1" stop-color="#ff928e"  />
		</linearGradient>
		<linearGradient id="grd17" gradientUnits="userSpaceOnUse"  x1="828.204" y1="2074.016" x2="768.895" y2="2624.277">
			<stop offset="0" stop-color="#263238"  />
			<stop offset="1" stop-color="#263238"  />
		</linearGradient>
		<linearGradient id="grd18" gradientUnits="userSpaceOnUse"  x1="1490.299" y1="2195.805" x2="19.106" y2="3746.521">
			<stop offset="0" stop-color="#21c0dc"  />
			<stop offset="1" stop-color="#21c0dc"  />
		</linearGradient>
		<linearGradient id="grd19" gradientUnits="userSpaceOnUse"  x1="1036.9" y1="2111.917" x2="1014.318" y2="1946.711">
			<stop offset="0" stop-color="#febbba"  />
			<stop offset="1" stop-color="#ff928e"  />
		</linearGradient>
		<linearGradient id="grd20" gradientUnits="userSpaceOnUse"  x1="666.552" y1="2128.484" x2="977.569" y2="1998.373">
			<stop offset="0" stop-color="#febbba"  />
			<stop offset="1" stop-color="#ff928e"  />
		</linearGradient>
		<linearGradient id="grd21" gradientUnits="userSpaceOnUse"  x1="1077.39" y1="1894.272" x2="964.586" y2="1549.71">
			<stop offset="0" stop-color="#febbba"  />
			<stop offset="1" stop-color="#ff928e"  />
		</linearGradient>
		<linearGradient id="grd22" gradientUnits="userSpaceOnUse"  x1="980.366" y1="1588.74" x2="849.791" y2="1790.279">
			<stop offset="0" stop-color="#263138"  />
			<stop offset="1" stop-color="#263138"  />
		</linearGradient>
		<linearGradient id="grd23" gradientUnits="userSpaceOnUse"  x1="991.907" y1="1912.152" x2="882.512" y2="1578.001">
			<stop offset="0" stop-color="#febbba"  />
			<stop offset="1" stop-color="#ff928e"  />
		</linearGradient>
		<linearGradient id="grd24" gradientUnits="userSpaceOnUse"  x1="1218.3" y1="1770.189" x2="952.858" y2="2137.106">
			<stop offset="0" stop-color="#febbba"  />
			<stop offset="1" stop-color="#ff928e"  />
		</linearGradient>
		<linearGradient id="grd25" gradientUnits="userSpaceOnUse"  x1="1323.805" y1="1626.266" x2="1374.255" y2="1626.266">
			<stop offset="0" stop-color="#febbba"  />
			<stop offset="1" stop-color="#ff928e"  />
		</linearGradient>
		<linearGradient id="grd26" gradientUnits="userSpaceOnUse"  x1="1271.33" y1="1933.324" x2="1441.029" y2="2640.405">
			<stop offset="0" stop-color="#374045"  />
			<stop offset="1" stop-color="#374045"  />
		</linearGradient>
		<linearGradient id="grd27" gradientUnits="userSpaceOnUse"  x1="967.018" y1="2120.455" x2="1061.007" y2="2120.455">
			<stop offset="0" stop-color="#febbba"  />
			<stop offset="1" stop-color="#ff928e"  />
		</linearGradient>
		<linearGradient id="grd28" gradientUnits="userSpaceOnUse"  x1="3526.336" y1="955.197" x2="2454.527" y2="2378.196">
			<stop offset="0" stop-color="#ebebeb"  />
			<stop offset="1" stop-color="#ebebeb"  />
		</linearGradient>
		<linearGradient id="grd29" gradientUnits="userSpaceOnUse"  x1="3357.265" y1="829.512" x2="2285.458" y2="2252.509">
			<stop offset="0" stop-color="#dfdfe0"  />
			<stop offset="1" stop-color="#dfdfe0"  />
		</linearGradient>
		<linearGradient id="grd30" gradientUnits="userSpaceOnUse"  x1="3194.174" y1="708.019" x2="2122.368" y2="2131.015">
			<stop offset="0" stop-color="#dfdfe0"  />
			<stop offset="1" stop-color="#dfdfe0"  />
		</linearGradient>
		<linearGradient id="grd31" gradientUnits="userSpaceOnUse"  x1="2461.266" y1="1037.947" x2="3070.061" y2="669.665">
			<stop offset="0" stop-color="#263238"  />
			<stop offset="1" stop-color="#263238"  />
		</linearGradient>
		<linearGradient id="grd32" gradientUnits="userSpaceOnUse"  x1="2702.859" y1="1112.303" x2="3107.589" y2="776.596">
			<stop offset="0" stop-color="#21c0dc"  />
			<stop offset="1" stop-color="#21c0dc"  />
		</linearGradient>
	</defs>
	<style>
		tspan { white-space:pre }
		.shp0 { fill: #a9abad } 
		.shp1 { fill: #ffffff } 
		.shp2 { fill: #f0f0f0 } 
		.shp3 { fill: url(#grd1) } 
		.shp4 { fill: url(#grd2) } 
		.shp5 { fill: url(#grd3) } 
		.shp6 { fill: url(#grd4) } 
		.shp7 { fill: url(#grd5) } 
		.shp8 { fill: #dfdfe0 } 
		.shp9 { fill: #ebebeb } 
		.shp10 { fill: url(#grd6) } 
		.shp11 { fill: url(#grd7) } 
		.shp12 { opacity: 0.69;fill: url(#grd8) } 
		.shp13 { fill: url(#grd9) } 
		.shp14 { fill: url(#grd10) } 
		.shp15 { opacity: 0.78;fill: #ffffff } 
		.shp16 { fill: url(#grd11) } 
		.shp17 { fill: url(#grd12) } 
		.shp18 { fill: url(#grd13) } 
		.shp19 { fill: url(#grd14) } 
		.shp20 { fill: url(#grd15) } 
		.shp21 { fill: url(#grd16) } 
		.shp22 { fill: url(#grd17) } 
		.shp23 { fill: url(#grd18) } 
		.shp24 { fill: url(#grd19) } 
		.shp25 { fill: url(#grd20) } 
		.shp26 { fill: url(#grd21) } 
		.shp27 { fill: url(#grd22) } 
		.shp28 { fill: url(#grd23) } 
		.shp29 { fill: url(#grd24) } 
		.shp30 { fill: url(#grd25) } 
		.shp31 { fill: url(#grd26) } 
		.shp32 { fill: #91b3fa } 
		.shp33 { fill: #21c0dc } 
		.shp34 { fill: url(#grd27) } 
		.shp35 { fill: url(#grd28) } 
		.shp36 { fill: url(#grd29) } 
		.shp37 { fill: url(#grd30) } 
		.shp38 { fill: url(#grd31) } 
		.shp39 { fill: url(#grd32) } 
	</style>
	<g id="Illustration">
		<g id="&lt;Group&gt;">
			<g id="&lt;Group&gt;">
				<g id="&lt;Group&gt;" style="opacity: 0.529">
					<path id="&lt;Path&gt;" class="shp0" d="M757.77 3106.1L460.2 3106.1L460.2 1900.28L757.77 1900.28L757.77 3106.1Z" />
				</g>
				<g id="&lt;Group&gt;" style="opacity: 0.529">
					<path id="&lt;Path&gt;" class="shp0" d="M1143.83 3106.1L846.26 3106.1L846.26 1900.28L1143.83 1900.28L1143.83 3106.1Z" />
				</g>
				<g id="&lt;Group&gt;" style="opacity: 0.529">
					<path id="&lt;Path&gt;" class="shp0" d="M1555.49 3106.1L1257.92 3106.1L1257.92 1900.28L1555.49 1900.28L1555.49 3106.1Z" />
				</g>
				<g id="&lt;Group&gt;" style="opacity: 0.529">
					<path id="&lt;Path&gt;" class="shp1" d="M1966.21 3106.1L1668.64 3106.1L1668.64 1900.28L1966.21 1900.28L1966.21 3106.1Z" />
				</g>
				<g id="&lt;Group&gt;" style="opacity: 0.529">
					<path id="&lt;Path&gt;" class="shp0" d="M2376.93 3106.1L2079.36 3106.1L2079.36 1900.28L2376.93 1900.28L2376.93 3106.1Z" />
				</g>
				<g id="&lt;Group&gt;" style="opacity: 0.529">
					<path id="&lt;Path&gt;" class="shp0" d="M2793.02 3106.1L2495.45 3106.1L2495.45 1900.28L2793.02 1900.28L2793.02 3106.1Z" />
				</g>
				<g id="&lt;Group&gt;" style="opacity: 0.529">
					<path id="&lt;Path&gt;" class="shp1" d="M3202.14 3106.1L2904.57 3106.1L2904.57 1900.28L3202.14 1900.28L3202.14 3106.1Z" />
				</g>
				<path id="&lt;Path&gt;" class="shp2" d="M755.93 3106.1L460.2 3106.1L460.2 2810.36L755.93 2810.36L755.93 3106.1Z" />
				<path id="&lt;Path&gt;" class="shp2" d="M1142.91 3106.1L847.18 3106.1L847.18 2690.92L1142.91 2690.92L1142.91 3106.1Z" />
				<path id="&lt;Path&gt;" class="shp2" d="M1555.62 3106.96L1259.89 3106.96L1259.89 2572.27L1555.62 2572.27L1555.62 3106.96Z" />
				<path id="&lt;Path&gt;" class="shp2" d="M1972.02 3106.96L1664.43 3106.96L1664.43 2455.4L1972.02 2455.4L1972.02 3106.96Z" />
				<path id="&lt;Path&gt;" class="shp2" d="M2382.42 3106.96L2074.83 3106.96L2074.83 2280.66L2382.42 2280.66L2382.42 3106.96Z" />
				<path id="&lt;Path&gt;" class="shp2" d="M2798.03 3111.1L2490.44 3111.1L2490.44 2088.23L2798.03 2088.23L2798.03 3111.1Z" />
				<path id="&lt;Path&gt;" class="shp2" d="M3206.78 3111.1L2899.19 3111.1L2899.19 1976.7L3206.78 1976.7L3206.78 3111.1Z" />
				<path id="&lt;Path&gt;" class="shp2" d="M3065.43 1652.42C3028.45 1712.33 2888.6 1961.63 2845.43 2038.74C2839.75 2048.89 2847.2 2061.37 2858.84 2061.21L3259.15 2055.8C3267.8 2055.68 3273.39 2046.6 3269.59 2038.82L3081.12 1653.22C3078.02 1646.87 3069.14 1646.41 3065.43 1652.42Z" />
			</g>
			<g id="&lt;Group&gt;">
				<g id="&lt;Group&gt;">
					<g id="&lt;Group&gt;">
						<path id="&lt;Path&gt;" class="shp3" d="M2670.79 1503.1C2668.95 1503.78 2666.89 1503.92 2664.85 1503.39C2659.88 1502.09 2654.8 1500.87 2649.75 1499.77C2644.37 1498.59 2640.96 1493.28 2642.14 1487.91C2643.31 1482.53 2648.62 1479.12 2654 1480.3C2659.31 1481.46 2664.65 1482.74 2669.88 1484.11C2675.21 1485.5 2678.4 1490.94 2677.01 1496.26C2676.15 1499.54 2673.75 1502.01 2670.79 1503.1Z" />
					</g>
					<g id="&lt;Group&gt;">
						<path id="&lt;Path&gt;" class="shp4" d="M2911.37 1688.55C2906.86 1690.21 2901.68 1688.39 2899.25 1684.07C2896.74 1679.59 2894.09 1675.08 2891.38 1670.68C2888.5 1666 2889.95 1659.86 2894.64 1656.97C2899.34 1654.08 2905.46 1655.55 2908.35 1660.23C2911.2 1664.86 2913.99 1669.6 2916.64 1674.32C2919.33 1679.12 2917.62 1685.19 2912.82 1687.89C2912.35 1688.15 2911.86 1688.37 2911.37 1688.55Z" />
						<path id="&lt;Path&gt;" class="shp5" d="M2473.31 2253.62C2471.45 2254.31 2469.37 2254.44 2467.32 2253.9C2462.1 2252.51 2456.82 2250.98 2451.62 2249.36C2446.36 2247.73 2443.43 2242.14 2445.07 2236.89C2446.7 2231.63 2452.28 2228.7 2457.54 2230.33C2462.48 2231.87 2467.5 2233.32 2472.45 2234.64C2477.76 2236.06 2480.93 2241.52 2479.51 2246.83C2478.64 2250.09 2476.25 2252.54 2473.31 2253.62Z" />
					</g>
					<g id="&lt;Group&gt;">
						<g id="&lt;Group&gt;">
						</g>
					</g>
				</g>
				<g id="&lt;Group&gt;">
					<g id="&lt;Group&gt;">
						<path id="&lt;Path&gt;" class="shp6" d="M1996.35 2413.81C1993.86 2414.73 1990.95 2413.94 1989.29 2411.69C1986.18 2407.5 1983.15 2403.15 1980.3 2398.77C1978.44 2395.92 1979.25 2392.11 1982.09 2390.25C1984.94 2388.38 1988.75 2389.2 1990.61 2392.05C1993.33 2396.22 1996.21 2400.37 1999.18 2404.37C2001.2 2407.1 2000.63 2410.95 1997.9 2412.98C1997.41 2413.34 1996.89 2413.61 1996.35 2413.81Z" />
					</g>
					<g id="&lt;Group&gt;">
						<path id="&lt;Path&gt;" class="shp7" d="M2142.86 2511.35C2141.74 2511.76 2140.5 2511.85 2139.26 2511.54C2134.15 2510.28 2129.05 2508.85 2124.11 2507.32C2120.86 2506.3 2119.05 2502.85 2120.06 2499.61C2121.08 2496.37 2124.52 2494.56 2127.77 2495.56C2132.48 2497.03 2137.34 2498.39 2142.22 2499.6C2145.52 2500.41 2147.53 2503.75 2146.71 2507.05C2146.2 2509.11 2144.71 2510.67 2142.86 2511.35Z" />
					</g>
					<g id="&lt;Group&gt;">
						<g id="&lt;Group&gt;">
						</g>
					</g>
				</g>
			</g>
			<g id="&lt;Group&gt;">
				<path id="&lt;Path&gt;" class="shp8" d="M934.91 1453.6C975.5 1530.57 1038.78 1596.62 1121.36 1640.63C1273 1721.44 1450.03 1706.77 1583.61 1617.65L1333.23 1243.05L934.91 1453.6Z" />
				<path id="&lt;Path&gt;" class="shp9" d="M1583.61 1617.65C1643.47 1577.72 1694.61 1522.86 1730.81 1454.92C1745.45 1427.45 1756.96 1399.14 1765.46 1370.41L1333.23 1243.05L1583.61 1617.65Z" />
				<path id="&lt;Path&gt;" class="shp8" d="M1765.46 1370.41C1794.93 1270.77 1788.2 1166.02 1750.51 1073.25L1333.23 1243.05L1765.46 1370.41Z" />
				<path id="&lt;Path&gt;" class="shp10" d="M1298.53 1224.55L1328.47 774.93C1157.13 763.62 986.95 851.3 900.95 1012.68C827.94 1149.68 832.86 1307.42 900.21 1435.11L1298.53 1224.55Z" />
				<path id="&lt;Path&gt;" class="shp9" d="M1750.51 1073.25C1733.63 1031.71 1710.55 992.58 1681.72 957.38C1594.97 1031.64 1478.81 1126.87 1333.23 1243.05L1750.51 1073.25Z" />
				<path id="&lt;Path&gt;" class="shp8" d="M1681.72 957.38C1645.11 912.69 1599.27 874.33 1545.1 845.46C1486.9 814.45 1424.96 797.5 1363.17 793.42L1333.23 1243.05C1478.81 1126.87 1594.97 1031.64 1681.72 957.38Z" />
			</g>
			<g id="&lt;Group&gt;">
				<path id="&lt;Path&gt;" class="shp11" d="M1971.53 2834.64C1970.65 2824.84 1960.55 2816.43 1943.52 2809.76C1961.88 2799.43 1971.99 2788.44 1971.03 2777.76C1968.15 2745.42 1865.52 2728.17 1741.82 2739.22C1618.11 2750.27 1520.17 2785.44 1523.06 2817.77C1523.93 2827.58 1534.03 2835.99 1551.07 2842.65C1532.7 2852.99 1522.59 2863.98 1523.55 2874.66C1524.42 2884.47 1534.52 2892.88 1551.56 2899.54C1533.2 2909.87 1523.09 2920.86 1524.04 2931.55C1524.92 2941.36 1535.02 2949.76 1552.05 2956.43C1533.69 2966.76 1523.58 2977.75 1524.53 2988.43C1525.81 3002.73 1546.62 3014.08 1580.11 3021.33C1579.77 3031.91 1580.11 3043.5 1581.26 3056.29C1586.62 3115.87 1654.09 3162.04 1742.79 3161.27C1831.49 3160.5 1907.71 3096.1 1908.07 3036.28C1908.15 3021.62 1907.42 3008.73 1905.99 2997.27C1948.31 2982.73 1974.01 2965.2 1972.51 2948.42C1971.63 2938.61 1961.53 2930.2 1944.5 2923.54C1962.86 2913.21 1972.97 2902.21 1972.02 2891.53C1971.14 2881.72 1961.04 2873.31 1944.01 2866.65C1962.37 2856.32 1972.48 2845.33 1971.53 2834.64Z" />
				<g id="&lt;Group&gt;">
					<path id="&lt;Path&gt;" class="shp8" d="M1687.07 3033.29C1650.31 3033.6 1616.64 3031.19 1588.8 3026.11C1587.19 3025.81 1586.12 3024.27 1586.41 3022.65C1586.71 3021.04 1588.25 3019.96 1589.87 3020.26C1633.43 3028.21 1691.54 3029.54 1753.49 3024.01C1804.17 3019.48 1851.54 3010.89 1890.46 2999.17C1892.04 2998.69 1893.69 2999.58 1894.16 3001.15C1894.64 3002.73 1893.75 3004.38 1892.18 3004.86C1852.87 3016.7 1805.1 3025.37 1754.01 3029.93C1731.01 3031.99 1708.51 3033.1 1687.07 3033.29Z" />
					<path id="&lt;Path&gt;" class="shp8" d="M1687.2 2976.34C1639.43 2976.76 1596.7 2972.63 1566.52 2964.32C1564.94 2963.88 1564.01 2962.25 1564.44 2960.66C1564.88 2959.08 1566.51 2958.15 1568.1 2958.58C1611.11 2970.43 1680.23 2973.62 1752.99 2967.12C1824.97 2960.69 1892.02 2945.5 1932.35 2926.47C1933.84 2925.77 1935.61 2926.41 1936.31 2927.89C1937.01 2929.38 1936.37 2931.15 1934.89 2931.85C1893.96 2951.16 1826.16 2966.56 1753.52 2973.05C1730.86 2975.07 1708.52 2976.16 1687.2 2976.34Z" />
					<path id="&lt;Path&gt;" class="shp8" d="M1686.09 2919.5C1634.52 2919.95 1589.34 2915.06 1558.88 2905.31C1557.31 2904.81 1556.45 2903.13 1556.95 2901.57C1557.45 2900.01 1559.12 2899.14 1560.69 2899.64C1603.08 2913.22 1674.79 2917.18 1752.5 2910.24C1824.47 2903.81 1891.52 2888.61 1931.86 2869.58C1933.34 2868.89 1935.12 2869.52 1935.82 2871C1936.52 2872.49 1935.88 2874.26 1934.4 2874.96C1893.46 2894.27 1825.66 2909.67 1753.03 2916.16C1730.02 2918.22 1707.5 2919.32 1686.09 2919.5Z" />
					<path id="&lt;Path&gt;" class="shp8" d="M1686 2862.59C1645.09 2862.94 1607.85 2859.95 1578.87 2853.78C1577.26 2853.43 1576.24 2851.85 1576.58 2850.25C1576.92 2848.64 1578.51 2847.62 1580.11 2847.96C1623.69 2857.25 1686.35 2859.21 1752.01 2853.35C1823.34 2846.98 1890.05 2831.94 1930.45 2813.13C1931.94 2812.43 1933.71 2813.08 1934.4 2814.57C1935.1 2816.05 1934.45 2817.82 1932.96 2818.52C1891.97 2837.61 1824.52 2852.84 1752.54 2859.27C1729.8 2861.3 1707.4 2862.4 1686 2862.59Z" />
				</g>
				<path id="&lt;Path&gt;" class="shp12" d="M1437.67 2507.08C1422.17 2453.96 1396.21 2404.41 1361.44 2361.36C1286.94 2269.12 1165.08 2081.27 1148.06 1823.6C1123.29 1448.81 1454.23 1258.2 1757.92 1281.06C2061.61 1303.93 2363.01 1527.3 2333.24 1876.42C2314.93 2091.24 2196.19 2255.09 2107.55 2349.36C2051.26 2409.23 2011.38 2482.3 1990.13 2561.68C1964.12 2658.83 1901.28 2780.16 1749.5 2788.84C1553.1 2800.06 1469.92 2617.63 1437.67 2507.08Z" />
				<path id="&lt;Path&gt;" class="shp13" d="M1799.04 2758.63L1899.26 2067.08C1901.33 2052.8 1908.27 2043.16 1914.76 2045.55C1921.25 2047.94 1924.83 2061.46 1922.76 2075.75C1922.7 2076.13 1922.63 2076.6 1922.57 2076.97L1807.53 2762.23C1806.67 2767.38 1804.08 2770.65 1801.76 2769.54C1799.5 2768.45 1798.33 2763.62 1799.04 2758.63Z" />
				<path id="&lt;Path&gt;" class="shp14" d="M1688.87 2765.06L1576.72 2075.36C1574.4 2061.11 1567.3 2051.59 1560.85 2054.09C1554.4 2056.6 1551.06 2070.18 1553.37 2084.42C1553.43 2084.8 1553.52 2085.27 1553.59 2085.65L1680.45 2768.81C1681.4 2773.95 1684.04 2777.17 1686.35 2776.02C1688.58 2774.89 1689.68 2770.04 1688.87 2765.06Z" />
				<path id="&lt;Path&gt;" class="shp15" d="M1897.99 2007.79C1895.25 2003.48 1889 2001.92 1884.02 2004.3L1825.13 2032.43L1804.1 1974.13C1802.99 1971.09 1800.45 1968.41 1796.85 1966.96C1790.02 1964.22 1781.91 1966.79 1778.73 1972.72L1778.63 1972.91L1730.77 2061.98L1684.56 1936.17L1684.48 1935.96C1683.35 1932.89 1681 1930.14 1677.58 1928.32C1669.98 1924.25 1660 1926.31 1655.3 1932.91L1588.13 2027.07C1585.4 2030.93 1586.39 2036.06 1590.63 2038.86C1595.14 2041.85 1601.61 2041.09 1605.07 2037.17L1664.34 1969.88L1719.27 2089.48L1719.31 2089.57C1720.19 2091.48 1721.83 2093.15 1724.1 2094.18C1729.17 2096.51 1735.47 2094.82 1738.17 2090.41L1789.45 2006.51L1809.39 2048.55L1809.56 2048.92C1809.71 2049.23 1809.87 2049.52 1810.06 2049.82C1812.79 2054.13 1819.04 2055.69 1824.02 2053.31L1893.92 2019.91C1898.9 2017.53 1900.72 2012.11 1897.99 2007.79Z" />
			</g>
			<g id="&lt;Group&gt;">
				<g id="&lt;Group&gt;">
					<path id="&lt;Path&gt;" class="shp16" d="M915.4 1719.58C892.51 1730.71 878.96 1742.67 874.75 1755.46C869.69 1770.85 831.72 1772.84 827.97 1803.11C826.04 1818.74 814.47 1831.26 798.9 1833.64C760.13 1839.59 700.38 1859.72 690.82 1927.04C683.52 1978.42 709.71 1997.91 737.2 2004.65C757.4 2009.61 770.81 2029.25 766.73 2049.63C762.81 2069.18 768.65 2091.79 802.53 2109.66C853.13 2136.36 903.7 2104.73 954.24 2014.77L969.77 1779.15L915.4 1719.58Z" />
					<path id="&lt;Path&gt;" class="shp17" d="M1328.43 1663.72C1227.39 1823.53 1116.8 1918.87 996.65 1949.74C1020.06 2016.42 1040.8 2053.58 1058.87 2061.21C1206.69 1937.87 1299.59 1816.73 1337.57 1697.78L1328.43 1663.72Z" />
					<path id="&lt;Path&gt;" class="shp18" d="M603.39 3196.98L598.48 3237.36C597.55 3245.02 591.52 3251.07 583.85 3251.95C570.91 3253.43 550.13 3254.95 529.81 3252.8C520.89 3251.85 515.09 3242.82 517.81 3234.27C522.77 3218.68 531.83 3195.28 544.9 3181.51L589.69 3181.51C597.98 3181.51 604.39 3188.76 603.39 3196.98Z" />
					<path id="&lt;Path&gt;" class="shp19" d="M954.24 2723.95L961.8 2768.42C944.92 2939.4 934.98 3059.08 931.98 3127.47C931.27 3143.55 935.43 3159.44 943.87 3173.15L987.9 3244.64L876.01 3178.62L873.78 3164.96L892.1 3139.78L868.11 2852.48C866.7 2835.6 870.18 2818.68 878.14 2803.73L901.28 2760.25L954.24 2723.95Z" />
					<path id="&lt;Path&gt;" class="shp20" d="M995.27 3255L959.56 3255C952.88 3255 946.57 3251.93 942.5 3246.64C931.37 3232.17 908.3 3203.95 897.28 3203.22C887.38 3202.55 883.06 3219.82 884.33 3255L876.01 3255L865.47 3189.42C862.82 3172.92 871.02 3156.57 885.84 3148.84C888.1 3165.57 895.37 3177.64 907.63 3185.04C919.9 3192.44 944.86 3209.39 982.51 3235.89C987.12 3235.24 991.96 3235.37 997.02 3236.28C1008.29 3238.32 1006.71 3255 995.27 3255Z" />
					<path id="&lt;Path&gt;" class="shp21" d="M800.99 2745.07C702.1 2932.64 644.8 3047.84 629.08 3090.67C605.5 3154.91 597.24 3208.5 596.93 3213.57C596.43 3221.5 586.57 3229.11 559.38 3229.11C545.35 3229.11 538.48 3223.48 535.12 3218.04C532.25 3213.4 532.1 3207.58 534.52 3202.69C543.1 3185.33 570.33 3129.83 580.41 3104.67C592.45 3074.62 618.35 2938.44 632.55 2891.09C646.76 2843.74 662.81 2792.38 724.66 2745.07C752.97 2717.35 778.41 2717.35 800.99 2745.07Z" />
					<path id="&lt;Path&gt;" class="shp22" d="M894.69 2284.05C920.19 2175.96 900.64 2091.35 836.02 2030.22C876.79 1991.08 934.32 1962.61 1008.61 1944.8C1079.5 1996.63 1110.74 2042.82 1102.33 2083.38C1097.4 2107.16 1072.49 2178.36 1027.59 2296.99C986.07 2316.64 941.77 2312.33 894.69 2284.05Z" />
					<path id="&lt;Path&gt;" class="shp23" d="M809.85 2364.31C820.24 2333.04 848.51 2306.29 894.69 2284.05C941.77 2312.33 986.07 2316.64 1027.59 2296.99C1036.9 2332.58 1038.34 2366.91 1031.91 2399.99C1025.49 2433.06 1002.12 2555.87 961.8 2768.42C898.27 2781.29 817.66 2774.82 719.95 2749C780.65 2641.23 794.28 2411.22 809.85 2364.31Z" />
					<path id="&lt;Path&gt;" class="shp24" d="M939.1 1837.66L907.99 1977.39C905.01 1989.7 916.23 1987.68 928.68 1985.34C949.05 1981.49 975.32 1973.58 984.1 1957.73C984.99 1956.11 985.44 1954.29 985.69 1952.46L999.05 1855.57C1000.11 1847.88 995.96 1840.42 988.86 1837.28L963.07 1825.84C953.15 1821.44 941.65 1827.1 939.1 1837.66Z" />
					<path id="&lt;Path&gt;" class="shp25" d="M836.02 2030.22C635.85 2228.37 680.91 2287.9 971.21 2208.8C974.52 2183.75 974.01 2171.45 969.69 2171.88C828.49 2185.96 769.43 2218.29 884.21 2106.99C888.27 2103.05 887.02 2088.2 884.41 2083.19C876.46 2067.92 858.28 2037.6 836.02 2030.22Z" />
					<g id="&lt;Group&gt;">
						<path id="&lt;Path&gt;" class="shp26" d="M998.68 1710.28C1020.76 1725.23 1036.54 1751.73 1046.03 1789.79C1060.26 1846.88 1037.13 1867.36 1013.43 1866.1C989.72 1864.85 955.35 1857.52 925.57 1816.56C895.79 1775.61 955.28 1682.89 998.68 1710.28Z" />
						<path id="&lt;Path&gt;" class="shp27" d="M955.6 1793.54C947.51 1739 966.11 1715.9 1011.39 1724.24L1025.12 1738.54C1047.28 1713.58 1046.1 1691.67 1021.57 1672.8C984.78 1644.5 933.73 1651.75 905.49 1703.27C877.24 1754.79 866.99 1791 890.67 1823.01C906.45 1844.35 920.28 1845.87 932.15 1827.57C924.91 1809.1 924.29 1795.9 930.3 1787.97C936.31 1780.04 943.18 1782.35 950.93 1794.88L955.6 1793.54Z" />
						<path id="&lt;Path&gt;" class="shp28" d="M946.32 1800.54C942.33 1772.48 933.16 1762.46 918.83 1770.49C897.34 1782.52 926.58 1809.8 938.3 1819.08L946.32 1800.54Z" />
					</g>
					<g id="&lt;Group&gt;">
						<path id="&lt;Path&gt;" class="shp29" d="M1327.39 1713.07C1327.85 1718.01 1309.46 1721.43 1303.61 1700.35C1305.21 1691.2 1308.07 1651.12 1315.09 1644.89C1340.01 1622.78 1374.68 1599.29 1419.11 1574.42C1424.08 1582.01 1423.31 1588.3 1416.79 1593.3L1383.52 1615.75C1386.99 1627.25 1392.06 1637.41 1392.63 1650.53C1393.06 1660.47 1389.39 1670.2 1382.8 1677.74C1376.17 1685.3 1367.26 1695.07 1359.23 1702.48C1349.09 1711.84 1338.47 1715.37 1327.39 1713.07Z" />
						<path id="&lt;Path&gt;" class="shp30" d="M1345.46 1696.73L1340.37 1694.64C1341.05 1692.99 1357.02 1654.2 1364.74 1646.13C1367.67 1643.07 1369.09 1640.44 1368.96 1638.33C1368.89 1637.19 1368.32 1636.06 1367.25 1634.9L1340.33 1649.3L1328.44 1667.92L1323.81 1664.95L1336.47 1645.12L1368 1628.27L1369.42 1629.42C1372.61 1632.03 1374.26 1634.83 1374.45 1637.99C1374.68 1641.75 1372.81 1645.66 1368.72 1649.93C1362.9 1656.01 1349.95 1685.77 1345.46 1696.73Z" />
					</g>
				</g>
				<g id="&lt;Group&gt;">
					<path id="&lt;Path&gt;" class="shp31" d="M953.65 2270.11L1026.32 2016.35C1027.14 2013.47 1029.6 2011.37 1032.58 2011.02C1045.74 2009.48 1083.89 2005.17 1127.94 2001.45C1180.99 1996.96 1242.6 1993.32 1279.42 1996.42C1284.66 1996.86 1287.82 2002.39 1285.49 2007.1C1264.56 2049.46 1178.43 2221.76 1135.31 2278.21C1133.88 2280.08 1131.67 2281.17 1129.32 2281.15L960.72 2279.58C955.82 2279.53 952.3 2274.83 953.65 2270.11Z" />
					<path id="&lt;Path&gt;" class="shp32" d="M1135.47 1979.45L1188.16 1970.67C1190.96 1970.2 1193.26 1972.88 1192.37 1975.58L1187.15 1991.39C1186.7 1992.76 1185.5 1993.76 1184.06 1993.95L1133.37 2000.72C1130.74 2001.07 1128.58 1998.69 1129.19 1996.11L1132.41 1982.31C1132.76 1980.83 1133.97 1979.7 1135.47 1979.45Z" />
					<path id="&lt;Path&gt;" class="shp33" d="M1096.03 2024.05L1100.37 2001.44C1100.8 1999.17 1102.67 1997.46 1104.97 1997.23L1211.38 1986.43C1214.96 1986.07 1217.83 1989.35 1216.99 1992.85L1210.22 2021.02C1209.68 2023.27 1207.72 2024.9 1205.4 2025.02L1101.42 2030.25C1098.04 2030.42 1095.39 2027.37 1096.03 2024.05Z" />
					<path id="&lt;Path&gt;" class="shp34" d="M971.21 2208.8C964.46 2181.05 962.45 2162.26 965.17 2152.41C969.25 2137.65 977.16 2118.66 1003.53 2122.88C1021.11 2125.69 1040.27 2130.8 1061.01 2138.21C1059.96 2151.03 1052.76 2155.37 1039.4 2151.23L1051.82 2160.85C1050.64 2171.12 1044.4 2173.51 1033.12 2168.02L1044.68 2180.78C1039.83 2189.21 1033.26 2190.72 1024.95 2185.31C1012.5 2177.2 1006.53 2213.81 971.21 2208.8Z" />
				</g>
			</g>
			<g id="&lt;Group&gt;">
				<g id="&lt;Group&gt;">
					<path id="&lt;Path&gt;" class="shp8" d="M3234.01 1181.16C3234.01 1489.2 2984.3 1738.91 2676.26 1738.91C2368.22 1738.91 2118.51 1489.2 2118.51 1181.16C2118.51 873.12 2368.22 623.41 2676.26 623.41C2984.3 623.41 3234.01 873.12 3234.01 1181.16Z" />
					<g id="&lt;Group&gt;">
						<path id="&lt;Path&gt;" class="shp35" d="M3152.28 1181.16C3152.28 1444.06 2939.16 1657.18 2676.26 1657.18C2413.36 1657.18 2200.24 1444.06 2200.24 1181.16C2200.24 918.26 2413.36 705.14 2676.26 705.14C2939.16 705.14 3152.28 918.26 3152.28 1181.16Z" />
						<path id="&lt;Compound Path&gt;" fill-rule="evenodd" class="shp9" d="M2676.26 1681.02C2400.64 1681.02 2176.4 1456.78 2176.4 1181.16C2176.4 905.53 2400.64 681.3 2676.26 681.3C2951.88 681.3 3176.12 905.53 3176.12 1181.16C3176.12 1456.78 2951.88 1681.02 2676.26 1681.02ZM2676.26 705.14C2413.78 705.14 2200.25 918.68 2200.25 1181.16C2200.25 1443.64 2413.78 1657.18 2676.26 1657.18C2938.74 1657.18 3152.27 1443.64 3152.27 1181.16C3152.27 918.68 2938.74 705.14 2676.26 705.14Z" />
					</g>
					<g id="&lt;Group&gt;">
						<path id="&lt;Path&gt;" class="shp36" d="M2966.46 1181.16C2966.46 1341.43 2836.53 1471.36 2676.26 1471.36C2515.99 1471.36 2386.06 1341.43 2386.06 1181.16C2386.06 1020.89 2515.99 890.96 2676.26 890.96C2836.53 890.96 2966.46 1020.89 2966.46 1181.16Z" />
						<path id="&lt;Compound Path&gt;" fill-rule="evenodd" class="shp9" d="M2676.26 1495.21C2503.1 1495.21 2362.22 1354.32 2362.22 1181.16C2362.22 1007.99 2503.1 867.12 2676.26 867.12C2849.42 867.12 2990.3 1007.99 2990.3 1181.16C2990.3 1354.32 2849.42 1495.21 2676.26 1495.21ZM2676.26 914.8C2529.39 914.8 2409.9 1034.29 2409.9 1181.16C2409.9 1328.03 2529.39 1447.52 2676.26 1447.52C2823.13 1447.52 2942.62 1328.03 2942.62 1181.16C2942.62 1034.29 2823.13 914.8 2676.26 914.8Z" />
					</g>
					<g id="&lt;Group&gt;">
						<path id="&lt;Path&gt;" class="shp37" d="M2788.69 1181.16C2788.69 1243.25 2738.35 1293.59 2676.26 1293.59C2614.16 1293.59 2563.83 1243.25 2563.83 1181.16C2563.83 1119.06 2614.16 1068.73 2676.26 1068.73C2738.35 1068.73 2788.69 1119.06 2788.69 1181.16Z" />
						<path id="&lt;Compound Path&gt;" fill-rule="evenodd" class="shp9" d="M2676.26 1317.44C2601.12 1317.44 2539.99 1256.3 2539.99 1181.16C2539.99 1106.01 2601.12 1044.88 2676.26 1044.88C2751.4 1044.88 2812.54 1106.01 2812.54 1181.16C2812.54 1256.3 2751.4 1317.44 2676.26 1317.44ZM2676.26 1092.57C2627.41 1092.57 2587.67 1132.31 2587.67 1181.16C2587.67 1230.01 2627.41 1269.75 2676.26 1269.75C2725.11 1269.75 2764.85 1230.01 2764.85 1181.16C2764.85 1132.31 2725.11 1092.57 2676.26 1092.57Z" />
					</g>
				</g>
				<g id="&lt;Group&gt;">
					<path id="&lt;Path&gt;" class="shp38" d="M3352.41 503.25L3367.45 518.28L2798.22 1087.51L2783.19 1072.48L3352.41 503.25Z" />
					<path id="&lt;Path&gt;" class="shp39" d="M2793.84 1036.21C2802.46 1027.58 2843.12 1068.24 2834.49 1076.86L2683.7 1195.41C2678.13 1199.78 2670.91 1192.57 2675.29 1186.99L2793.84 1036.21Z" />
					<path id="&lt;Path&gt;" class="shp33" d="M3367.12 518.61L3443.7 526.22L3338.57 631.35C3304.13 665.79 3256.05 682.97 3207.58 678.15L3367.12 518.61Z" />
					<path id="&lt;Path&gt;" class="shp33" d="M3352.09 503.58L3344.48 427L3239.35 532.13C3204.91 566.57 3187.73 614.65 3192.55 663.12L3352.09 503.58Z" />
				</g>
			</g>
		</g>
	</g>
</svg>