<svg version="1.2" xmlns="http://www.w3.org/2000/svg" viewBox="0 0 3710 3710" width="3710" height="3710">
	<title>11669101_20943716-ai</title>
	<defs>
		<linearGradient id="g1" x1="2305.8" y1="4467.1" x2="347.4" y2="2353.4" gradientUnits="userSpaceOnUse">
			<stop offset="0" stop-color="#dae3fe"/>
			<stop offset="1" stop-color="#e9effd"/>
		</linearGradient>
		<linearGradient id="g2" x1="3516.1" y1="1096.6" x2="2633.8" y2="2950.8" gradientUnits="userSpaceOnUse">
			<stop offset="0" stop-color="#4f52ff"/>
			<stop offset="1" stop-color="#4042e2"/>
		</linearGradient>
		<linearGradient id="g3" x1="2310.6" y1="3100.8" x2="1672.7" y2="2131.3" gradientUnits="userSpaceOnUse">
			<stop offset="0" stop-color="#4f52ff"/>
			<stop offset="1" stop-color="#4042e2"/>
		</linearGradient>
		<linearGradient id="g4" x1="2111.6" y1="1931.6" x2="1311.9" y2="2994.7" gradientUnits="userSpaceOnUse">
			<stop offset="0" stop-color="#4f52ff"/>
			<stop offset="1" stop-color="#4042e2"/>
		</linearGradient>
		<linearGradient id="g5" x1="848.8" y1="2740.7" x2="175.7" y2="1906.8" gradientUnits="userSpaceOnUse">
			<stop offset="0" stop-color="#4f52ff"/>
			<stop offset="1" stop-color="#4042e2"/>
		</linearGradient>
		<linearGradient id="g6" x1="1984" y1="3109" x2="1349" y2="3799.7" gradientUnits="userSpaceOnUse">
			<stop offset="0" stop-color="#09005d"/>
			<stop offset="1" stop-color="#1a0f91"/>
		</linearGradient>
		<linearGradient id="g7" x1="1691" y1="3050.8" x2="1748.1" y2="3050.8" gradientUnits="userSpaceOnUse">
			<stop offset="0" stop-color="#febbba"/>
			<stop offset="1" stop-color="#ff928e"/>
		</linearGradient>
		<linearGradient id="g8" x1="1562.2" y1="2210.4" x2="1743.7" y2="2210.4" gradientUnits="userSpaceOnUse">
			<stop offset="0" stop-color="#09005d"/>
			<stop offset="1" stop-color="#1a0f91"/>
		</linearGradient>
		<linearGradient id="g9" x1="1798.8" y1="2936.2" x2="1157.1" y2="3634.2" gradientUnits="userSpaceOnUse">
			<stop offset="0" stop-color="#09005d"/>
			<stop offset="1" stop-color="#1a0f91"/>
		</linearGradient>
		<linearGradient id="g10" x1="1485.3" y1="3038.7" x2="1534.6" y2="3038.7" gradientUnits="userSpaceOnUse">
			<stop offset="0" stop-color="#febbba"/>
			<stop offset="1" stop-color="#ff928e"/>
		</linearGradient>
		<linearGradient id="g11" x1="1459.9" y1="2196" x2="1700.1" y2="2196" gradientUnits="userSpaceOnUse">
			<stop offset="0" stop-color="#09005d"/>
			<stop offset="1" stop-color="#1a0f91"/>
		</linearGradient>
		<linearGradient id="g12" x1="2314.9" y1="1431" x2="1815.3" y2="2079.9" gradientUnits="userSpaceOnUse">
			<stop offset="0" stop-color="#ff928e"/>
			<stop offset="1" stop-color="#fe7062"/>
		</linearGradient>
		<linearGradient id="g13" x1="1925.9" y1="1419" x2="2217.5" y2="1419" gradientUnits="userSpaceOnUse">
			<stop offset="0" stop-color="#febbba"/>
			<stop offset="1" stop-color="#ff928e"/>
		</linearGradient>
		<linearGradient id="g14" x1="2125.8" y1="1516.2" x2="1937.9" y2="1943.8" gradientUnits="userSpaceOnUse">
			<stop offset="0" stop-color="#febbba"/>
			<stop offset="1" stop-color="#ff928e"/>
		</linearGradient>
		<linearGradient id="g15" x1="2198.4" y1="1379.4" x2="2274.9" y2="1261.7" gradientUnits="userSpaceOnUse">
			<stop offset="0" stop-color="#febbba"/>
			<stop offset="1" stop-color="#ff928e"/>
		</linearGradient>
		<linearGradient id="g16" x1="2018" y1="1187.4" x2="1502.2" y2="1857.2" gradientUnits="userSpaceOnUse">
			<stop offset="0" stop-color="#ff928e"/>
			<stop offset="1" stop-color="#fe7062"/>
		</linearGradient>
		<linearGradient id="g17" x1="1291.5" y1="1909.8" x2="1656.8" y2="1909.8" gradientUnits="userSpaceOnUse">
			<stop offset="0" stop-color="#febbba"/>
			<stop offset="1" stop-color="#ff928e"/>
		</linearGradient>
		<linearGradient id="g18" x1="1993.8" y1="1691.2" x2="2195.4" y2="2531" gradientUnits="userSpaceOnUse">
			<stop offset="0" stop-color="#09005d"/>
			<stop offset="1" stop-color="#1a0f91"/>
		</linearGradient>
		<linearGradient id="g19" x1="1949.7" y1="1672.5" x2="1813.4" y2="1894" gradientUnits="userSpaceOnUse">
			<stop offset="0" stop-color="#4f52ff"/>
			<stop offset="1" stop-color="#4042e2"/>
		</linearGradient>
		<linearGradient id="g20" x1="2017.6" y1="1642.9" x2="1879.6" y2="1867.2" gradientUnits="userSpaceOnUse">
			<stop offset="0" stop-color="#4f52ff"/>
			<stop offset="1" stop-color="#4042e2"/>
		</linearGradient>
		<linearGradient id="g21" x1="1633" y1="1913.1" x2="1744.4" y2="1913.1" gradientUnits="userSpaceOnUse">
			<stop offset="0" stop-color="#febbba"/>
			<stop offset="1" stop-color="#ff928e"/>
		</linearGradient>
		<linearGradient id="g22" x1="1471.7" y1="1790.4" x2="1602.8" y2="1546.6" gradientUnits="userSpaceOnUse">
			<stop offset="0" stop-color="#febbba"/>
			<stop offset="1" stop-color="#ff928e"/>
		</linearGradient>
		<linearGradient id="g23" x1="1756.5" y1="1415.8" x2="1805" y2="1701.5" gradientUnits="userSpaceOnUse">
			<stop offset="0" stop-color="#febbba"/>
			<stop offset="1" stop-color="#ff928e"/>
		</linearGradient>
		<linearGradient id="g24" x1="1505.9" y1="1461.4" x2="1660.7" y2="1296.9" gradientUnits="userSpaceOnUse">
			<stop offset="0" stop-color="#09005d"/>
			<stop offset="1" stop-color="#1a0f91"/>
		</linearGradient>
		<linearGradient id="g25" x1="1541.4" y1="1552.2" x2="1677.7" y2="1449.3" gradientUnits="userSpaceOnUse">
			<stop offset="0" stop-color="#febbba"/>
			<stop offset="1" stop-color="#ff928e"/>
		</linearGradient>
		<linearGradient id="g26" x1="1119.5" y1="1269.8" x2="1012.1" y2="1539.2" gradientUnits="userSpaceOnUse">
			<stop offset="0" stop-color="#09005d"/>
			<stop offset="1" stop-color="#1a0f91"/>
		</linearGradient>
		<linearGradient id="g27" x1="-1909.6" y1="-3062.1" x2="-2109" y2="-3500.8" gradientUnits="userSpaceOnUse">
			<stop offset="0" stop-color="#09005d"/>
			<stop offset="1" stop-color="#1a0f91"/>
		</linearGradient>
		<linearGradient id="g28" x1="1346.3" y1="3567.5" x2="1204.5" y2="1909.8" gradientUnits="userSpaceOnUse">
			<stop offset="0" stop-color="#febbba"/>
			<stop offset="1" stop-color="#ff928e"/>
		</linearGradient>
		<linearGradient id="g29" x1="-1527.3" y1="-3318.7" x2="-1729.6" y2="-3763.9" gradientUnits="userSpaceOnUse">
			<stop offset="0" stop-color="#09005d"/>
			<stop offset="1" stop-color="#1a0f91"/>
		</linearGradient>
		<linearGradient id="g30" x1="1163" y1="3566.2" x2="1027.4" y2="1981" gradientUnits="userSpaceOnUse">
			<stop offset="0" stop-color="#febbba"/>
			<stop offset="1" stop-color="#ff928e"/>
		</linearGradient>
		<linearGradient id="g31" x1="968.5" y1="1914.9" x2="1251" y2="1715.9" gradientUnits="userSpaceOnUse">
			<stop offset="0" stop-color="#09005d"/>
			<stop offset="1" stop-color="#1a0f91"/>
		</linearGradient>
		<linearGradient id="g32" x1="2019.2" y1="1893.2" x2="1467.5" y2="2454.7" gradientUnits="userSpaceOnUse">
			<stop offset="0" stop-color="#ff928e"/>
			<stop offset="1" stop-color="#fe7062"/>
		</linearGradient>
		<linearGradient id="g33" x1="1201" y1="1825.4" x2="1214" y2="1595.4" gradientUnits="userSpaceOnUse">
			<stop offset="0" stop-color="#febbba"/>
			<stop offset="1" stop-color="#ff928e"/>
		</linearGradient>
		<linearGradient id="g34" x1="1180" y1="1827.7" x2="1077.6" y2="1827.7" gradientUnits="userSpaceOnUse">
			<stop offset="0" stop-color="#febbba"/>
			<stop offset="1" stop-color="#ff928e"/>
		</linearGradient>
		<linearGradient id="g35" x1="1399.2" y1="1674.6" x2="1270.4" y2="1281.4" gradientUnits="userSpaceOnUse">
			<stop offset="0" stop-color="#febbba"/>
			<stop offset="1" stop-color="#ff928e"/>
		</linearGradient>
		<linearGradient id="g36" x1="1288.3" y1="1326.5" x2="1140.7" y2="1554.3" gradientUnits="userSpaceOnUse">
			<stop offset="0" stop-color="#09005d"/>
			<stop offset="1" stop-color="#1a0f91"/>
		</linearGradient>
		<linearGradient id="g37" x1="1301" y1="1694" x2="1177.4" y2="1316.4" gradientUnits="userSpaceOnUse">
			<stop offset="0" stop-color="#febbba"/>
			<stop offset="1" stop-color="#ff928e"/>
		</linearGradient>
		<linearGradient id="g38" x1="2194.2" y1="2438.3" x2="2589.7" y2="1979.2" gradientUnits="userSpaceOnUse">
			<stop offset="0" stop-color="#e1473d"/>
			<stop offset="1" stop-color="#e9605a"/>
		</linearGradient>
		<linearGradient id="g39" x1="3268.9" y1="1920.4" x2="3057.9" y2="2593.6" gradientUnits="userSpaceOnUse">
			<stop offset="0" stop-color="#ff928e"/>
			<stop offset="1" stop-color="#fe7062"/>
		</linearGradient>
		<linearGradient id="g40" x1="3234.4" y1="1474.2" x2="2857.7" y2="2629.5" gradientUnits="userSpaceOnUse">
			<stop offset="0" stop-color="#ff928e"/>
			<stop offset="1" stop-color="#fe7062"/>
		</linearGradient>
		<linearGradient id="g41" x1="3216.2" y1="2407.7" x2="2947.5" y2="3319.3" gradientUnits="userSpaceOnUse">
			<stop offset="0" stop-color="#ff928e"/>
			<stop offset="1" stop-color="#fe7062"/>
		</linearGradient>
		<linearGradient id="g42" x1="3252.6" y1="2416.4" x2="2983.9" y2="3328" gradientUnits="userSpaceOnUse">
			<stop offset="0" stop-color="#ff928e"/>
			<stop offset="1" stop-color="#fe7062"/>
		</linearGradient>
		<linearGradient id="g43" x1="3289.1" y1="2425.1" x2="3020.3" y2="3336.7" gradientUnits="userSpaceOnUse">
			<stop offset="0" stop-color="#ff928e"/>
			<stop offset="1" stop-color="#fe7062"/>
		</linearGradient>
		<linearGradient id="g44" x1="3325.5" y1="2433.8" x2="3056.8" y2="3345.4" gradientUnits="userSpaceOnUse">
			<stop offset="0" stop-color="#ff928e"/>
			<stop offset="1" stop-color="#fe7062"/>
		</linearGradient>
		<linearGradient id="g45" x1="3361.9" y1="2442.5" x2="3093.2" y2="3354.1" gradientUnits="userSpaceOnUse">
			<stop offset="0" stop-color="#ff928e"/>
			<stop offset="1" stop-color="#fe7062"/>
		</linearGradient>
		<linearGradient id="g46" x1="1547.6" y1="2723.4" x2="1943.1" y2="2264.3" gradientUnits="userSpaceOnUse">
			<stop offset="0" stop-color="#e1473d"/>
			<stop offset="1" stop-color="#e9605a"/>
		</linearGradient>
		<linearGradient id="g47" x1="2705.1" y1="2095.9" x2="2373.6" y2="2916.4" gradientUnits="userSpaceOnUse">
			<stop offset="0" stop-color="#ff928e"/>
			<stop offset="1" stop-color="#fe7062"/>
		</linearGradient>
		<linearGradient id="g48" x1="2637" y1="1720.1" x2="2215.1" y2="2865.4" gradientUnits="userSpaceOnUse">
			<stop offset="0" stop-color="#ff928e"/>
			<stop offset="1" stop-color="#fe7062"/>
		</linearGradient>
		<linearGradient id="g49" x1="2589.9" y1="2535.7" x2="2433.7" y2="3347.1" gradientUnits="userSpaceOnUse">
			<stop offset="0" stop-color="#ff928e"/>
			<stop offset="1" stop-color="#fe7062"/>
		</linearGradient>
		<linearGradient id="g50" x1="2614.9" y1="2538.8" x2="2458.7" y2="3350.1" gradientUnits="userSpaceOnUse">
			<stop offset="0" stop-color="#ff928e"/>
			<stop offset="1" stop-color="#fe7062"/>
		</linearGradient>
		<linearGradient id="g51" x1="2639.9" y1="2541.8" x2="2483.7" y2="3353.2" gradientUnits="userSpaceOnUse">
			<stop offset="0" stop-color="#ff928e"/>
			<stop offset="1" stop-color="#fe7062"/>
		</linearGradient>
	</defs>
	<style>
		.s0 { fill: url(#g1) } 
		.s1 { fill: #91b3fa } 
		.s2 { fill: #bdd0fb } 
		.s3 { fill: url(#g2) } 
		.s4 { fill: url(#g3) } 
		.s5 { fill: url(#g4) } 
		.s6 { fill: url(#g5) } 
		.s7 { fill: #ffffff } 
		.s8 { fill: url(#g6) } 
		.s9 { fill: url(#g7) } 
		.s10 { fill: url(#g8) } 
		.s11 { fill: url(#g9) } 
		.s12 { fill: url(#g10) } 
		.s13 { fill: url(#g11) } 
		.s14 { fill: url(#g12) } 
		.s15 { fill: url(#g13) } 
		.s16 { fill: url(#g14) } 
		.s17 { fill: url(#g15) } 
		.s18 { fill: url(#g16) } 
		.s19 { fill: url(#g17) } 
		.s20 { fill: url(#g18) } 
		.s21 { fill: url(#g19) } 
		.s22 { fill: url(#g20) } 
		.s23 { fill: url(#g21) } 
		.s24 { fill: url(#g22) } 
		.s25 { fill: url(#g23) } 
		.s26 { fill: url(#g24) } 
		.s27 { fill: url(#g25) } 
		.s28 { fill: url(#g26) } 
		.s29 { fill: url(#g27) } 
		.s30 { fill: url(#g28) } 
		.s31 { fill: url(#g29) } 
		.s32 { fill: url(#g30) } 
		.s33 { fill: url(#g31) } 
		.s34 { fill: url(#g32) } 
		.s35 { fill: url(#g33) } 
		.s36 { fill: url(#g34) } 
		.s37 { fill: url(#g35) } 
		.s38 { fill: url(#g36) } 
		.s39 { fill: url(#g37) } 
		.s40 { fill: url(#g38) } 
		.s41 { fill: url(#g39) } 
		.s42 { opacity: .8;fill: #ffffff } 
		.s43 { fill: url(#g40) } 
		.s44 { fill: url(#g41) } 
		.s45 { fill: url(#g42) } 
		.s46 { fill: url(#g43) } 
		.s47 { fill: url(#g44) } 
		.s48 { fill: url(#g45) } 
		.s49 { fill: url(#g46) } 
		.s50 { fill: url(#g47) } 
		.s51 { fill: url(#g48) } 
		.s52 { fill: url(#g49) } 
		.s53 { fill: url(#g50) } 
		.s54 { fill: url(#g51) } 
	</style>
	<g id="Illustration">
		<g id="&lt;Group&gt;">
			<path id="&lt;Path&gt;" class="s0" d="m3055.1 2293.9c-273.9 640.1-996.8 915.1-1563.2 868.2-154.7-12.8-465.8-38.6-708.8-268.3-466.6-441.3-394.7-1363.6 51.9-1906.6 57.6-69.9 455.7-538.4 1076.1-532.1 454.3 4.6 773.1 261.2 811.9 293.1 49 40.4 157 136.4 254.3 288.6 228.8 357.7 248.9 857.1 77.8 1257.1z"/>
			<g id="&lt;Group&gt;">
				<g id="&lt;Group&gt;">
					<g id="&lt;Group&gt;" style="opacity: .3">
						<path id="&lt;Compound Path&gt;" class="s1" d="m1296.3 1094.8c5.2-1.3 10.6 1.6 12.5 6.7 4 11.2 7.6 22.8 10.7 34.3 1.6 5.7-1.8 11.4-7.4 13q-0.1 0-0.2 0c-5.6 1.4-11.3-1.9-12.7-7.5-3-11-6.4-22-10.3-32.6-2-5.5 0.9-11.6 6.4-13.5q0.5-0.2 1-0.4zm21.4 89.4q0.6-0.1 1.3-0.2c5.8-0.7 11 3.4 11.8 9.2 1.4 11.9 2.4 23.9 2.9 35.8 0.3 5.8-4.3 10.7-10.1 11-5.8 0.2-10.7-4.3-11-10.1-0.4-11.4-1.4-22.8-2.8-34.1-0.7-5.4 2.8-10.3 7.9-11.6zm1.2 92q1.8-0.5 3.6-0.3c5.8 0.6 10.1 5.8 9.5 11.6-1.2 11.8-2.9 23.8-5.1 35.6-1.1 5.7-6.6 9.5-12.4 8.4-5.7-1.1-9.5-6.6-8.4-12.3 2.1-11.2 3.7-22.6 4.9-33.8 0.4-4.6 3.7-8.2 7.9-9.2zm-19.3 89.8c1.8-0.4 3.9-0.4 5.9 0.3 5.5 1.9 8.4 7.8 6.6 13.4-3.8 11.3-8.2 22.6-13 33.5-2.3 5.4-8.5 7.8-13.9 5.5-5.3-2.3-7.7-8.5-5.4-13.9 4.5-10.4 8.6-21.1 12.3-31.9 1.2-3.5 4.1-6 7.5-6.9zm-39 83.3c2.7-0.6 5.5-0.2 8.1 1.3 4.9 3 6.5 9.5 3.4 14.5-6.2 10.2-12.9 20.2-20 29.9-3.5 4.7-10.1 5.7-14.8 2.2-4.7-3.4-5.7-10-2.2-14.7 6.7-9.2 13.1-18.7 19-28.4 1.6-2.5 3.9-4.1 6.5-4.8zm-56.4 72.7c3.4-0.9 7.2 0 9.9 2.6 4.2 4.1 4.3 10.8 0.2 15-8.3 8.5-17.1 16.8-26.1 24.7-4.5 3.8-11.1 3.3-14.9-1.1-3.9-4.4-3.4-11.1 1-14.9 8.6-7.4 17-15.3 24.9-23.5 1.4-1.4 3.2-2.4 5-2.8zm-369.4 117.2c1.4-0.3 3-0.4 4.5-0.1 11.1 2.1 22.5 3.7 33.8 4.8 5.8 0.6 10.1 5.7 9.5 11.5-0.6 5.8-5.7 10.1-11.5 9.5-11.9-1.2-23.9-2.9-35.7-5-5.7-1.1-9.5-6.6-8.4-12.3 0.8-4.2 3.9-7.4 7.8-8.4zm298.4-59c4.2-1 8.9 0.7 11.4 4.5 3.1 4.9 1.7 11.5-3.2 14.6-10 6.5-20.4 12.7-31 18.3-5.1 2.7-11.5 0.8-14.2-4.4-2.8-5.1-0.8-11.5 4.3-14.3 10-5.3 19.9-11.1 29.5-17.3q1.5-1 3.2-1.4zm-206.7 65.6q1-0.3 2.1-0.3c11.4-0.5 22.8-1.5 34.1-2.9 5.8-0.8 11.1 3.3 11.8 9.1 0.8 5.8-3.3 11.1-9.1 11.8-11.9 1.5-24 2.5-35.9 3-5.8 0.3-10.7-4.2-11-10.1-0.2-5.1 3.3-9.5 8-10.6zm124.4-24.6c5.2-1.3 10.6 1.5 12.4 6.6 2 5.5-0.8 11.5-6.3 13.5-11.2 4.1-22.7 7.8-34.3 10.9q-0.1 0-0.2 0c-5.6 1.4-11.2-1.9-12.7-7.5-1.5-5.6 1.8-11.4 7.4-12.9 11-3 22-6.4 32.6-10.3q0.6-0.2 1.1-0.3z"/>
						<path id="&lt;Path&gt;" class="s1" d="m763.5 1619.1c2-0.5 4.2-0.4 6.3 0.4 5.1 2 10.3 3.8 15.5 5.6 5.5 1.8 8.5 7.8 6.6 13.4-1.9 5.5-7.8 8.5-13.4 6.6-5.4-1.8-10.9-3.8-16.3-5.9-5.4-2-8.1-8.1-6-13.6 1.2-3.3 4-5.7 7.3-6.5z"/>
					</g>
					<g id="&lt;Group&gt;" style="opacity: .3">
						<path id="&lt;Path&gt;" class="s1" d="m531.7 1396c4.9-1.2 10.1 1.3 12.2 6.1 2.1 5 4.4 10.1 6.7 15 2.5 5.3 0.3 11.6-5 14.1-5.3 2.5-11.5 0.2-14-5-2.5-5.2-4.9-10.6-7.1-15.8-2.3-5.4 0.2-11.6 5.6-13.9q0.7-0.3 1.6-0.5z"/>
						<path id="&lt;Compound Path&gt;" class="s1" d="m810.8 836.2q7.1-1.8 14.3-3.3c5.7-1.2 11.3 2.4 12.5 8.1 1.2 5.7-2.5 11.4-8.2 12.6-11 2.3-22 5.1-32.6 8.3-5.6 1.6-11.4-1.5-13.1-7.1-1.7-5.6 1.5-11.5 7.1-13.1 6.5-2 13.3-3.9 20-5.5zm69.4-11.1q0.9-0.2 1.8-0.3c11.7-0.8 23.7-1.2 35.4-1.1 5.8 0.1 10.5 4.9 10.4 10.7 0 5.8-4.8 10.5-10.6 10.4-11.2-0.1-22.5 0.3-33.7 1.1-5.8 0.4-10.8-4-11.3-9.8-0.3-5.2 3.1-9.8 8-11zm-141.4 36.2c4.8-1.2 10 1.1 12.1 5.8 2.4 5.3 0.1 11.6-5.2 14-10.1 4.7-20.2 9.8-30 15.3-5 2.8-11.5 1-14.3-4-2.9-5.1-1.1-11.5 4-14.4 10.2-5.8 20.8-11.2 31.5-16.1q0.9-0.4 1.9-0.6zm231.9-32.8c1.3-0.4 2.6-0.4 4.1-0.2 11.6 1.7 23.3 4 34.7 6.7 5.7 1.3 9.2 7 7.9 12.7-1.4 5.7-7.1 9.2-12.7 7.8-10.9-2.6-22-4.7-33.1-6.3-5.7-0.9-9.7-6.3-8.8-12 0.6-4.4 3.8-7.7 7.9-8.7zm-309.5 79.2c4-0.9 8.3 0.4 11 3.9 3.5 4.6 2.6 11.3-2.1 14.8-8.8 6.7-17.5 14-25.8 21.5-4.4 3.9-11 3.5-14.9-0.8-3.9-4.3-3.6-11 0.7-14.9 8.8-7.9 17.9-15.5 27.3-22.6 1.1-0.9 2.5-1.5 3.8-1.9zm-65.5 62.4c3.2-0.8 6.7-0.1 9.3 2.2 4.5 3.7 5.1 10.4 1.3 14.8-7.2 8.6-14.1 17.5-20.6 26.6-3.3 4.8-9.9 5.9-14.7 2.6-4.7-3.4-5.9-10-2.5-14.8 6.8-9.5 14.1-19 21.7-28 1.5-1.7 3.4-2.9 5.5-3.4zm-50.3 75.2c2.4-0.6 5-0.4 7.4 0.8 5.1 2.7 7.1 9.1 4.4 14.3-5.1 9.9-9.9 20.1-14.3 30.4-2.2 5.4-8.4 7.9-13.8 5.7-5.3-2.3-7.9-8.5-5.6-13.8 4.5-10.9 9.6-21.6 15-32.1 1.5-2.8 4-4.6 6.9-5.3zm-32.8 84.3c1.7-0.4 3.5-0.4 5.2 0 5.7 1.5 9 7.3 7.5 13-2.9 10.8-5.3 21.8-7.3 32.8-1 5.7-6.5 9.6-12.2 8.6-5.7-1.1-9.6-6.5-8.5-12.3 2-11.6 4.6-23.2 7.6-34.6 1-3.8 4.1-6.6 7.7-7.5zm-13.5 89.5q1.5-0.3 3-0.3c5.8 0.2 10.3 5.1 10.1 11-0.4 11.1-0.4 22.4 0.2 33.6 0.2 5.8-4.3 10.7-10.1 11-5.8 0.3-10.7-4.2-11-10-0.6-11.8-0.6-23.7-0.2-35.4 0.2-4.9 3.6-8.8 8-9.9zm6.6 90.2q0.3-0.1 0.6-0.1c5.7-1.1 11.2 2.7 12.3 8.5 1.5 8.1 3.2 16.2 5.2 24.2q1.1 4.3 2.2 8.6c1.6 5.6-1.8 11.4-7.4 12.9-5.7 1.7-11.4-1.8-12.9-7.4q-1.3-4.5-2.4-9.1c-2.1-8.3-3.9-16.9-5.5-25.4-1-5.5 2.5-10.8 7.9-12.2z"/>
						<path id="&lt;Path&gt;" class="s1" d="m1058.4 851.8c2-0.6 4.2-0.5 6.3 0.4 5.3 2 10.7 4.2 16 6.6 5.4 2.3 7.8 8.5 5.5 13.8-2.4 5.4-8.6 7.8-13.9 5.5-5-2.2-10.2-4.3-15.2-6.3-5.4-2.1-8.1-8.2-6-13.6 1.3-3.3 4.1-5.6 7.3-6.4z"/>
					</g>
					<g id="&lt;Group&gt;">
						<path id="&lt;Compound Path&gt;" class="s1" d="m1131.5 1017.2c1.7 1.3 2.4 3.5 1.8 5.5l-18.4 57.1c18 21.5 32.7 46.1 43.1 72.9l59 11.4c2 0.4 3.6 2.1 3.9 4.2l10.2 71.2c0.3 2.1-0.8 4.2-2.7 5.1l-53.4 27.4c-2.5 28.7-9.8 56.4-21 82.1l33.6 49.7c1.2 1.7 1.1 4-0.1 5.7l-43.3 57.6c-1.2 1.7-3.4 2.4-5.4 1.7l-57.2-18.4c-21.5 18-46 32.7-72.9 43.2l-11.3 58.9c-0.4 2.1-2.1 3.7-4.2 4l-71.3 10.1c-2.1 0.3-4.1-0.7-5.1-2.6l-27.3-53.4c-28.8-2.6-56.4-9.8-82.1-21.1l-49.7 33.7c-1.8 1.1-4.1 1.1-5.7-0.2l-57.6-43.2c-1.7-1.3-2.4-3.5-1.8-5.5l18.4-57.1c-18-21.5-32.7-46-43.1-72.9l-58.9-11.4c-2.1-0.4-3.7-2-4-4.1l-10.2-71.3c-0.3-2.1 0.8-4.1 2.7-5.1l53.4-27.4c2.5-28.7 9.8-56.4 21.1-82l-33.7-49.8c-1.2-1.7-1.1-4 0.1-5.7l43.3-57.6c1.2-1.7 3.4-2.4 5.4-1.7l57.2 18.4c21.5-18 46-32.7 72.9-43.2l11.3-58.9c0.4-2 2.1-3.6 4.2-3.9l71.3-10.2c2.1-0.3 4.1 0.8 5.1 2.6l27.3 53.4c28.8 2.6 56.4 9.8 82.1 21.1l49.7-33.6c1.8-1.2 4.1-1.2 5.8 0.1z"/>
						<g id="&lt;Group&gt;">
							<path id="&lt;Compound Path&gt;" fill-rule="evenodd" class="s2" d="m895.6 1178.2c34.3-8.4 70.6 9.3 84.3 42.9 15.2 36.9-2.6 79.3-39.5 94.4-17.9 7.3-37.6 7.3-55.4-0.2-17.8-7.5-31.7-21.4-39-39.3-15.2-37 2.6-79.3 39.5-94.5q5-2 10.1-3.3zm30.6 124.2q3.9-1 7.8-2.5c28.3-11.6 41.9-44.1 30.3-72.4-11.6-28.3-44.1-42-72.4-30.3-28.3 11.6-41.9 44-30.3 72.4 5.6 13.7 16.2 24.4 29.9 30.1 11.1 4.7 23.2 5.6 34.7 2.7z"/>
						</g>
						<path id="&lt;Path&gt;" class="s2" d="m869.1 1077.1q8.8-2.2 17.9-3.5 2.9-0.4 5.8-0.7c9.5-1.1 19-1.4 28.5-0.9q0.2 0 0.4 0 0.5 0.1 1.1 0.1 1 0.1 2.1 0.1c1.9 0.2 3.4 1.5 3.8 3.2q0.2 0.7 0.1 1.4c-0.2 2.3-2.2 4-4.5 3.9-12-0.9-24.1-0.4-36.1 1.3-59.5 8.4-107.4 47-130.5 98-12.9 28.4-18.1 60.7-13.4 93.7q1.2 8.7 3.3 17.2c9.4 37.7 31.2 70.8 62.8 94.5 36.2 27.2 80.8 38.6 125.7 32.3 92.6-13.2 157.1-99.3 143.9-191.8q-1.2-8.6-3.3-16.9c-6-24.1-17.1-46.6-32.8-65.9q-0.6-0.8-0.8-1.7c-0.4-1.5 0.1-3.2 1.4-4.2 1.9-1.5 4.5-1.2 6 0.6 16.4 20.2 28.1 43.9 34.4 69.1q2.2 8.8 3.4 17.8c13.9 97.2-53.9 187.5-151 201.3-47.1 6.7-94-5.3-132-33.8-33.1-24.9-56.1-59.7-65.9-99.3q-2.2-8.8-3.5-18c-6.7-47 5.3-93.9 33.9-131.9 24.8-33.1 59.6-56.1 99.3-65.9z"/>
					</g>
				</g>
				<g id="&lt;Group&gt;">
					<g id="&lt;Group&gt;" style="opacity: .3">
						<path id="&lt;Path&gt;" class="s1" d="m1579.1 738.3c2.8-0.6 5.7 0.5 7.2 3.1 2.8 4.8 5.5 9.7 8 14.6 1.6 3.3 0.3 7.2-2.9 8.8-3.2 1.6-7.1 0.3-8.7-2.9-2.4-4.7-5-9.4-7.6-14-1.8-3.1-0.8-7 2.3-8.9q0.9-0.4 1.7-0.7z"/>
						<path id="&lt;Compound Path&gt;" class="s1" d="m1600.3 783.8c3.2-0.8 6.6 0.9 7.7 4.1 3.2 9 6 18.2 8.3 27.5q0.7 2.9 1.4 5.8c0.8 3.6-1.6 7-4.9 7.8-3.5 0.8-7-1.4-7.8-4.9q-0.6-2.8-1.3-5.6c-2.2-8.8-4.9-17.6-7.9-26.2-1.3-3.4 0.5-7.1 3.9-8.3q0.3-0.1 0.6-0.2zm14.9 66q0.4-0.1 0.9-0.1c3.6-0.4 6.8 2.2 7.2 5.8 1.1 11.5 1.5 23.2 1.3 34.7-0.1 3.6-3.1 6.4-6.7 6.3-3.6-0.1-6.4-3-6.4-6.6 0.3-11-0.1-22.1-1.2-33.1-0.3-3.3 1.8-6.2 4.9-7zm-1.6 67.7q1.2-0.3 2.5-0.1c3.6 0.5 6 3.8 5.5 7.4-1.7 11.4-4.1 22.8-7.2 33.9-1 3.5-4.6 5.5-8.1 4.6-3.4-1-5.5-4.6-4.5-8.1 3-10.6 5.3-21.5 6.9-32.3 0.4-2.7 2.4-4.8 4.9-5.4zm-18.2 65.2c1.3-0.3 2.7-0.3 4.1 0.3 3.3 1.4 4.9 5.2 3.5 8.5-4.5 10.7-9.6 21.2-15.3 31.2-1.8 3.1-5.8 4.2-8.9 2.4-3.2-1.8-4.2-5.8-2.5-8.9 5.5-9.5 10.4-19.5 14.7-29.7 0.8-2 2.5-3.3 4.4-3.8zm-33.5 58.8c1.8-0.5 3.8-0.1 5.4 1.1 2.9 2.1 3.5 6.2 1.4 9.1-7 9.2-14.5 18.2-22.5 26.5-2.5 2.6-6.6 2.7-9.2 0.2-2.6-2.5-2.7-6.6-0.2-9.2 7.6-8 14.8-16.5 21.4-25.3 0.9-1.3 2.2-2.1 3.7-2.4zm-46.8 48.8c2.3-0.6 4.9 0.2 6.6 2.2 2.3 2.8 1.8 6.9-1 9.2-8.9 7.3-18.4 14.1-28.1 20.2-3.1 1.9-7.1 1-9-2.1-1.9-3-1-7 2-8.9 9.3-5.9 18.4-12.4 26.9-19.3 0.8-0.6 1.7-1.1 2.6-1.3zm-57.3 35.9c2.9-0.7 6.1 0.7 7.4 3.6 1.5 3.3 0.1 7.2-3.1 8.7-10.5 4.8-21.3 9.1-32.3 12.7-3.5 1-7.1-0.8-8.2-4.3-1.2-3.4 0.7-7 4.1-8.2 10.6-3.3 20.9-7.4 30.9-12q0.5-0.3 1.2-0.5zm-98.1 25.2q0.6-0.2 1.1-0.2c9.5-0.7 19.1-1.8 28.6-3.5q2.2-0.4 4.3-0.8c3.5-0.6 6.9 1.7 7.6 5.2 0.7 3.5-1.6 7.1-5.2 7.6q-2.2 0.5-4.5 0.9c-9.9 1.7-19.9 2.9-29.9 3.6-3.6 0.2-6.7-2.5-6.9-6.1-0.2-3.2 1.9-6 4.9-6.7z"/>
					</g>
					<g id="&lt;Group&gt;" style="opacity: .3">
						<path id="&lt;Compound Path&gt;" class="s1" d="m1271.7 610.9c3.5-0.9 7 1.2 7.9 4.7 0.9 3.4-1.2 7-4.6 7.9-10.5 2.8-20.9 6.2-31 10.1-3.3 1.3-7.1-0.3-8.4-3.6-1.4-3.4 0.3-7.2 3.6-8.5 10.6-4.2 21.5-7.7 32.5-10.6q0 0 0 0zm32.8-6.5q0.3-0.1 0.7-0.1c11.2-1.6 22.6-2.4 34-2.6 3.6-0.1 6.6 2.8 6.6 6.4 0.1 3.6-2.8 6.6-6.4 6.6-10.8 0.2-21.8 1-32.5 2.5-3.6 0.5-6.8-2-7.3-5.6-0.5-3.3 1.7-6.4 4.9-7.2zm-94.6 31c2.8-0.7 5.8 0.5 7.2 3.2 1.8 3.1 0.6 7.1-2.6 8.8-9.5 5.2-18.8 11-27.5 17.3-3 2.1-7 1.4-9.1-1.5-2.1-2.9-1.5-7 1.5-9.1 9.2-6.6 18.9-12.7 28.9-18.1q0.8-0.4 1.6-0.6zm161.1-32q1.1-0.2 2.3-0.1c11.3 1.2 22.6 3.1 33.7 5.7 3.5 0.8 5.7 4.3 4.8 7.8-0.8 3.5-4.3 5.7-7.8 4.9-10.5-2.5-21.3-4.3-32.1-5.5-3.6-0.4-6.2-3.6-5.8-7.1 0.3-2.8 2.4-5 4.9-5.7zm-215.3 70.7c2.3-0.6 4.7 0.1 6.4 1.9 2.4 2.7 2.3 6.8-0.4 9.2-8 7.3-15.6 15.2-22.6 23.4-2.3 2.8-6.5 3.1-9.2 0.8-2.7-2.4-3.1-6.5-0.7-9.2 7.4-8.6 15.3-16.9 23.7-24.6 0.8-0.7 1.8-1.2 2.8-1.5zm-43.2 50.6c1.7-0.4 3.6-0.2 5.1 0.9 3 2 3.9 6 1.9 9-6 9-11.5 18.5-16.4 28.2-1.6 3.2-5.5 4.5-8.8 2.9-3.2-1.7-4.5-5.6-2.8-8.8 5-10.1 10.8-20 17.1-29.5 0.9-1.4 2.3-2.3 3.9-2.7zm-29.9 59.5c1.2-0.3 2.5-0.3 3.7 0.2 3.4 1.2 5.2 4.9 4 8.3-3.7 10.2-6.8 20.7-9.2 31.3-0.8 3.5-4.3 5.7-7.8 4.9-3.5-0.8-5.7-4.3-4.9-7.8 2.5-11.1 5.7-22.1 9.6-32.8 0.8-2.1 2.5-3.6 4.6-4.1z"/>
						<path id="&lt;Path&gt;" class="s1" d="m1436.2 618.7c1.2-0.3 2.5-0.3 3.8 0.2 5.2 1.9 10.4 4 15.5 6.2 3.3 1.4 4.8 5.3 3.3 8.6-1.4 3.3-5.2 4.8-8.6 3.3-4.7-2.1-9.7-4.1-14.7-5.9-3.4-1.2-5.1-5-3.9-8.4 0.8-2.1 2.6-3.5 4.6-4z"/>
					</g>
					<g id="&lt;Group&gt;">
						<path id="&lt;Compound Path&gt;" class="s1" d="m1489.7 730.6c1.1 0.9 1.6 2.3 1.2 3.7l-12.4 38.2c12.1 14.4 21.9 30.8 28.9 48.8l39.4 7.6c1.4 0.3 2.5 1.4 2.7 2.8l6.8 47.7c0.2 1.4-0.5 2.8-1.8 3.4l-35.7 18.3c-1.7 19.2-6.6 37.7-14.1 54.9l22.5 33.3c0.8 1.2 0.7 2.7-0.1 3.8l-28.9 38.6c-0.9 1.1-2.3 1.6-3.7 1.1l-38.2-12.3c-14.4 12.1-30.8 21.9-48.8 28.9l-7.6 39.4c-0.3 1.4-1.4 2.5-2.8 2.7l-47.7 6.8c-1.4 0.2-2.7-0.5-3.4-1.8l-18.3-35.7c-19.2-1.7-37.7-6.6-54.9-14.1l-33.3 22.5c-1.2 0.8-2.7 0.7-3.8-0.1l-38.6-28.9c-1.1-0.9-1.5-2.4-1.1-3.7l12.3-38.2c-12-14.4-21.9-30.8-28.9-48.8l-39.4-7.6c-1.4-0.3-2.4-1.4-2.6-2.8l-6.8-47.7c-0.2-1.4 0.5-2.8 1.7-3.4l35.7-18.3c1.8-19.2 6.6-37.8 14.2-54.9l-22.6-33.3c-0.8-1.2-0.7-2.7 0.1-3.8l29-38.6c0.8-1.1 2.3-1.6 3.6-1.1l38.2 12.3c14.4-12.1 30.8-21.9 48.8-28.9l7.6-39.4c0.3-1.4 1.4-2.5 2.8-2.7l47.7-6.8c1.4-0.2 2.8 0.5 3.4 1.8l18.3 35.7c19.3 1.7 37.8 6.6 54.9 14.1l33.3-22.5c1.2-0.8 2.7-0.7 3.8 0.1z"/>
						<g id="&lt;Group&gt;">
							<path id="&lt;Compound Path&gt;" fill-rule="evenodd" class="s2" d="m1331.7 837.5c10.2-2.5 20.9-1.7 30.8 2.4 12.1 5.1 21.6 14.6 26.5 26.8 10.4 25.2-1.7 54-26.9 64.3-25.2 10.3-54-1.8-64.3-26.9-5-12.2-5-25.6 0.1-37.7 5.1-12.2 14.6-21.6 26.8-26.6q3.4-1.4 7-2.3zm20.4 83.1q2.6-0.6 5.1-1.6c18.5-7.6 27.4-28.8 19.8-47.4-3.7-8.9-10.6-15.9-19.6-19.7-8.9-3.7-18.8-3.7-27.7-0.1-9 3.7-16 10.7-19.7 19.6-3.8 8.9-3.8 18.8-0.1 27.8 6.9 16.8 25 25.7 42.2 21.4z"/>
						</g>
						<path id="&lt;Path&gt;" class="s2" d="m1313.3 767.1q6-1.5 12.2-2.4c8.3-1.2 16.7-1.5 25-1q0.6 0 1.2 0.1c2.9 0.2 5.2 2.2 5.8 4.9q0.3 1 0.2 2c-0.2 3.6-3.4 6.3-7 6.1-7.7-0.6-15.6-0.3-23.3 0.8q-0.7 0.1-1.3 0.2c-18.3 2.8-35.2 10-49.5 20.9-7.8 5.9-14.8 12.9-20.9 20.9q-0.1 0.1-0.2 0.2-0.2 0.3-0.4 0.6c-17.6 23.4-25 52.3-20.9 81.4q0.8 5.6 2.2 11c6 24.5 20.2 45.9 40.6 61.3 23.4 17.5 52.3 25 81.4 20.8 29-4.1 54.7-19.3 72.3-42.8 17.6-23.4 25-52.3 20.8-81.3q-0.8-5.6-2.1-11c-3.9-15.6-11.1-30.1-21.2-42.6q-1-1.2-1.3-2.6c-0.6-2.3 0.2-4.9 2.2-6.6 2.8-2.2 6.9-1.8 9.2 1 11.3 13.9 19.4 30.2 23.8 47.7q1.5 6 2.3 12.2c4.7 32.5-3.6 64.8-23.3 91.1-19.7 26.2-48.4 43.2-80.9 47.8-32.5 4.7-64.8-3.6-91-23.3-22.9-17.2-38.7-41.2-45.5-68.5q-1.5-6.1-2.4-12.4c-9-62.9 31.6-121.6 92-136.5z"/>
					</g>
				</g>
			</g>
			<g id="&lt;Group&gt;">
				<path id="&lt;Path&gt;" class="s3" d="m2221.8 2733.8l522.1-1000.3h-106.9c-19.8 0-30.6-22.9-18.1-38.1l556.5-678.2c24.1-29.4 71.7-10.8 69.5 27.2l-39.1 663.2c-2.3 37.9-35.9 66.2-73.7 61.9l-74.6-8.5-518 1121.8c-13.5 29.2-42.8 47.9-74.9 47.9h-179.6z"/>
				<path id="&lt;Path&gt;" class="s4" d="m2000 1890.9l491.1 962.3c9.3 18.2 28 29.6 48.4 29.6l-6.8 12.2c-12.2 22-35.4 35.7-60.7 35.7h-190c-53.2 0-101.4-31.2-123.2-79.7l-368.6-818.7z"/>
				<path id="&lt;Path&gt;" class="s5" d="m2049.6 1988.1c-37-29.1-91-20.6-117.1 18.6l-541.9 814.2c-43.4 65.3-116.6 104.4-194.9 104.4h-76.2l-62.1-178.7c0 0 503.8-772.5 633.7-889.4 0 0 129.3-116.5 256.8-28.4 33.7 23.3 59.2 56.5 74.9 94.3z"/>
				<path id="&lt;Path&gt;" class="s6" d="m468 2265.8c0 0 90.7-113.4 266.5-131.1 0 0 83.5 28.5 249.8 326.5 166.3 298.1 276.7 434 406.3 359.7l-10.7 17.9c-35.4 58.6-98.9 94.5-167.4 94.5h-71.7c-78.9 0-147.4-121.5-193.4-185.5-129.5-180-399.9-454.1-479.4-482z"/>
				<path id="&lt;Path&gt;" class="s2" d="m3182.1 1253.9q-0.3 0-0.6 0c-2.7-0.3-4.7-2.8-4.4-5.6l3.7-32.4c0.3-2.7 2.7-4.7 5.5-4.4 2.8 0.3 4.8 2.8 4.4 5.6l-3.6 32.4c-0.3 2.5-2.5 4.4-5 4.4z"/>
				<path id="&lt;Path&gt;" class="s2" d="m2717.6 1662.7c-1.1 0-2.2-0.4-3.1-1.1-2.2-1.6-2.6-4.8-0.9-7l459.5-597c5.4-7 14.1-9.4 22.3-6.1 8.2 3.3 12.8 11.1 11.9 19.9l-8.2 71.5c-0.3 2.8-2.8 4.8-5.5 4.5-2.8-0.4-4.8-2.8-4.4-5.6l8.1-71.6c0.5-5-2.6-8.1-5.6-9.4-3.1-1.2-7.5-1.1-10.6 2.9l-459.5 597c-1 1.3-2.5 2-4 2z"/>
				<path id="&lt;Path&gt;" class="s2" d="m1675.2 2288.6c-1 0-2-0.3-2.8-0.9-2.3-1.5-2.9-4.6-1.4-6.9l237.7-352.3c8.5-12.6 22.6-19.4 37.7-18.3 15.2 1.2 28.1 10.1 34.6 23.8 1.2 2.5 0.1 5.5-2.4 6.7-2.5 1.2-5.5 0.1-6.7-2.4-4.9-10.4-14.7-17.2-26.2-18-11.6-0.9-22.3 4.3-28.7 13.8l-237.7 352.3c-0.9 1.4-2.5 2.2-4.1 2.2z"/>
				<g id="&lt;Group&gt;">
					<path id="&lt;Path&gt;" class="s7" d="m1613.4 2380.1c-0.9 0-1.9-0.3-2.8-0.8-2.3-1.6-2.9-4.7-1.3-7l15.2-22.6c1.5-2.3 4.7-2.9 7-1.4 2.3 1.6 2.9 4.7 1.3 7l-15.2 22.6c-1 1.5-2.6 2.2-4.2 2.2z"/>
				</g>
			</g>
			<g id="&lt;Group&gt;">
				<path id="&lt;Path&gt;" class="s8" d="m1727.5 3086.6l175.5 80.7c4.3 2 7.8 5.6 9.5 10 2.1 5.4-1.6 11.2-7.3 11.5-38.2 1.7-144.4-2.3-194.1-4.4-14.6-0.6-25.8-13.3-24.5-27.8 3.2-37.3 9.9-75 9.9-75z"/>
				<path id="&lt;Path&gt;" class="s9" d="m1735.4 3052.5l12.7 50.2c-21 16.1-51.7 1.8-51.7 1.8l-5.4-45z"/>
				<path id="&lt;Path&gt;" class="s10" d="m1695 2212.2c-2.3 11.8-12.4 587.3 49.2 845.2 1 4.2-1.2 8.5-5.2 10.2-9.4 3.8-27.9 9.4-50.1 10.2-6.8 0.2-13-4.3-14.9-10.9-17.6-59.8-101.9-359.6-112.9-646-12.3-320 0-10.9 0-10.9l7.2-197.8z"/>
				<path id="&lt;Path&gt;" class="s11" d="m1534.1 3103.4c21.6 23.6 28.6 53.9 30.8 72.3 1.1 9.3-6.2 17.4-15.5 17.4-20.2 0.2-45.4-1.9-61.8-3.5-9.3-0.9-15.7-9.7-13.8-18.8 10.2-50.5 20.8-69.5 20.8-69.5z"/>
				<path id="&lt;Path&gt;" class="s12" d="m1528.6 3040.6l6 73.4c-24.4 6.6-36.8-2.6-36.8-2.6l-12.5-68.1z"/>
				<path id="&lt;Path&gt;" class="s13" d="m1700.1 2198l-6.9 104.6-91 64.7c-7.4 5.2-12.7 12.8-15.1 21.5-46.8 171.5-41.9 605.6-44.6 676.3-0.2 5.4-3.9 10-9 11.5-15 4.3-30.2 3.1-39.4 1.6-5.4-0.9-9.7-5-11-10.4-20.6-87.4-81.9-534.3-31.5-837.9z"/>
				<g id="&lt;Group&gt;">
					<path id="&lt;Path&gt;" class="s14" d="m1925.9 1629.8c7.8 33.3 25.8 89.5 63.9 133.7-50 28.1-110.6 49.4-184.3 58.5 0 0-90.5 308.5-109.9 418.1 0 0-131.7 49.3-248.5 18.7 0 0-37-302.5 7.9-564.7 0 0 166.4-42.1 317.2-39.6 46.5 0.8 100.4-8.1 153.7-24.7z"/>
					<path id="&lt;Path&gt;" class="s15" d="m1989.8 1763.5c-38.1-44.2-56.1-100.4-63.9-133.7 119.5-37.1 235.9-113.1 258.1-206.8 0 0 18.7-8.5 33.5 9.4 0 0-29.3 219.6-227.7 331.1z"/>
				</g>
				<g id="&lt;Group&gt;">
					<path id="&lt;Path&gt;" class="s16" d="m2213.9 1437c1.6 4.9-16.4 12.4-26.9-7.8-0.4-9.6-6.3-51-0.5-58.9 30.7-41.9 90.3-94.4 90.3-94.4 10.1 9.9 1.8 19.7 1.8 19.7l-28.9 30.1c6 10.9 13.4 20.2 16.9 33.4 2.6 10 1 20.7-4.1 29.8-5 9.1-12 21-18.5 30.3-12.4 17.6-30.1 17.8-30.1 17.8z"/>
					<path id="&lt;Path&gt;" class="s17" d="m2239.7 1362.2c-5.9 9.6-13.8 53.7-13.8 53.7l-23.5-26.1 8.3-22.2 26.4-22.3c5.4 2.7 8.5 7.4 2.6 16.9z"/>
				</g>
				<path id="&lt;Path&gt;" class="s18" d="m1413.4 1943.9c-47.4-23.9-95.8-30.8-122.4-32.8 23.2-121.3 164-217 164-217l57.8 146c0 0-88.9 46.5-99.4 103.8z"/>
				<path id="&lt;Path&gt;" class="s19" d="m1656.8 2016.5c0 0-254.1 180.4-347.6 9.4-21.5-39.3-25.2-78.2-18.2-114.8 26.6 2 75 8.9 122.4 32.8-2.7 15 0 30.8 11 46.6 53.4 76.3 211.5-13 211.5-13z"/>
				<g id="&lt;Group&gt;">
					<path id="&lt;Path&gt;" class="s20" d="m1616.9 2090.5l86.3-301.3c1-3.5 3.9-6 7.4-6.4 15.7-1.8 61-6.9 113.3-11.3 63-5.4 136.2-9.7 179.9-6 6.2 0.5 10 7.1 7.2 12.7-24.8 50.3-127.1 254.9-178.3 321.9-1.7 2.3-4.4 3.6-7.2 3.5l-200.2-1.8c-5.8-0.1-10-5.7-8.4-11.3z"/>
					<path id="&lt;Path&gt;" class="s21" d="m1832.9 1745.3l62.5-10.4c3.4-0.6 6.1 2.6 5 5.8l-6.2 18.8c-0.5 1.6-1.9 2.8-3.6 3l-60.2 8.1c-3.2 0.4-5.7-2.4-5-5.5l3.8-16.4c0.4-1.7 1.9-3.1 3.7-3.4z"/>
					<path id="&lt;Path&gt;" class="s22" d="m1786 1798.3l5.2-26.9c0.5-2.6 2.7-4.7 5.4-5l126.4-12.8c4.3-0.4 7.7 3.5 6.7 7.6l-8.1 33.5c-0.6 2.7-2.9 4.6-5.7 4.7l-123.5 6.3c-4 0.2-7.2-3.5-6.4-7.4z"/>
					<path id="&lt;Path&gt;" class="s23" d="m1637.8 2017.7c0 0-12.1-49.4-7.2-67 4.8-17.5 14.2-40 45.6-35 31.3 5 68.2 18.2 68.2 18.2 0 0-1.9 22.8-25.7 15.4l14.8 11.5c0 0-2.1 18.3-22.2 8.5l13.7 15.1c0 0-8.6 15.1-23.4 5.4-14.8-9.6-21.9 33.9-63.8 27.9z"/>
				</g>
				<path id="&lt;Path&gt;" class="s24" d="m1717.1 1532.1l-15.6 120.1c-0.9 6.9-4.9 13-10.8 16.8-56.8 36-103.9 15.1-117 7.9-2.1-1.2-3-3.8-2.3-6.1l48-138.7z"/>
				<g id="&lt;Group&gt;">
					<path id="&lt;Path&gt;" class="s25" d="m1696 1382.1c1.9 1.8 79.2 153.5 79.2 153.5l-87.6 42.3-94.6-133c0 0 71.6-92.4 103-62.8z"/>
					<path id="&lt;Path&gt;" class="s26" d="m1631.7 1448.6c-1.5 4.1-1.1 8.6 1.1 12.3l43.7 72.8q1 1.7 2.4 3c5.2 4.8 23 18.9 36.7-0.3 11.7-16.3 22.7-31.1 34.5-37.3 6.9-3.5 15.4-0.7 18.9 6.2 7.2 14.3 21.1 43.4 29.9 71 2.2 6.9-1.4 14.3-8.1 17-17.8 7.2-52.8 20.2-83.9 24.5-5.1 0.7-10.2-1.5-13.2-5.6-13.4-18.4-51.1-69.6-64-82.4-12-11.9-34-7.4-44-4.6-3.8 1.1-7.8 0.6-11.1-1.5-10.1-6-27.7-21.2-11.6-46.8 4-6.4 1.9-14.9-4.4-19-11.2-7.4-23.5-21.3-11.8-43.8 11.8-22.8 32.8-24.9 47.2-23.1 6.3 0.7 12.8-2.6 15.2-8.5 1.1-2.6 3.2-4.9 7.2-5.7 7.5-1.5 12.5-8.4 11-15.9-2.5-12.9-0.6-29.7 20-41 37.8-20.8 70.9 13.1 79.3 41.6 8.4 28.6-33.9 48.8-60.4 52.2-19.6 2.5-30.3 23.8-34.6 34.9z"/>
					<path id="&lt;Path&gt;" class="s27" d="m1596 1556.5c-26.7-24.1-9.7-45.5 11.8-47.4 21.5-1.8 38.3 47.4 38.3 47.4 0 0-16.9 29.9-50.1 0z"/>
				</g>
			</g>
			<g id="&lt;Group&gt;">
				<path id="&lt;Path&gt;" class="s28" d="m1276.6 1543.2l-17.7 268.9c0 0-86.6 154-173.2 108.3-38.6-20.4-45.3-46.2-40.8-68.5 4.6-23.3-10.7-45.7-33.7-51.4-31.4-7.7-61.3-29.9-53-88.6 10.9-76.8 79.1-99.8 123.4-106.5 17.7-2.8 30.9-17.1 33.2-34.9 4.2-34.5 47.6-36.8 53.3-54.4 7.2-21.9 46.4-40.9 46.4-40.9z"/>
				<path id="&lt;Path&gt;" class="s29" d="m858.5 3161.3l-5.7 46c-1 8.8-7.9 15.7-16.6 16.7-14.8 1.7-38.5 3.4-61.7 1-10.2-1.1-16.8-11.4-13.7-21.2 5.6-17.8 16-44.5 30.9-60.2h51.1c9.5 0 16.8 8.3 15.7 17.7z"/>
				<path id="&lt;Path&gt;" class="s30" d="m1258.9 2621.4l8.6 50.8c0 0-28.9 292.7-34.1 409.7-0.8 18.4 4 36.5 13.6 52.2l50.3 81.6-127.7-75.4-2.6-15.6 20.9-28.7-27.3-327.9c-1.7-19.3 2.3-38.6 11.4-55.6l26.4-49.7z"/>
				<path id="&lt;Path&gt;" class="s31" d="m1305.7 3227.5h-40.8c-7.6 0-14.8-3.5-19.4-9.6-12.7-16.5-39.1-48.7-51.7-49.5-16.9-1.2-14.7 59.1-14.7 59.1h-9.5l-12.1-74.9c-3-18.8 6.4-37.4 23.3-46.3 0 0 3.9 28.7 24.9 41.3 21 12.7 85.4 58.1 85.4 58.1 0 0 7.9-1.2 16.6 0.4 12.8 2.3 11 21.4-2 21.4z"/>
				<path id="&lt;Path&gt;" class="s32" d="m1084 2645.5c0 0-169.3 321.1-196.2 394.4-26.9 73.3-36.4 134.5-36.7 140.3-0.6 9.1-11.8 17.7-42.9 17.7-16 0-23.8-6.4-27.7-12.6-3.2-5.3-3.4-11.9-0.7-17.5 9.8-19.8 40.9-83.2 52.4-111.9 13.8-34.3 43.3-189.7 59.5-243.7 16.2-54.1 34.6-112.7 105.2-166.7 0 0 48.4-47.4 87.1 0z"/>
				<path id="&lt;Path&gt;" class="s33" d="m1190.9 2119.4c43.7-185-67-289.7-67-289.7 69.8-67 197-97.5 197-97.5 0 0 121.4 88.7 107 158.2-8.5 40.7-85.3 243.8-85.3 243.8 0 0-71.1 33.6-151.7-14.8z"/>
				<path id="&lt;Path&gt;" class="s34" d="m1094.1 2211c17.7-53.6 96.8-91.6 96.8-91.6 80.6 48.4 151.7 14.8 151.7 14.8 0 0 15.9 60.9 4.9 117.5-11 56.6-80 420.5-80 420.5-108.8 22-276-22.2-276-22.2 69.2-123 84.8-385.5 102.6-439z"/>
				<path id="&lt;Path&gt;" class="s35" d="m1268.9 1596.5l29.5 13c8.1 3.6 12.8 12.1 11.6 20.9l-15.3 110.6c-0.2 2-0.7 4.1-1.8 6-10 18.1-40 27.1-63.2 31.5-14.2 2.7-27 5-23.6-9.1l35.5-159.5c2.9-12 16-18.5 27.3-13.4z"/>
				<path id="&lt;Path&gt;" class="s36" d="m1179.2 1890.1c2.9 5.8 1.7 12.8-3.1 17-129.1 113.1-97.6 213.2-80.9 247.2 3.3 6.7 11.9 8.6 17.7 4 9.2-7.2 22.2-6.6 30.7 1.3l30.7 64.9c1.7 3.5 1.4 7.7-0.6 11-2.7 4.3-8.4 5.3-12.3 2.2-12.3-9.5-36.5-27.8-44.7-30.3-16.2-4.8-24.5-14.1-24.5-14.1-216-186.3 31.7-363.6 31.7-363.6 25.4 8.4 46.2 43 55.3 60.4z"/>
				<g id="&lt;Group&gt;">
					<path id="&lt;Path&gt;" class="s37" d="m1309.6 1464.6c0 0 37.8 25.6 54 90.7 16.3 65.2-10.1 88.5-37.2 87.1-27-1.4-66.3-9.8-100.3-56.5-33.9-46.8 33.9-152.6 83.5-121.3z"/>
					<path id="&lt;Path&gt;" class="s38" d="m1255.1 1561.1c0 0-13.3-21.4-23.6-7.9-10.2 13.6 2.1 45.2 2.1 45.2 0 0-20.3 31.4-47.3-5.2-27-36.5-15.3-77.8 16.9-136.6 32.3-58.8 90.5-67.1 132.5-34.8 42 32.3 4 75 4 75l-15.6-16.3c-77.5-14.3-63.7 79.1-63.7 79.1z"/>
					<path id="&lt;Path&gt;" class="s39" d="m1240.7 1588.7c-13.4-10.6-46.8-41.7-22.2-55.4 24.5-13.8 31.3 34.3 31.3 34.3z"/>
				</g>
			</g>
			<g id="&lt;Group&gt;">
				<path id="&lt;Path&gt;" class="s2" d="m1814.4 1000.5c60.7-160.2 391-185.8 434.8 49.5 40 214.5-394.6 284-394.6 284 228-119.8-100.9-173.4-40.2-333.5z"/>
				<g id="&lt;Group&gt;">
					<path id="&lt;Path&gt;" class="s7" d="m2184.6 1036.5l-196.8-2.1c-1.4 0-2.5-1.2-2.5-2.6 0-1.5 1.2-2.6 2.6-2.6l196.8 2.1c1.4 0 2.6 1.2 2.6 2.7-0.1 1.4-1.2 2.6-2.7 2.5z"/>
					<path id="&lt;Path&gt;" class="s7" d="m1929.4 1033.8l-58.4-0.7c-1.4 0-2.6-1.2-2.5-2.6 0-1.4 1.1-2.6 2.6-2.6l58.4 0.7c1.4 0 2.6 1.2 2.6 2.6-0.1 1.4-1.2 2.6-2.7 2.6z"/>
					<path id="&lt;Path&gt;" class="s7" d="m2190.8 1076.5l-73.9-0.8c-1.4-0.1-2.6-1.2-2.5-2.7 0-1.4 1.2-2.6 2.6-2.6l73.9 0.8c1.4 0.1 2.6 1.2 2.6 2.7-0.1 1.4-1.2 2.6-2.7 2.6z"/>
					<path id="&lt;Path&gt;" class="s7" d="m2008.5 1074.5l-131.3-1.4c-1.4-0.1-2.6-1.2-2.6-2.7 0.1-1.4 1.2-2.6 2.7-2.6l131.3 1.5c1.4 0 2.6 1.2 2.6 2.6-0.1 1.4-1.2 2.6-2.7 2.6z"/>
					<path id="&lt;Path&gt;" class="s7" d="m2197 1116.4l-196.4-2.2c-1.4 0-2.6-1.2-2.6-2.6 0-1.4 1.2-2.6 2.7-2.6l196.4 2.2c1.4 0 2.6 1.1 2.6 2.6-0.1 1.4-1.2 2.6-2.7 2.6z"/>
					<path id="&lt;Path&gt;" class="s7" d="m1951.4 1113.7l-68-0.7c-1.4-0.1-2.6-1.2-2.6-2.7 0.1-1.4 1.2-2.6 2.7-2.6l68 0.8c1.4 0 2.6 1.2 2.6 2.6-0.1 1.5-1.2 2.6-2.7 2.6z"/>
				</g>
			</g>
			<g id="&lt;Group&gt;">
				<g id="&lt;Group&gt;">
					<path id="&lt;Path&gt;" class="s40" d="m3143.9 2186.5c0 162.8-132 294.9-294.9 294.9-162.9 0-294.9-132.1-294.9-294.9 0-162.9 132-294.9 294.9-294.9 162.9 0 294.9 132 294.9 294.9z"/>
					<path id="&lt;Path&gt;" class="s41" d="m3134.1 2186.5c0 157.4-127.6 285.1-285.1 285.1-157.4 0-285.1-127.7-285.1-285.1 0-157.5 127.7-285.1 285.1-285.1 157.5 0 285.1 127.6 285.1 285.1z"/>
					<path id="&lt;Path&gt;" class="s42" d="m2613.9 2074.6c-1 0-2-0.2-2.9-0.7-3.3-1.7-4.5-5.6-2.9-8.8 46.2-91.5 138.5-148.3 240.9-148.3 16.3 0 32.7 1.4 48.7 4.3 3.5 0.7 5.9 4.1 5.2 7.6-0.6 3.6-4 5.9-7.6 5.3-15.2-2.8-30.7-4.2-46.3-4.2-97.5 0-185.3 54.1-229.2 141.2-1.2 2.3-3.5 3.6-5.9 3.6z"/>
					<path id="&lt;Path&gt;" class="s42" d="m3096.5 2192.7c0 133.2-108 241.3-241.3 241.3-133.2 0-241.3-108.1-241.3-241.3 0-133.3 108.1-241.3 241.3-241.3 133.3 0 241.3 108 241.3 241.3z"/>
					<g id="&lt;Group&gt;">
						<path id="&lt;Compound Path&gt;" class="s43" d="m2831.5 2372.1v-26.3c-27.3-1.1-54.4-7.6-73.6-16-6.9-3-10.4-10.7-8.4-17.9l6.7-24.5c2.4-8.9 12.2-13.6 20.7-10 19.1 8 42.6 14.3 68 14.3 26.4 0 46.1-8.9 46.1-27.2 0-16.5-15.2-26.4-51.9-36.2-52.2-14.3-89.8-37.1-89.8-83.1 0-41.5 30.4-73.3 83.1-81.7v-26.3c0-8.4 6.9-15.3 15.3-15.3h15.5c8.4 0 15.2 6.9 15.2 15.3v23.6c25.4 1 43.8 5.3 58.4 10.5 7.5 2.6 11.6 10.7 9.5 18.3l-6.1 22.6c-2.4 8.8-11.7 13.5-20.1 10.3-13.5-5-32.5-10.4-57.3-10.4-31.3 0-40.2 13-40.2 24.6 0 14.3 18.8 24.1 59.4 36.7 58.1 17.4 82.2 41.5 82.2 84.8 0 39.8-29.5 75.5-86.6 84.5v29.4c0 8.4-6.9 15.3-15.3 15.3h-15.5c-8.4 0-15.3-6.9-15.3-15.3z"/>
					</g>
				</g>
				<path id="&lt;Path&gt;" class="s44" d="m3134.3 2667.9h-570.6c-2 0-3.6-1.6-3.6-3.6v-102.8c0-2.1 1.6-3.7 3.6-3.7h570.6c2 0 3.6 1.6 3.6 3.7v102.8c0 2-1.6 3.6-3.6 3.6z"/>
				<path id="&lt;Path&gt;" class="s45" d="m3134.7 2798.6h-570.5c-2 0-3.7-1.6-3.7-3.6v-102.8c0-2.1 1.7-3.7 3.7-3.7h570.5c2 0 3.7 1.6 3.7 3.7v102.8c0 2-1.7 3.6-3.7 3.6z"/>
				<path id="&lt;Path&gt;" class="s46" d="m3135.2 2929.3h-570.6c-2 0-3.6-1.6-3.6-3.6v-102.8c0-2.1 1.6-3.7 3.6-3.7h570.6c2 0 3.6 1.6 3.6 3.7v102.8c0 2-1.6 3.6-3.6 3.6z"/>
				<path id="&lt;Path&gt;" class="s47" d="m3135.6 3060h-570.5c-2 0-3.7-1.6-3.7-3.6v-102.8c0-2.1 1.7-3.7 3.7-3.7h570.5c2.1 0 3.7 1.6 3.7 3.7v102.8c0 2-1.6 3.6-3.7 3.6z"/>
				<path id="&lt;Path&gt;" class="s48" d="m3136.1 3190.7h-570.6c-2 0-3.6-1.6-3.6-3.6v-102.8c0-2.1 1.6-3.7 3.6-3.7h570.6c2 0 3.6 1.6 3.6 3.7v102.8c0 2-1.6 3.6-3.6 3.6z"/>
			</g>
			<g id="&lt;Group&gt;">
				<g id="&lt;Group&gt;">
					<path id="&lt;Path&gt;" class="s49" d="m2497.3 2471.6c0 162.8-132 294.8-294.9 294.8-162.8 0-294.9-132-294.9-294.8 0-162.9 132.1-294.9 294.9-294.9 162.9 0 294.9 132 294.9 294.9z"/>
					<path id="&lt;Path&gt;" class="s50" d="m2487.5 2471.6c0 157.4-127.6 285-285.1 285-157.4 0-285-127.6-285-285 0-157.5 127.6-285.1 285-285.1 157.5 0 285.1 127.6 285.1 285.1z"/>
					<path id="&lt;Path&gt;" class="s42" d="m1967.4 2359.7c-1 0-2-0.3-3-0.7-3.2-1.7-4.5-5.6-2.9-8.8 46.2-91.5 138.5-148.4 240.9-148.4 16.4 0 32.8 1.5 48.7 4.4 3.5 0.7 5.9 4.1 5.3 7.6-0.7 3.6-4.1 5.9-7.7 5.3-15.1-2.8-30.7-4.2-46.3-4.2-97.4 0-185.3 54.1-229.2 141.2-1.2 2.3-3.5 3.6-5.8 3.6z"/>
					<path id="&lt;Path&gt;" class="s42" d="m2449.9 2477.8c0 133.2-108 241.3-241.2 241.3-133.3 0-241.3-108.1-241.3-241.3 0-133.3 108-241.3 241.3-241.3 133.2 0 241.2 108 241.2 241.3z"/>
					<g id="&lt;Group&gt;">
						<path id="&lt;Compound Path&gt;" class="s51" d="m2185 2657.1v-26.2c-27.4-1.1-54.5-7.6-73.7-16-6.8-3-10.3-10.7-8.4-17.9l6.7-24.5c2.4-8.9 12.2-13.6 20.8-10 19 8 42.6 14.3 68 14.3 26.3 0 46-8.9 46-27.2 0-16.5-15.2-26.4-51.8-36.2-52.3-14.3-89.8-37.1-89.8-83.1 0-41.6 30.4-73.3 83.1-81.8v-26.2c0-8.5 6.8-15.3 15.3-15.3h15.4c8.4 0 15.3 6.8 15.3 15.3v23.6c25.3 1 43.7 5.3 58.4 10.4 7.5 2.7 11.6 10.8 9.5 18.4l-6.2 22.6c-2.3 8.8-11.6 13.5-20.1 10.3-13.5-5.1-32.5-10.4-57.3-10.4-31.2 0-40.2 13-40.2 24.6 0 14.3 18.8 24.1 59.5 36.6 58 17.5 82.2 41.6 82.2 84.9 0 39.8-29.5 75.5-86.7 84.5v29.3c0 8.5-6.9 15.3-15.3 15.3h-15.4c-8.5 0-15.3-6.8-15.3-15.3z"/>
					</g>
				</g>
				<path id="&lt;Path&gt;" class="s52" d="m2508.8 2929.3h-570.6c-2 0-3.6-1.6-3.6-3.6v-102.8c0-2.1 1.6-3.7 3.6-3.7h570.6c2 0 3.6 1.6 3.6 3.7v102.8c0 2-1.6 3.6-3.6 3.6z"/>
				<path id="&lt;Path&gt;" class="s53" d="m2509.2 3060h-570.6c-2 0-3.6-1.6-3.6-3.6v-102.8c0-2.1 1.6-3.7 3.6-3.7h570.6c2 0 3.6 1.6 3.6 3.7v102.8c0 2-1.6 3.6-3.6 3.6z"/>
				<path id="&lt;Path&gt;" class="s54" d="m2509.7 3190.7h-570.6c-2 0-3.6-1.6-3.6-3.6v-102.8c0-2.1 1.6-3.7 3.6-3.7h570.6c2 0 3.6 1.6 3.6 3.7v102.8c0 2-1.6 3.6-3.6 3.6z"/>
			</g>
		</g>
	</g>
</svg>