<svg version="1.2" xmlns="http://www.w3.org/2000/svg" viewBox="0 0 3710 3710" width="3710" height="3710">
	<title>11669640_20943849-ai</title>
	<defs>
		<linearGradient id="g1" x1="2504.2" y1="4229.3" x2="572.3" y2="2538.9" gradientUnits="userSpaceOnUse">
			<stop offset="0" stop-color="#dae3fe"/>
			<stop offset="1" stop-color="#e9effd"/>
		</linearGradient>
		<linearGradient id="g2" x1="1814.2" y1="800.6" x2="1945.6" y2="800.6" gradientUnits="userSpaceOnUse">
			<stop offset="0" stop-color="#dae3fe"/>
			<stop offset="1" stop-color="#e9effd"/>
		</linearGradient>
		<linearGradient id="g3" x1="1714.3" y1="700" x2="2046.8" y2="700" gradientUnits="userSpaceOnUse">
			<stop offset="0" stop-color="#dae3fe"/>
			<stop offset="1" stop-color="#e9effd"/>
		</linearGradient>
		<linearGradient id="g4" x1="1343.7" y1="1024.7" x2="1434.2" y2="1024.7" gradientUnits="userSpaceOnUse">
			<stop offset="0" stop-color="#dae3fe"/>
			<stop offset="1" stop-color="#e9effd"/>
		</linearGradient>
		<linearGradient id="g5" x1="1274.1" y1="954.7" x2="1503.6" y2="954.7" gradientUnits="userSpaceOnUse">
			<stop offset="0" stop-color="#dae3fe"/>
			<stop offset="1" stop-color="#e9effd"/>
		</linearGradient>
		<linearGradient id="g6" x1="2341.7" y1="2256.4" x2="2321.5" y2="3571.6" gradientUnits="userSpaceOnUse">
			<stop offset="0" stop-color="#09005d"/>
			<stop offset="1" stop-color="#1a0f91"/>
		</linearGradient>
		<linearGradient id="g7" x1="3246" y1="611.5" x2="3252.7" y2="2671.4" gradientUnits="userSpaceOnUse">
			<stop offset="0" stop-color="#09005d"/>
			<stop offset="1" stop-color="#1a0f91"/>
		</linearGradient>
		<linearGradient id="g8" x1="1219.9" y1="400.7" x2="2068.5" y2="-1027.1" gradientUnits="userSpaceOnUse">
			<stop offset="0" stop-color="#4f52ff"/>
			<stop offset="1" stop-color="#4042e2"/>
		</linearGradient>
		<linearGradient id="g9" x1="1465" y1="3206.6" x2="1465" y2="3052.1" gradientUnits="userSpaceOnUse">
			<stop offset="0" stop-color="#09005d"/>
			<stop offset="1" stop-color="#1a0f91"/>
		</linearGradient>
		<linearGradient id="g10" x1="1282.5" y1="2908" x2="2199.8" y2="1518.6" gradientUnits="userSpaceOnUse">
			<stop offset="0" stop-color="#ff928e"/>
			<stop offset="1" stop-color="#fe7062"/>
		</linearGradient>
		<linearGradient id="g11" x1="1438.1" y1="3010.7" x2="2355.3" y2="1621.3" gradientUnits="userSpaceOnUse">
			<stop offset="0" stop-color="#ff928e"/>
			<stop offset="1" stop-color="#fe7062"/>
		</linearGradient>
		<linearGradient id="g12" x1="1293.2" y1="2915.1" x2="2210.5" y2="1525.7" gradientUnits="userSpaceOnUse">
			<stop offset="0" stop-color="#ff928e"/>
			<stop offset="1" stop-color="#fe7062"/>
		</linearGradient>
		<linearGradient id="g13" x1="1650.3" y1="3150.8" x2="2567.6" y2="1761.4" gradientUnits="userSpaceOnUse">
			<stop offset="0" stop-color="#ff928e"/>
			<stop offset="1" stop-color="#fe7062"/>
		</linearGradient>
		<linearGradient id="g14" x1="1482" y1="3039.7" x2="2399.3" y2="1650.3" gradientUnits="userSpaceOnUse">
			<stop offset="0" stop-color="#ff928e"/>
			<stop offset="1" stop-color="#fe7062"/>
		</linearGradient>
		<linearGradient id="g15" x1="1607.9" y1="3122.8" x2="2525.2" y2="1733.4" gradientUnits="userSpaceOnUse">
			<stop offset="0" stop-color="#ff928e"/>
			<stop offset="1" stop-color="#fe7062"/>
		</linearGradient>
		<linearGradient id="g16" x1="1738.7" y1="3209.2" x2="2656" y2="1819.8" gradientUnits="userSpaceOnUse">
			<stop offset="0" stop-color="#ff928e"/>
			<stop offset="1" stop-color="#fe7062"/>
		</linearGradient>
		<linearGradient id="g17" x1="1085.5" y1="2007.9" x2="975.9" y2="2339.3" gradientUnits="userSpaceOnUse">
			<stop offset="0" stop-color="#fdf53f"/>
			<stop offset="1" stop-color="#d93c65"/>
		</linearGradient>
		<linearGradient id="g18" x1="1153.2" y1="2137.5" x2="1081" y2="2355.8" gradientUnits="userSpaceOnUse">
			<stop offset="0" stop-color="#4f52ff"/>
			<stop offset="1" stop-color="#4042e2"/>
		</linearGradient>
		<linearGradient id="g19" x1="1269.2" y1="2018.4" x2="1197" y2="2236.7" gradientUnits="userSpaceOnUse">
			<stop offset="0" stop-color="#4f52ff"/>
			<stop offset="1" stop-color="#4042e2"/>
		</linearGradient>
		<linearGradient id="g20" x1="1386.3" y1="2141.3" x2="1314.1" y2="2359.6" gradientUnits="userSpaceOnUse">
			<stop offset="0" stop-color="#4f52ff"/>
			<stop offset="1" stop-color="#4042e2"/>
		</linearGradient>
		<linearGradient id="g21" x1="1556.8" y1="1958.2" x2="1484.6" y2="2176.5" gradientUnits="userSpaceOnUse">
			<stop offset="0" stop-color="#4f52ff"/>
			<stop offset="1" stop-color="#4042e2"/>
		</linearGradient>
		<linearGradient id="g22" x1="1678" y1="2080.4" x2="1605.8" y2="2298.7" gradientUnits="userSpaceOnUse">
			<stop offset="0" stop-color="#ff928e"/>
			<stop offset="1" stop-color="#fe7062"/>
		</linearGradient>
		<linearGradient id="g23" x1="3103.9" y1="1812.2" x2="2695.1" y2="2200.2" gradientUnits="userSpaceOnUse">
			<stop offset="0" stop-color="#ff928e"/>
			<stop offset="1" stop-color="#fe7062"/>
		</linearGradient>
		<linearGradient id="g24" x1="3069.3" y1="1450.9" x2="2706.4" y2="1795.4" gradientUnits="userSpaceOnUse">
			<stop offset="0" stop-color="#ff928e"/>
			<stop offset="1" stop-color="#fe7062"/>
		</linearGradient>
		<linearGradient id="g25" x1="3076.3" y1="2207.3" x2="2713.3" y2="2551.7" gradientUnits="userSpaceOnUse">
			<stop offset="0" stop-color="#ff928e"/>
			<stop offset="1" stop-color="#fe7062"/>
		</linearGradient>
		<linearGradient id="g26" x1="2027.5" y1="650.7" x2="3144.4" y2="650.7" gradientUnits="userSpaceOnUse">
			<stop offset="0" stop-color="#dae3fe"/>
			<stop offset="1" stop-color="#e9effd"/>
		</linearGradient>
		<linearGradient id="g27" x1="750.6" y1="1141.2" x2="1827.3" y2="1141.2" gradientUnits="userSpaceOnUse">
			<stop offset="0" stop-color="#dae3fe"/>
			<stop offset="1" stop-color="#e9effd"/>
		</linearGradient>
		<linearGradient id="g28" x1="1163.9" y1="1237.2" x2="777.8" y2="1603.6" gradientUnits="userSpaceOnUse">
			<stop offset="0" stop-color="#ff928e"/>
			<stop offset="1" stop-color="#fe7062"/>
		</linearGradient>
		<linearGradient id="g29" x1="1406" y1="1251.9" x2="1063.2" y2="1577.2" gradientUnits="userSpaceOnUse">
			<stop offset="0" stop-color="#ff928e"/>
			<stop offset="1" stop-color="#fe7062"/>
		</linearGradient>
		<linearGradient id="g30" x1="1687" y1="1256.1" x2="1344.2" y2="1581.4" gradientUnits="userSpaceOnUse">
			<stop offset="0" stop-color="#ff928e"/>
			<stop offset="1" stop-color="#fe7062"/>
		</linearGradient>
		<linearGradient id="g31" x1="1172.8" y1="3177.2" x2="584.7" y2="3816.8" gradientUnits="userSpaceOnUse">
			<stop offset="0" stop-color="#4f52ff"/>
			<stop offset="1" stop-color="#4042e2"/>
		</linearGradient>
		<linearGradient id="g32" x1="901.3" y1="3123" x2="954.2" y2="3123" gradientUnits="userSpaceOnUse">
			<stop offset="0" stop-color="#febbba"/>
			<stop offset="1" stop-color="#ff928e"/>
		</linearGradient>
		<linearGradient id="g33" x1="782" y1="2344.8" x2="950.1" y2="2344.8" gradientUnits="userSpaceOnUse">
			<stop offset="0" stop-color="#e1473d"/>
			<stop offset="1" stop-color="#e9605a"/>
		</linearGradient>
		<linearGradient id="g34" x1="1001.2" y1="3017.1" x2="406.9" y2="3663.5" gradientUnits="userSpaceOnUse">
			<stop offset="0" stop-color="#4f52ff"/>
			<stop offset="1" stop-color="#4042e2"/>
		</linearGradient>
		<linearGradient id="g35" x1="710.8" y1="3111.9" x2="756.4" y2="3111.9" gradientUnits="userSpaceOnUse">
			<stop offset="0" stop-color="#febbba"/>
			<stop offset="1" stop-color="#ff928e"/>
		</linearGradient>
		<linearGradient id="g36" x1="687.3" y1="2331.4" x2="909.7" y2="2331.4" gradientUnits="userSpaceOnUse">
			<stop offset="0" stop-color="#e1473d"/>
			<stop offset="1" stop-color="#e9605a"/>
		</linearGradient>
		<linearGradient id="g37" x1="351.9" y1="2122.5" x2="902.8" y2="1714.3" gradientUnits="userSpaceOnUse">
			<stop offset="0" stop-color="#ff928e"/>
			<stop offset="1" stop-color="#fe7062"/>
		</linearGradient>
		<linearGradient id="g38" x1="1118.8" y1="1611.9" x2="1388.9" y2="1611.9" gradientUnits="userSpaceOnUse">
			<stop offset="0" stop-color="#febbba"/>
			<stop offset="1" stop-color="#ff928e"/>
		</linearGradient>
		<linearGradient id="g39" x1="1303.8" y1="1702" x2="1129.8" y2="2098" gradientUnits="userSpaceOnUse">
			<stop offset="0" stop-color="#febbba"/>
			<stop offset="1" stop-color="#ff928e"/>
		</linearGradient>
		<linearGradient id="g40" x1="1371" y1="1575.3" x2="1441.9" y2="1466.3" gradientUnits="userSpaceOnUse">
			<stop offset="0" stop-color="#febbba"/>
			<stop offset="1" stop-color="#ff928e"/>
		</linearGradient>
		<linearGradient id="g41" x1="314.4" y1="2129.3" x2="887.7" y2="1704.3" gradientUnits="userSpaceOnUse">
			<stop offset="0" stop-color="#ff928e"/>
			<stop offset="1" stop-color="#fe7062"/>
		</linearGradient>
		<linearGradient id="g42" x1="531.3" y1="2066.4" x2="869.7" y2="2066.4" gradientUnits="userSpaceOnUse">
			<stop offset="0" stop-color="#febbba"/>
			<stop offset="1" stop-color="#ff928e"/>
		</linearGradient>
		<linearGradient id="g43" x1="1928.1" y1="1678.7" x2="1399.4" y2="2013.3" gradientUnits="userSpaceOnUse">
			<stop offset="0" stop-color="#09005d"/>
			<stop offset="1" stop-color="#1a0f91"/>
		</linearGradient>
		<linearGradient id="g44" x1="1122.1" y1="1799.1" x2="1083.1" y2="1970.7" gradientUnits="userSpaceOnUse">
			<stop offset="0" stop-color="#4f52ff"/>
			<stop offset="1" stop-color="#4042e2"/>
		</linearGradient>
		<linearGradient id="g45" x1="1133.1" y1="1873.9" x2="1114.1" y2="1987.5" gradientUnits="userSpaceOnUse">
			<stop offset="0" stop-color="#4f52ff"/>
			<stop offset="1" stop-color="#4042e2"/>
		</linearGradient>
		<linearGradient id="g46" x1="847.6" y1="2069.5" x2="950.7" y2="2069.5" gradientUnits="userSpaceOnUse">
			<stop offset="0" stop-color="#febbba"/>
			<stop offset="1" stop-color="#ff928e"/>
		</linearGradient>
		<linearGradient id="g47" x1="790.8" y1="1714.9" x2="925.4" y2="1714.9" gradientUnits="userSpaceOnUse">
			<stop offset="0" stop-color="#febbba"/>
			<stop offset="1" stop-color="#ff928e"/>
		</linearGradient>
		<linearGradient id="g48" x1="913" y1="1761.9" x2="769.7" y2="1674.5" gradientUnits="userSpaceOnUse">
			<stop offset="0" stop-color="#febbba"/>
			<stop offset="1" stop-color="#ff928e"/>
		</linearGradient>
		<linearGradient id="g49" x1="819.1" y1="1440.8" x2="1003.5" y2="1586.5" gradientUnits="userSpaceOnUse">
			<stop offset="0" stop-color="#09005d"/>
			<stop offset="1" stop-color="#1a0f91"/>
		</linearGradient>
		<linearGradient id="g50" x1="904.7" y1="1749.6" x2="777.4" y2="1671.9" gradientUnits="userSpaceOnUse">
			<stop offset="0" stop-color="#febbba"/>
			<stop offset="1" stop-color="#ff928e"/>
		</linearGradient>
	</defs>
	<style>
		.s0 { fill: url(#g1) } 
		.s1 { fill: #bdd0fb } 
		.s2 { fill: url(#g2) } 
		.s3 { fill: url(#g3) } 
		.s4 { fill: url(#g4) } 
		.s5 { fill: url(#g5) } 
		.s6 { fill: url(#g6) } 
		.s7 { fill: url(#g7) } 
		.s8 { fill: url(#g8) } 
		.s9 { fill: #91b3fa } 
		.s10 { fill: url(#g9) } 
		.s11 { fill: url(#g10) } 
		.s12 { fill: url(#g11) } 
		.s13 { fill: url(#g12) } 
		.s14 { fill: url(#g13) } 
		.s15 { fill: url(#g14) } 
		.s16 { fill: url(#g15) } 
		.s17 { fill: url(#g16) } 
		.s18 { opacity: .4;fill: #ffffff } 
		.s19 { fill: #ffffff } 
		.s20 { fill: url(#g17) } 
		.s21 { fill: url(#g18) } 
		.s22 { fill: url(#g19) } 
		.s23 { fill: url(#g20) } 
		.s24 { fill: url(#g21) } 
		.s25 { fill: url(#g22) } 
		.s26 { opacity: .9;fill: #ffffff } 
		.s27 { fill: url(#g23) } 
		.s28 { fill: url(#g24) } 
		.s29 { fill: url(#g25) } 
		.s30 { fill: url(#g26) } 
		.s31 { fill: url(#g27) } 
		.s32 { fill: url(#g28) } 
		.s33 { fill: url(#g29) } 
		.s34 { fill: url(#g30) } 
		.s35 { opacity: .5;fill: #ffffff } 
		.s36 { fill: url(#g31) } 
		.s37 { fill: url(#g32) } 
		.s38 { fill: url(#g33) } 
		.s39 { fill: url(#g34) } 
		.s40 { fill: url(#g35) } 
		.s41 { fill: url(#g36) } 
		.s42 { fill: url(#g37) } 
		.s43 { fill: url(#g38) } 
		.s44 { fill: url(#g39) } 
		.s45 { fill: url(#g40) } 
		.s46 { fill: url(#g41) } 
		.s47 { fill: url(#g42) } 
		.s48 { fill: url(#g43) } 
		.s49 { fill: url(#g44) } 
		.s50 { fill: url(#g45) } 
		.s51 { fill: url(#g46) } 
		.s52 { fill: url(#g47) } 
		.s53 { fill: url(#g48) } 
		.s54 { fill: url(#g49) } 
		.s55 { fill: url(#g50) } 
	</style>
	<g id="Illustration">
		<g id="&lt;Group&gt;">
			<path id="&lt;Path&gt;" class="s0" d="m3112.3 2341c-268.3 631.8-983.1 985.7-1602.9 890.3-100.9-15.6-377.4-61.9-622.2-280.2-471.3-420.3-572.1-1252.5-191.9-1838.9 276.7-426.9 772.7-668.9 1244-656.8 101.5 2.6 490.6 18.7 832.5 300.6 50.2 41.5 161 139.9 260.8 296 234.4 366.5 254.6 877.3 79.7 1289z"/>
			<g id="&lt;Group&gt;">
				<g id="&lt;Group&gt;">
					<g id="&lt;Group&gt;" style="opacity: .3">
						<path id="&lt;Compound Path&gt;" class="s1" d="m1491.1 898.6c-5-0.4-9.1-4.5-9.3-9.6-0.4-11.3-0.3-22.7 0.2-34 0.3-5.5 5-9.7 10.5-9.4q0 0 0.1 0c5.4 0.3 9.6 5 9.3 10.4-0.5 10.7-0.6 21.6-0.2 32.3 0.2 5.5-4.1 10.1-9.6 10.3q-0.5 0-1 0zm6.5-86.6q-0.6 0-1.2-0.1c-5.4-1-9-6.2-7.9-11.6 2-11.2 4.6-22.3 7.6-33.1 1.5-5.3 7-8.4 12.3-7 5.3 1.5 8.4 7 6.9 12.3-2.8 10.3-5.3 20.9-7.3 31.4-0.9 5-5.4 8.5-10.4 8.1zm25.4-82.9q-1.7-0.1-3.3-0.8c-5.1-2.2-7.4-8.1-5.2-13.1 4.5-10.4 9.5-20.6 14.9-30.6 2.6-4.8 8.7-6.6 13.5-4 4.8 2.6 6.6 8.7 4 13.5-5.1 9.4-9.8 19.2-14.1 29-1.7 4-5.7 6.3-9.8 6zm43.3-75.2c-1.8-0.1-3.6-0.8-5.2-1.9-4.4-3.3-5.4-9.5-2.1-14 6.7-9 13.8-17.9 21.3-26.4 3.6-4.1 9.9-4.5 14-0.9 4.2 3.6 4.6 9.9 0.9 14-7 8.1-13.8 16.5-20.2 25.2-2.1 2.8-5.4 4.2-8.7 4zm59-63.7c-2.6-0.1-5.1-1.3-6.9-3.4-3.6-4.2-3.1-10.5 1.1-14 8.5-7.4 17.5-14.5 26.6-21.1 4.5-3.2 10.7-2.2 13.9 2.2 3.2 4.5 2.2 10.7-2.2 13.9-8.7 6.3-17.2 13.1-25.3 20-2.1 1.8-4.7 2.6-7.2 2.4zm71.6-49c-3.3-0.2-6.4-2.1-8.1-5.2-2.6-4.9-0.8-10.9 4.1-13.5 9.9-5.3 20.3-10.2 30.6-14.7 5.1-2.1 10.9 0.2 13.1 5.3 2.2 5-0.2 10.9-5.2 13.1-9.9 4.2-19.7 8.9-29.2 13.9-1.7 0.9-3.5 1.3-5.3 1.1zm365.8 1.1c-1.4-0.1-2.8-0.5-4.1-1.2-9.4-5.1-19.2-9.8-29-14.1-5.1-2.2-7.4-8-5.2-13.1 2.2-5 8-7.4 13.1-5.2 10.4 4.5 20.6 9.5 30.6 14.8 4.8 2.7 6.6 8.7 4 13.5-1.9 3.6-5.7 5.5-9.4 5.3zm-285.2-33c-4.1-0.3-7.8-3.1-8.9-7.3-1.4-5.3 1.7-10.8 7-12.2 10.9-3 22-5.5 33.1-7.5 5.4-0.9 10.6 2.6 11.6 8 1 5.5-2.6 10.6-8 11.6-10.6 1.9-21.2 4.3-31.5 7.1q-1.6 0.4-3.3 0.3zm204.6 0.7q-1-0.1-2-0.4c-10.3-2.8-20.9-5.2-31.4-7.2-5.4-1-9-6.2-8-11.6 1-5.4 6.2-9 11.6-8 11.1 2.1 22.3 4.6 33.1 7.6 5.3 1.5 8.4 7 7 12.3-1.3 4.6-5.7 7.6-10.3 7.3zm-118.8-13.8c-5-0.3-9.1-4.4-9.3-9.5-0.2-5.5 4.1-10.1 9.6-10.4 11.2-0.4 22.7-0.3 33.9 0.2q0.1 0 0.2 0c5.4 0.4 9.6 5 9.3 10.4-0.2 5.5-4.9 9.7-10.4 9.5-10.7-0.5-21.6-0.6-32.3-0.1q-0.5 0-1-0.1z"/>
						<path id="&lt;Path&gt;" class="s1" d="m2121 580.9c-2-0.2-3.9-0.9-5.6-2.2-4-3.2-8.1-6.4-12.3-9.5-4.4-3.2-5.4-9.5-2.1-13.9 3.3-4.4 9.5-5.4 13.9-2.1 4.4 3.2 8.8 6.6 13 9.9 4.3 3.5 5 9.8 1.5 14-2.1 2.7-5.3 4-8.4 3.8z"/>
					</g>
					<g id="&lt;Group&gt;" style="opacity: .3">
						<path id="&lt;Path&gt;" class="s1" d="m2265 848.2c-4.8-0.3-8.7-4.1-9.2-9-0.5-5.2-1-10.4-1.7-15.5-0.7-5.4 3.1-10.4 8.5-11.2 5.5-0.7 10.5 3.1 11.2 8.6 0.7 5.4 1.4 10.9 1.8 16.2 0.5 5.5-3.5 10.4-9 10.9q-0.8 0-1.6 0z"/>
						<path id="&lt;Compound Path&gt;" class="s1" d="m1852.9 1270.9q-6.9-0.5-13.7-1.2c-5.5-0.6-9.5-5.4-8.9-10.9 0.5-5.5 5.4-9.5 10.9-8.9 10.6 1.1 21.2 1.7 31.7 1.9 5.5 0.1 9.8 4.6 9.7 10.1-0.1 5.5-4.6 9.9-10.1 9.8-6.5-0.1-13.1-0.4-19.6-0.8zm-65.6-10.1q-0.8 0-1.7-0.2c-10.8-2.6-21.6-5.7-32.1-9.2-5.2-1.8-8-7.4-6.3-12.6 1.7-5.2 7.4-8.1 12.6-6.3 10 3.3 20.3 6.2 30.5 8.7 5.4 1.3 8.7 6.7 7.4 12-1.2 4.8-5.6 7.9-10.4 7.6zm137.5 8.3c-4.6-0.4-8.6-4-9.2-8.8-0.6-5.5 3.3-10.4 8.8-11.1 10.4-1.2 20.9-2.9 31.3-5 5.4-1.1 10.6 2.3 11.7 7.7 1.2 5.4-2.3 10.7-7.7 11.8-10.9 2.2-22 4-33 5.3q-0.9 0.1-1.9 0.1zm-217.8-37.3c-1.2-0.1-2.5-0.5-3.7-1.1-10-4.9-19.8-10.3-29.3-16-4.7-2.8-6.3-9-3.4-13.7 2.8-4.7 8.9-6.2 13.7-3.4 9 5.5 18.3 10.6 27.8 15.3 4.9 2.4 7 8.4 4.5 13.3-1.8 3.7-5.7 5.8-9.6 5.6zm301 17.9c-3.9-0.3-7.4-2.8-8.8-6.7-1.8-5.1 0.9-10.8 6.1-12.7 9.9-3.5 19.8-7.5 29.4-11.8 5.1-2.3 11-0.1 13.2 5 2.3 5 0.1 10.9-5 13.1-10.1 4.6-20.5 8.8-31 12.5-1.3 0.5-2.6 0.6-3.9 0.6zm76.8-37.2c-3.1-0.2-6-1.8-7.8-4.7-2.9-4.6-1.5-10.8 3.2-13.7 8.9-5.6 17.7-11.6 26.1-18 4.4-3.3 10.7-2.4 14 2 3.3 4.4 2.4 10.7-2 14-8.9 6.6-18.1 13-27.6 18.9-1.8 1.1-3.9 1.6-5.9 1.5zm66.9-53c-2.3-0.2-4.6-1.2-6.4-3-3.9-3.9-3.8-10.2 0.1-14.1 7.5-7.4 14.7-15.2 21.6-23.2 3.6-4.2 9.8-4.7 14-1.1 4.2 3.6 4.7 9.8 1.1 14-7.2 8.4-14.8 16.7-22.7 24.5-2.1 2.1-5 3-7.7 2.9zm53.7-66.4c-1.6-0.1-3.2-0.6-4.7-1.6-4.6-2.9-5.9-9.1-3-13.7 5.7-8.9 11.1-18.1 16-27.4 2.6-4.9 8.6-6.8 13.5-4.2 4.9 2.6 6.7 8.6 4.1 13.5-5.1 9.8-10.8 19.5-16.8 28.8-2 3.2-5.6 4.8-9.1 4.6zm37.9-76.6q-1.4-0.1-2.7-0.6c-5.2-1.8-7.9-7.5-6-12.7 3.6-9.9 6.8-20.1 9.6-30.3 1.4-5.3 6.9-8.4 12.2-7 5.3 1.4 8.4 6.9 7 12.2-2.9 10.7-6.3 21.5-10.1 31.9-1.5 4.2-5.7 6.8-10 6.5zm20.1-82.9q-0.3-0.1-0.6-0.1c-5.4-0.7-9.3-5.7-8.6-11.2 1-7.7 1.8-15.5 2.3-23.2q0.3-4.2 0.5-8.4c0.2-5.5 4.9-9.7 10.4-9.5 5.6 0.2 9.7 4.9 9.5 10.4q-0.2 4.4-0.5 8.8c-0.6 8.2-1.4 16.4-2.4 24.5-0.7 5.3-5.4 9-10.6 8.7z"/>
						<path id="&lt;Path&gt;" class="s1" d="m1634.9 1185.6c-2-0.2-3.9-0.9-5.6-2.2-4.2-3.4-8.4-7-12.5-10.6-4.1-3.6-4.5-9.9-0.9-14 3.7-4.2 10-4.6 14.1-0.9 3.9 3.4 7.9 6.8 11.8 10 4.3 3.4 5 9.7 1.5 14-2.1 2.6-5.3 3.9-8.4 3.7z"/>
					</g>
					<g id="&lt;Group&gt;">
						<path id="&lt;Compound Path&gt;" class="s1" d="m1616.8 1015.8c-1.1-1.7-1.1-3.8 0-5.4l33-46.1c-9.9-24.5-16.1-50.8-17.8-78l-49.6-27.1c-1.8-1-2.7-2.9-2.4-4.9l11.4-67c0.4-2 1.9-3.5 3.8-3.8l55.9-9.2c10.6-25.1 25.1-47.9 42.6-67.7l-15.9-54.4c-0.6-1.9 0.1-3.9 1.8-5.1l55.4-39.3c1.6-1.1 3.8-1.1 5.4 0l46.1 33c24.5-9.9 50.7-16.1 77.9-17.8l27.2-49.6c1-1.8 2.9-2.7 4.9-2.4l67 11.4c1.9 0.3 3.5 1.9 3.8 3.8l9.2 55.9c25.1 10.6 47.8 25.1 67.7 42.6l54.3-15.9c2-0.6 4 0.1 5.2 1.8l39.3 55.4c1.1 1.6 1.1 3.8-0.1 5.4l-33 46.1c10 24.5 16.2 50.7 17.8 77.9l49.7 27.2c1.7 1 2.7 2.9 2.4 4.9l-11.4 67c-0.4 1.9-1.9 3.5-3.9 3.8l-55.8 9.2c-10.6 25.1-25.1 47.8-42.6 67.7l15.9 54.3c0.5 2-0.2 4-1.8 5.2l-55.4 39.3c-1.7 1.1-3.8 1.1-5.4-0.1l-46.1-33c-24.5 10-50.8 16.2-78 17.8l-27.1 49.7c-1 1.7-2.9 2.7-4.9 2.4l-67-11.5c-2-0.3-3.5-1.8-3.8-3.8l-9.2-55.9c-25.1-10.5-47.9-25-67.7-42.5l-54.4 15.9c-1.9 0.5-3.9-0.2-5.1-1.8z"/>
						<path id="&lt;Compound Path&gt;" fill-rule="evenodd" class="s2" d="m1875.2 939c-33.2-2.2-60.7-28.6-63.4-62.7-3-37.6 25.2-70.6 62.7-73.5 18.2-1.5 35.9 4.3 49.7 16.1 13.9 11.9 22.4 28.4 23.8 46.6 2.9 37.6-25.2 70.5-62.7 73.5q-5.1 0.4-10.1 0zm8.3-120.4q-3.8-0.2-7.7 0.1c-28.8 2.2-50.4 27.5-48.1 56.3 2.2 28.8 27.5 50.4 56.3 48.1 28.8-2.3 50.4-27.5 48.1-56.3-1.1-14-7.6-26.7-18.2-35.7-8.7-7.4-19.2-11.7-30.4-12.5z"/>
						<path id="&lt;Path&gt;" class="s3" d="m1869.9 1037.6q-8.5-0.6-17.1-2.1-2.7-0.4-5.4-1c-8.8-1.8-17.5-4.2-25.8-7.4q-0.2-0.1-0.4-0.1-0.5-0.2-0.9-0.4-1-0.4-1.9-0.7c-1.7-0.7-2.6-2.3-2.5-4q0-0.6 0.3-1.2c0.8-2.1 3.1-3.1 5.1-2.2 10.5 4.2 21.6 7.3 32.8 9.2 55.9 9.5 110.1-11.3 145.6-50.5 19.8-21.8 33.7-49.3 39-80.4q1.4-8.2 2-16.3c2.4-36.7-7.7-72.7-29.2-103.1-24.7-34.9-61.5-58-103.7-65.2-87-14.8-169.7 43.9-184.5 130.9q-1.4 8-2 16.1c-1.5 23.4 2 46.9 10.5 68.7q0.3 0.9 0.3 1.7c-0.1 1.5-1.1 2.9-2.5 3.5-2.1 0.8-4.4-0.3-5.2-2.3-8.9-22.9-12.7-47.6-11-72.1q0.6-8.5 2-16.9c15.5-91.4 102.5-153 193.8-137.4 44.2 7.5 82.9 31.8 108.8 68.4 22.6 31.9 33.2 69.7 30.6 108.2q-0.6 8.6-2 17.1c-7.5 44.3-31.9 82.9-68.5 108.9-31.8 22.6-69.7 33.2-108.2 30.6z"/>
					</g>
				</g>
				<g id="&lt;Group&gt;">
					<g id="&lt;Group&gt;" style="opacity: .3">
						<path id="&lt;Path&gt;" class="s1" d="m1134.2 1137.5c-2.6-0.2-5-2.1-5.6-4.9-1.1-5.1-2.1-10.3-2.9-15.4-0.6-3.4 1.7-6.5 5.1-7.1 3.3-0.5 6.5 1.8 7 5.1 0.8 5 1.8 9.9 2.8 14.8 0.8 3.3-1.3 6.6-4.6 7.3q-0.9 0.2-1.8 0.2z"/>
						<path id="&lt;Compound Path&gt;" class="s1" d="m1128.3 1090.5c-3.1-0.2-5.7-2.7-5.8-5.9-0.3-9-0.1-18.1 0.5-27.1q0.2-2.8 0.4-5.7c0.3-3.3 3.5-5.7 6.7-5.5 3.4 0.3 5.9 3.2 5.6 6.6q-0.2 2.7-0.4 5.5c-0.6 8.5-0.8 17.2-0.5 25.8 0.2 3.4-2.5 6.2-5.9 6.3q-0.3 0-0.6 0zm5.6-63.6q-0.4 0-0.8-0.1c-3.4-0.7-5.5-4-4.8-7.3 2.3-10.7 5.3-21.3 8.8-31.6 1.1-3.2 4.6-4.9 7.8-3.8 3.3 1.1 5 4.6 3.8 7.8-3.4 9.8-6.2 20-8.3 30.1-0.7 3.1-3.5 5.1-6.5 4.9zm21-60.4q-1.2 0-2.3-0.6c-3.1-1.5-4.3-5.2-2.8-8.2 4.8-9.8 10.3-19.4 16.2-28.5 1.9-2.8 5.7-3.6 8.6-1.7 2.8 1.9 3.6 5.7 1.7 8.5-5.7 8.7-10.9 17.8-15.5 27.1-1.1 2.3-3.5 3.6-5.9 3.4zm35.1-53.3c-1.3-0.1-2.5-0.6-3.6-1.5-2.6-2.2-2.9-6.1-0.7-8.7 7.1-8.3 14.7-16.2 22.8-23.5 2.5-2.3 6.4-2.1 8.7 0.4 2.3 2.5 2.1 6.4-0.4 8.6-7.7 7-15 14.6-21.7 22.5-1.3 1.6-3.2 2.3-5.1 2.2zm47.1-43.2c-1.8-0.1-3.5-1-4.6-2.6-2-2.7-1.4-6.6 1.4-8.5 8.9-6.4 18.2-12.2 27.8-17.4 3-1.6 6.7-0.5 8.3 2.5 1.6 3 0.5 6.7-2.4 8.3-9.2 5-18.1 10.6-26.5 16.6-1.2 0.8-2.7 1.2-4 1.1zm56.1-30.4c-2.3-0.2-4.4-1.6-5.3-3.9-1.3-3.2 0.3-6.7 3.5-8 10.1-3.9 20.6-7.3 31.1-10 3.3-0.8 6.7 1.1 7.5 4.4 0.8 3.3-1.1 6.7-4.4 7.5-10.1 2.6-20.1 5.8-29.7 9.6-0.9 0.3-1.8 0.5-2.7 0.4zm61.9-15.8c-2.9-0.2-5.4-2.4-5.7-5.3-0.5-3.4 1.9-6.5 5.3-6.9 10.8-1.4 21.8-2.1 32.7-2.1 3.4 0 6.1 2.7 6.2 6.1 0 3.4-2.8 6.2-6.2 6.2-10.4 0-20.9 0.7-31.2 2q-0.6 0.1-1.1 0zm95.3 5.7q-0.5 0-1.1-0.2c-8.7-2.1-17.7-3.9-26.7-5.1q-2-0.3-4-0.5c-3.4-0.4-5.8-3.5-5.4-6.9 0.4-3.3 3.5-5.8 6.9-5.3q2.1 0.2 4.3 0.5c9.4 1.3 18.8 3.1 27.9 5.4 3.3 0.8 5.3 4.1 4.5 7.4-0.7 3-3.5 4.9-6.4 4.7z"/>
					</g>
					<g id="&lt;Group&gt;" style="opacity: .3">
						<path id="&lt;Compound Path&gt;" class="s1" d="m1373.8 1340.6c-3.4-0.3-6-3.2-5.8-6.5 0.2-3.4 3.1-6 6.5-5.8 10.2 0.5 20.6 0.5 30.7-0.2 3.4-0.2 6.3 2.3 6.6 5.7 0.2 3.4-2.4 6.4-5.8 6.6-10.6 0.7-21.5 0.7-32.2 0.2q0 0 0 0zm-31.3-3.6q-0.3-0.1-0.7-0.1c-10.5-1.9-21.1-4.4-31.3-7.5-3.3-1-5.1-4.4-4.1-7.7 1-3.2 4.4-5.1 7.7-4.1 9.7 3 19.8 5.4 29.9 7.2 3.3 0.5 5.5 3.7 5 7.1-0.6 3.1-3.4 5.3-6.5 5.1zm93.9-0.6c-2.7-0.2-5.1-2.2-5.6-5-0.6-3.3 1.6-6.6 4.9-7.2 10-1.9 20.1-4.5 29.8-7.6 3.2-1 6.7 0.7 7.7 4 1 3.2-0.7 6.7-4 7.7-10.2 3.3-20.7 6-31.2 8q-0.8 0.1-1.6 0.1zm-154-17.7q-1.1-0.1-2.1-0.6c-9.8-4.3-19.4-9.3-28.6-14.8-2.9-1.8-3.9-5.5-2.1-8.4 1.7-3 5.5-3.9 8.4-2.2 8.8 5.3 17.9 10 27.3 14.2 3.1 1.4 4.5 5 3.1 8.1-1.1 2.4-3.5 3.8-6 3.7zm213.8-1.5c-2.1-0.2-4.2-1.5-5.1-3.6-1.5-3.1-0.1-6.7 3-8.2 9.2-4.2 18.3-9.1 27-14.5 2.9-1.8 6.7-0.9 8.5 2 1.8 2.9 0.9 6.7-2 8.5-9.1 5.6-18.7 10.7-28.4 15.2-1 0.5-2 0.6-3 0.6zm53.5-33c-1.7-0.1-3.3-0.9-4.4-2.3-2.1-2.7-1.7-6.6 1-8.7 7.9-6.4 15.6-13.3 22.8-20.6 2.4-2.4 6.2-2.4 8.7 0 2.4 2.3 2.4 6.2 0 8.7-7.4 7.6-15.5 14.8-23.9 21.5-1.2 1-2.7 1.5-4.2 1.4zm44-44.9c-1.2-0.1-2.3-0.5-3.3-1.2-2.7-2.1-3.2-6-1.2-8.7 6.3-8.1 12.1-16.6 17.2-25.4 1.8-2.9 5.5-3.9 8.5-2.2 2.9 1.7 3.9 5.5 2.1 8.4-5.4 9.2-11.5 18.2-18 26.7-1.3 1.7-3.3 2.6-5.3 2.4z"/>
						<path id="&lt;Path&gt;" class="s1" d="m1228.2 1286.2c-1.2-0.1-2.3-0.5-3.4-1.3-4.1-3.2-8.2-6.6-12.1-10-2.5-2.3-2.8-6.2-0.5-8.7 2.2-2.6 6.1-2.8 8.7-0.6 3.7 3.3 7.6 6.5 11.5 9.6 2.7 2.1 3.2 6 1.1 8.6-1.3 1.7-3.3 2.5-5.3 2.4z"/>
					</g>
					<g id="&lt;Group&gt;">
						<path id="&lt;Compound Path&gt;" class="s1" d="m1212.4 1170.2c-0.8-1.1-0.8-2.6 0-3.7l22.1-30.8c-6.7-16.4-10.8-34-11.9-52.1l-33.3-18.2c-1.1-0.7-1.8-2-1.5-3.3l7.6-44.8c0.2-1.3 1.2-2.4 2.6-2.6l37.3-6.1c7.1-16.8 16.8-32.1 28.5-45.3l-10.6-36.4c-0.4-1.3 0.1-2.7 1.2-3.4l37.1-26.3c1.1-0.8 2.5-0.8 3.6 0l30.8 22.1c16.4-6.7 34-10.8 52.2-11.9l18.2-33.3c0.6-1.1 1.9-1.8 3.2-1.6l44.9 7.7c1.3 0.2 2.3 1.2 2.5 2.5l6.2 37.4c16.8 7.1 32 16.8 45.3 28.5l36.3-10.6c1.3-0.4 2.7 0.1 3.5 1.2l26.3 37.1c0.7 1 0.7 2.5 0 3.6l-22.1 30.8c6.6 16.4 10.8 34 11.9 52.2l33.2 18.1c1.2 0.7 1.8 2 1.6 3.3l-7.6 44.8c-0.3 1.3-1.3 2.4-2.6 2.6l-37.4 6.1c-7.1 16.8-16.8 32.1-28.5 45.3l10.7 36.4c0.3 1.3-0.2 2.7-1.2 3.4l-37.1 26.3c-1.1 0.8-2.6 0.8-3.6 0l-30.9-22.1c-16.4 6.7-33.9 10.8-52.1 12l-18.2 33.2c-0.7 1.2-2 1.8-3.3 1.6l-44.8-7.7c-1.3-0.2-2.3-1.2-2.6-2.5l-6.1-37.4c-16.8-7.1-32-16.8-45.3-28.5l-36.4 10.6c-1.3 0.4-2.6-0.1-3.4-1.2z"/>
						<path id="&lt;Compound Path&gt;" fill-rule="evenodd" class="s4" d="m1385.2 1119.6c-9.9-0.6-19.3-4.4-27-11-9.4-8.1-15.2-19.3-16.2-31.7-2-25.6 17.2-48.1 42.8-50.1 25.6-2 48 17.2 50 42.8 1 12.3-2.9 24.4-11 33.8-8.1 9.5-19.3 15.2-31.7 16.2q-3.5 0.3-6.9 0zm5.6-80.5q-2.5-0.2-5.1 0c-18.8 1.5-32.9 18-31.4 36.8 0.7 9.1 4.9 17.4 11.9 23.3 6.9 6 15.8 8.8 24.9 8.1 9.1-0.7 17.4-4.9 23.4-11.9 5.9-6.9 8.8-15.8 8-24.9-1.3-17.1-15.1-30.3-31.7-31.4z"/>
						<path id="&lt;Path&gt;" class="s5" d="m1381.4 1188.2q-5.8-0.4-11.7-1.4c-7.8-1.3-15.4-3.4-22.7-6.3q-0.5-0.2-1-0.4c-2.6-1-4.1-3.5-3.9-6.1q0.1-0.9 0.4-1.9c1.3-3.1 4.9-4.6 8-3.4 6.9 2.8 14 4.8 21.3 6q0.6 0.1 1.2 0.2c17.2 2.8 34.5 1.1 50.5-4.5 8.7-3.1 17-7.4 24.8-12.8q0.1 0 0.2-0.1 0.3-0.2 0.6-0.4c22.5-16 37.5-39.9 42.2-67.1q0.9-5.3 1.2-10.6c1.6-23.7-4.9-47.1-18.8-66.7-16-22.6-39.9-37.6-67.2-42.2-27.2-4.7-54.7 1.6-77.3 17.6-22.5 16-37.5 39.8-42.2 67.1q-0.8 5.2-1.2 10.4c-1 15.2 1.3 30.4 6.8 44.5q0.5 1.3 0.4 2.6c-0.2 2.3-1.6 4.5-3.9 5.4-3.2 1.2-6.7-0.4-8-3.5-6.1-15.9-8.7-32.9-7.6-49.8q0.4-5.8 1.4-11.7c5.2-30.5 22-57.1 47.2-75.1 25.3-17.9 56-24.9 86.5-19.7 30.5 5.2 57.2 22 75.1 47.3 15.6 21.9 22.9 48.1 21.1 74.6q-0.4 5.9-1.4 11.8c-10.1 59.1-63.4 100.2-122 96.2z"/>
					</g>
				</g>
			</g>
			<g id="&lt;Group&gt;">
				<g id="&lt;Group&gt;">
					<path id="&lt;Path&gt;" class="s6" d="m2243.1 2582.3l85.6 390.9h-657.2l56.7-390.9z"/>
					<path id="&lt;Path&gt;" class="s7" d="m749.7 1202.5c404.3-9.1 1979.8 27.1 2335.9 38.5 64.2 2 117.9 49.5 127.7 113.1 46.9 301.7 34.3 951.6 26.5 1221.9-2.1 69.5-58.4 125.1-127.9 126.2-404.5 5.9-1890.7-20.6-2315.6-31.6-95.7-2.5-172-80.7-172-176.4v-1163.4c0-69.8 55.7-126.8 125.4-128.3z"/>
					<path id="&lt;Path&gt;" class="s8" d="m778.1 1246.3l2309.4 46.6c39.6 1 71.1 33.4 71 73l-3.8 1095.5c-0.2 55.4-45.6 99.9-101 99.1l-2255.7-27.8c-55.8-0.9-100.7-46.4-100.7-102.3v-1105.3c0-44.3 36.5-79.9 80.8-78.8z"/>
					<path id="&lt;Path&gt;" class="s9" d="m3171.7 2605.8h-0.1l-2474.3-42.1c-1.8-0.1-3.1-1.5-3.1-3.2 0-1.8 1.5-3.1 3.2-3.1l2474.3 42.2c1.8 0 3.2 1.4 3.1 3.1 0 1.8-1.4 3.1-3.1 3.1z"/>
					<path id="&lt;Path&gt;" class="s10" d="m2470.2 3077.1h-961.7c-26.2 0-45.8-18.6-40.7-38.6l12.3-48.8c3.7-14.6 19.9-25.4 39-26l927.2-29c20-0.6 37.8 10.1 42.2 25.3l22.2 77.7c5.8 20.2-13.9 39.4-40.5 39.4z"/>
					<path id="&lt;Path&gt;" class="s9" d="m2026.2 2976.9c-1.7 0-3.1-1.4-3.1-3.1-0.1-1.7 1.3-3.1 3-3.2l39.8-0.5c1.6 0 3.1 1.3 3.2 3 0 1.8-1.4 3.2-3.1 3.2l-39.8 0.6z"/>
					<path id="&lt;Path&gt;" class="s9" d="m1503.4 3050.2q-0.3 0-0.5 0c-1.7-0.3-2.9-1.9-2.6-3.6l5.6-35.5c3.1-19.1 19.3-33.1 38.6-33.4l421.4-6.2h0.1c1.7 0 3.1 1.4 3.1 3.1 0 1.7-1.4 3.1-3.1 3.2l-421.4 6.1c-16.2 0.3-29.9 12.1-32.5 28.2l-5.6 35.5c-0.3 1.5-1.6 2.6-3.1 2.6z"/>
				</g>
				<g id="&lt;Group&gt;">
					<g id="&lt;Group&gt;" style="opacity: .5">
						<path id="&lt;Path&gt;" class="s9" d="m2008.9 2448.8h-59.3v-1046.5h59.3z"/>
						<path id="&lt;Path&gt;" class="s9" d="m2108 2448.8h-59.3v-1046.5h59.3z"/>
						<path id="&lt;Path&gt;" class="s9" d="m2207.2 2448.8h-59.4v-1046.5h59.4z"/>
						<path id="&lt;Path&gt;" class="s9" d="m2306.3 2448.8h-59.3v-1046.5h59.3z"/>
						<path id="&lt;Path&gt;" class="s9" d="m2405.4 2448.8h-59.3v-1046.5h59.3z"/>
						<path id="&lt;Path&gt;" class="s9" d="m2504.6 2448.8h-59.4v-1046.5h59.4z"/>
						<path id="&lt;Path&gt;" class="s9" d="m2603.7 2448.8h-59.3v-1046.5h59.3z"/>
					</g>
					<path id="&lt;Path&gt;" class="s11" d="m2008.9 2448.8h-59.3v-547.7h59.3z"/>
					<path id="&lt;Path&gt;" class="s12" d="m2108 2448.8h-59.3v-359.4h59.3z"/>
					<path id="&lt;Path&gt;" class="s13" d="m2207.2 2448.8h-59.4v-824.6h59.4z"/>
					<path id="&lt;Path&gt;" class="s14" d="m2306.3 2448.8h-59.3v-198.1h59.3z"/>
					<path id="&lt;Path&gt;" class="s15" d="m2405.4 2448.8h-59.3v-714.4h59.3z"/>
					<path id="&lt;Path&gt;" class="s16" d="m2504.6 2448.8h-59.4v-590.7h59.4z"/>
					<path id="&lt;Path&gt;" class="s17" d="m2603.7 2448.8h-59.3v-456.2h59.3z"/>
				</g>
				<g id="&lt;Group&gt;">
					<path id="&lt;Path&gt;" class="s9" d="m1784.5 2454.6l-924.6-7c-18.2-0.1-32.9-14.9-32.9-33.2v-475c0-18.3 14.8-33.2 33.2-33.2h924.5c18.3 0 33.2 14.9 33.2 33.2v482c0 18.4-15 33.3-33.4 33.2z"/>
					<path id="&lt;Path&gt;" class="s18" d="m1783.3 2036.2v349.2c0 17.1-14 31-31.2 30.8l-859.8-6.4c-17-0.2-30.7-13.9-30.7-30.9v-128.4l170.5-177.5 86.5 105.1 112.8-127.5 120.3 129.8 170.5-185.4 118.9 125.7z"/>
					<path id="&lt;Path&gt;" class="s19" d="m1644.9 2416.2h-3.1v-299h3.1z"/>
					<path id="&lt;Path&gt;" class="s19" d="m1523.7 2414.5h-3.1v-419.5h3.1z"/>
					<path id="&lt;Path&gt;" class="s19" d="m1353.3 2413.2h-3.2v-235.1h3.2z"/>
					<path id="&lt;Path&gt;" class="s19" d="m1236.2 2413.2h-3.2v-358h3.2z"/>
					<path id="&lt;Path&gt;" class="s19" d="m1120.2 2413.2h-3.2v-238.9h3.2z"/>
					<path id="&lt;Path&gt;" class="s19" d="m1035.5 2410.9h-3.1v-346.8h3.1z"/>
					<path id="&lt;Path&gt;" class="s20" d="m1060.1 2064.1c0 14.5-11.7 26.2-26.2 26.2-14.4 0-26.1-11.7-26.1-26.2 0-14.4 11.7-26.1 26.1-26.1 14.5 0 26.2 11.7 26.2 26.1z"/>
					<path id="&lt;Path&gt;" class="s21" d="m1135.8 2174.3c0 9.5-7.7 17.2-17.2 17.2-9.5 0-17.2-7.7-17.2-17.2 0-9.5 7.7-17.2 17.2-17.2 9.5 0 17.2 7.7 17.2 17.2z"/>
					<path id="&lt;Path&gt;" class="s22" d="m1251.8 2055.2c0 9.5-7.7 17.2-17.2 17.2-9.5 0-17.2-7.7-17.2-17.2 0-9.5 7.7-17.2 17.2-17.2 9.5 0 17.2 7.7 17.2 17.2z"/>
					<path id="&lt;Path&gt;" class="s23" d="m1368.9 2178.1c0 9.5-7.7 17.2-17.2 17.2-9.5 0-17.2-7.7-17.2-17.2 0-9.5 7.7-17.2 17.2-17.2 9.5 0 17.2 7.7 17.2 17.2z"/>
					<path id="&lt;Path&gt;" class="s24" d="m1539.4 1995c0 9.5-7.7 17.2-17.2 17.2-9.5 0-17.2-7.7-17.2-17.2 0-9.5 7.7-17.2 17.2-17.2 9.5 0 17.2 7.7 17.2 17.2z"/>
					<path id="&lt;Path&gt;" class="s25" d="m1660.6 2117.2c0 9.5-7.8 17.2-17.3 17.2-9.5 0-17.2-7.7-17.2-17.2 0-9.5 7.7-17.2 17.2-17.2 9.5 0 17.3 7.7 17.3 17.2z"/>
				</g>
				<g id="&lt;Group&gt;" style="opacity: .5">
					<path id="&lt;Path&gt;" class="s19" d="m1113.3 1840.5c0 7.4-8.6 13.4-19.2 13.4h-253.4c-10.6 0-19.2-6-19.2-13.4 0-7.4 8.6-13.4 19.2-13.4h253.4c10.6 0 19.2 6 19.2 13.4z"/>
					<path id="&lt;Path&gt;" class="s9" d="m1113.3 1781.3c0 7.4-8.6 13.4-19.2 13.4h-253.4c-10.6 0-19.2-6-19.2-13.4 0-7.4 8.6-13.4 19.2-13.4h253.4c10.6 0 19.2 6 19.2 13.4z"/>
					<path id="&lt;Path&gt;" class="s9" d="m1113.3 1722.1c0 7.4-8.6 13.4-19.2 13.4h-253.4c-10.6 0-19.2-6-19.2-13.4 0-7.4 8.6-13.4 19.2-13.4h253.4c10.6 0 19.2 6 19.2 13.4z"/>
				</g>
				<g id="&lt;Group&gt;" style="opacity: .5">
					<path id="&lt;Path&gt;" class="s9" d="m1465.6 1840.5c0 7.4-8.6 13.4-19.2 13.4h-253.4c-10.6 0-19.2-6-19.2-13.4 0-7.4 8.6-13.4 19.2-13.4h253.4c10.6 0 19.2 6 19.2 13.4z"/>
					<path id="&lt;Path&gt;" class="s9" d="m1465.6 1781.3c0 7.4-8.6 13.4-19.2 13.4h-253.4c-10.6 0-19.2-6-19.2-13.4 0-7.4 8.6-13.4 19.2-13.4h253.4c10.6 0 19.2 6 19.2 13.4z"/>
					<path id="&lt;Path&gt;" class="s9" d="m1465.6 1722.1c0 7.4-8.6 13.4-19.2 13.4h-253.4c-10.6 0-19.2-6-19.2-13.4 0-7.4 8.6-13.4 19.2-13.4h253.4c10.6 0 19.2 6 19.2 13.4z"/>
				</g>
				<g id="&lt;Group&gt;" style="opacity: .5">
					<path id="&lt;Path&gt;" class="s9" d="m1817.9 1840.5c0 7.4-8.6 13.4-19.2 13.4h-253.4c-10.6 0-19.2-6-19.2-13.4 0-7.4 8.6-13.4 19.2-13.4h253.4c10.6 0 19.2 6 19.2 13.4z"/>
					<path id="&lt;Path&gt;" class="s9" d="m1817.9 1781.3c0 7.4-8.6 13.4-19.2 13.4h-253.4c-10.6 0-19.2-6-19.2-13.4 0-7.4 8.6-13.4 19.2-13.4h253.4c10.6 0 19.2 6 19.2 13.4z"/>
					<path id="&lt;Path&gt;" class="s9" d="m1817.9 1722.1c0 7.4-8.6 13.4-19.2 13.4h-253.4c-10.6 0-19.2-6-19.2-13.4 0-7.4 8.6-13.4 19.2-13.4h253.4c10.6 0 19.2 6 19.2 13.4z"/>
				</g>
				<g id="&lt;Group&gt;">
					<g id="&lt;Group&gt;">
						<path id="&lt;Path&gt;" class="s26" d="m2988.3 1882.8c0 64.7-52.5 117.2-117.3 117.2-64.8 0-117.3-52.5-117.3-117.2 0-64.8 52.5-117.3 117.3-117.3 64.8 0 117.3 52.5 117.3 117.3z"/>
						<path id="&lt;Path&gt;" class="s27" d="m2958.2 1850.4c4.7 11.1 7.2 23.4 7.2 36.2 0 52.1-42.2 94.4-94.4 94.4-52.1 0-94.4-42.3-94.4-94.4 0-52.1 42.3-94.4 94.4-94.4q1.9 0 3.8 0.1v19.1q-1.9-0.1-3.8-0.1c-41.6 0-75.3 33.7-75.3 75.3 0 41.6 33.7 75.3 75.3 75.3 41.6 0 75.3-33.7 75.3-75.3 0-10.1-2-19.8-5.6-28.6z"/>
						<path id="&lt;Path&gt;" class="s9" d="m2989.1 2071.4c0 12-9.7 21.7-21.7 21.7h-191.1c-12 0-21.7-9.7-21.7-21.7 0-12 9.7-21.7 21.7-21.7h191.1c12 0 21.7 9.7 21.7 21.7z"/>
					</g>
					<g id="&lt;Group&gt;">
						<path id="&lt;Path&gt;" class="s26" d="m2987.8 1505.8c0 64.8-52.5 117.3-117.3 117.3-64.8 0-117.3-52.5-117.3-117.3 0-64.7 52.5-117.2 117.3-117.2 64.8 0 117.3 52.5 117.3 117.2z"/>
						<path id="&lt;Path&gt;" class="s28" d="m2919.8 1590c-14.4 8.9-31.4 14.1-49.6 14.1-52.1 0-94.4-42.3-94.4-94.4 0-52.2 42.3-94.4 94.4-94.4q1.9 0 3.8 0.1v19.1q-1.9-0.1-3.8-0.1c-41.6 0-75.3 33.7-75.3 75.3 0 41.6 33.7 75.3 75.3 75.3 14.8 0 28.5-4.2 40.2-11.6z"/>
						<path id="&lt;Path&gt;" class="s9" d="m2989.6 1694.5c0 12-9.7 21.7-21.7 21.7h-191.1c-12 0-21.7-9.7-21.7-21.7 0-12 9.7-21.7 21.7-21.7h191.1c12 0 21.7 9.7 21.7 21.7z"/>
					</g>
					<g id="&lt;Group&gt;">
						<path id="&lt;Path&gt;" class="s26" d="m2988.7 2261.6c0 64.8-52.5 117.3-117.3 117.3-64.7 0-117.2-52.5-117.2-117.3 0-64.8 52.5-117.3 117.2-117.3 64.8 0 117.3 52.5 117.3 117.3z"/>
						<path id="&lt;Path&gt;" class="s29" d="m2950.8 2315.1c-17.1 24.7-45.5 40.9-77.8 40.9-52.1 0-94.4-42.3-94.4-94.4 0-52.1 42.3-94.4 94.4-94.4q1.9 0 3.8 0.1v19.1q-1.9-0.1-3.8-0.1c-41.6 0-75.3 33.7-75.3 75.3 0 41.6 33.7 75.3 75.3 75.3 25.9 0 48.7-13 62.3-32.9z"/>
						<path id="&lt;Path&gt;" class="s9" d="m2754.2 2446.4c0-12 9.7-21.7 21.7-21.7h191.1c12 0 21.7 9.7 21.7 21.7 0 12-9.7 21.7-21.7 21.7h-191.1c-12 0-21.7-9.7-21.7-21.7z"/>
					</g>
				</g>
			</g>
			<g id="&lt;Group&gt;">
				<path id="&lt;Path&gt;" class="s9" d="m3164.8 662.9l-3.9 410c-0.2 17.5-10.4 31.7-23.3 32.2l-1103.3 23.6c-13.4 0.6-24.5-14-24.6-32.3l-2.5-439c-0.1-18.2 10.8-33 24.1-32.9l1109.7 5.3c13.2 0.1 23.9 15 23.8 33.1z"/>
				<path id="&lt;Compound Path&gt;" fill-rule="evenodd" class="s30" d="m2033.6 1100.6c-2 0-3.6-2-3.6-4.4l-2.5-439.1q0-1.7 0.9-3c0.9-1.2 2-1.4 2.8-1.4l1109.6 5.3c0.8 0 1.8 0.3 2.7 1.5q0.9 1.3 0.9 3l-3.8 410c-0.1 2.5-1.6 4.4-3.6 4.4zm-2.4-445c-0.1 0-0.3 0-0.5 0.3q-0.4 0.5-0.4 1.3l2.5 439c0 1 0.5 1.6 0.8 1.6l1103.3-23.6c0.3-0.1 0.8-0.7 0.8-1.6l3.9-410.1q0-0.8-0.4-1.3c-0.2-0.3-0.4-0.3-0.4-0.3z"/>
				<g id="&lt;Group&gt;" style="opacity: .6">
					<path id="&lt;Path&gt;" class="s19" d="m2130.3 1063h-54v-206.3h54z"/>
					<path id="&lt;Path&gt;" class="s19" d="m2220.6 1063h-54v-135.4h54z"/>
					<path id="&lt;Path&gt;" class="s19" d="m2310.8 1063h-54v-310.7h54z"/>
					<path id="&lt;Path&gt;" class="s19" d="m2401 1063h-54v-74.6h54z"/>
					<path id="&lt;Path&gt;" class="s19" d="m2491.2 1063h-54v-269.1h54z"/>
					<path id="&lt;Path&gt;" class="s19" d="m2581.5 1063h-54v-222.5h54z"/>
					<path id="&lt;Path&gt;" class="s19" d="m2671.7 1063h-54v-171.9h54z"/>
					<path id="&lt;Path&gt;" class="s19" d="m2761.9 1063h-54v-373.5h54z"/>
					<path id="&lt;Path&gt;" class="s19" d="m2852.2 1063h-54v-334h54z"/>
					<path id="&lt;Path&gt;" class="s19" d="m2942.4 1063h-54v-274.2h54z"/>
					<path id="&lt;Path&gt;" class="s19" d="m3032.6 1063h-54v-67.7h54z"/>
					<path id="&lt;Path&gt;" class="s19" d="m3122.8 1063h-54v-199.2h54z"/>
				</g>
			</g>
			<g id="&lt;Group&gt;">
				<path id="&lt;Path&gt;" class="s9" d="m1846.9 1153l-3.8 395.3c-0.1 16.8-10 30.5-22.4 31l-1063.5 22.8c-13 0.5-23.7-13.6-23.8-31.2l-2.4-423.2c-0.1-17.6 10.4-31.8 23.3-31.7l1069.6 5.1c12.8 0.2 23.1 14.4 23 31.9z"/>
				<path id="&lt;Compound Path&gt;" fill-rule="evenodd" class="s31" d="m756.5 1574.9c-2 0-3.5-1.8-3.5-4.2l-2.4-423.2q0-1.7 0.9-2.9c0.8-1.2 1.9-1.4 2.6-1.4l1069.7 5.1c0.7 0 1.7 0.3 2.6 1.4q0.9 1.3 0.9 2.9l-3.8 395.3c0 2.4-1.4 4.2-3.3 4.3h-0.1zm-2.4-429.1c0 0-0.2 0-0.4 0.3q-0.3 0.5-0.3 1.3l2.3 423.2c0 0.9 0.5 1.5 0.8 1.5l1063.6-22.8c0.3 0 0.7-0.6 0.7-1.5l3.8-395.3q0-0.7-0.4-1.2c-0.2-0.3-0.3-0.3-0.4-0.3z"/>
				<g id="&lt;Group&gt;">
					<path id="&lt;Path&gt;" class="s19" d="m1054.6 1303.7c0 61.2-49.5 110.8-110.7 110.8-61.2 0-110.7-49.6-110.7-110.8 0-61.1 49.5-110.7 110.7-110.7 61.2 0 110.7 49.6 110.7 110.7z"/>
					<path id="&lt;Path&gt;" class="s19" d="m1328.9 1303.7c0 61.2-49.6 110.8-110.7 110.8-61.2 0-110.8-49.6-110.8-110.8 0-61.1 49.6-110.7 110.8-110.7 61.1 0 110.7 49.6 110.7 110.7z"/>
					<path id="&lt;Path&gt;" class="s19" d="m1604.2 1307.4c0 61.1-49.6 110.7-110.8 110.7-61.1 0-110.7-49.6-110.7-110.7 0-61.2 49.6-110.8 110.7-110.8 61.2 0 110.8 49.6 110.8 110.8z"/>
					<g id="&lt;Group&gt;">
						<path id="&lt;Path&gt;" class="s32" d="m1026.2 1273.1c4.4 10.6 6.9 22.1 6.9 34.3 0 49.2-40 89.1-89.2 89.1-49.2 0-89.1-39.9-89.1-89.1 0-49.3 39.9-89.2 89.1-89.2q1.8 0 3.6 0.1v18q-1.8-0.1-3.6-0.1c-39.3 0-71.1 31.9-71.1 71.2 0 39.2 31.8 71.1 71.1 71.1 39.3 0 71.1-31.9 71.1-71.1 0-9.6-1.9-18.7-5.3-27.1z"/>
						<path id="&lt;Path&gt;" class="s33" d="m1264.8 1383.2c-13.6 8.4-29.7 13.3-46.9 13.3-49.2 0-89.1-39.9-89.1-89.1 0-49.3 39.9-89.2 89.1-89.2q1.8 0 3.6 0.1v18q-1.8-0.1-3.6-0.1c-39.3 0-71.1 31.9-71.1 71.2 0 39.2 31.8 71.1 71.1 71.1 14 0 27-4 37.9-11z"/>
						<path id="&lt;Path&gt;" class="s34" d="m1568.3 1357.9c-16.1 23.3-42.9 38.6-73.4 38.6-49.2 0-89.2-39.9-89.2-89.1 0-49.3 40-89.2 89.2-89.2q1.8 0 3.6 0.1v18q-1.8-0.1-3.6-0.1c-39.3 0-71.1 31.9-71.1 71.2 0 39.2 31.8 71.1 71.1 71.1 24.5 0 46-12.4 58.8-31.2z"/>
					</g>
					<g id="&lt;Group&gt;">
						<path id="&lt;Path&gt;" class="s35" d="m1055.4 1481.9c0 11.3-9.1 20.5-20.5 20.5h-180.4c-11.4 0-20.6-9.2-20.6-20.5 0-11.3 9.2-20.5 20.6-20.5h180.4c11.4 0 20.5 9.2 20.5 20.5z"/>
						<path id="&lt;Path&gt;" class="s35" d="m1330.7 1481.9c0 11.3-9.2 20.5-20.5 20.5h-180.5c-11.3 0-20.5-9.2-20.5-20.5 0-11.3 9.2-20.5 20.5-20.5h180.5c11.3 0 20.5 9.2 20.5 20.5z"/>
						<path id="&lt;Path&gt;" class="s35" d="m1382.7 1481.9c0-11.3 9.2-20.5 20.5-20.5h180.5c11.3 0 20.5 9.2 20.5 20.5 0 11.3-9.2 20.5-20.5 20.5h-180.5c-11.3 0-20.5-9.2-20.5-20.5z"/>
					</g>
				</g>
			</g>
			<g id="&lt;Group&gt;">
				<path id="&lt;Path&gt;" class="s36" d="m935.1 3156.3l162.5 74.7c4 1.9 7.2 5.2 8.8 9.4 2 4.9-1.5 10.3-6.8 10.6-35.3 1.6-133.7-2.2-179.7-4.1-13.5-0.6-23.9-12.3-22.7-25.8 3-34.5 9.2-69.4 9.2-69.4z"/>
				<path id="&lt;Path&gt;" class="s37" d="m942.4 3124.8l11.8 46.5c-19.5 14.9-47.9 1.6-47.9 1.6l-5-41.7z"/>
				<path id="&lt;Path&gt;" class="s38" d="m905 2346.6c-2.1 10.9-11.4 543.8 45.5 782.7 1 3.9-1 7.9-4.7 9.4-8.8 3.6-25.9 8.8-46.4 9.5-6.4 0.2-12.1-4-13.9-10.1-16.3-55.4-94.3-333-104.5-598.3-11.4-296.3 0-10 0-10l6.7-183.2z"/>
				<path id="&lt;Path&gt;" class="s39" d="m756 3171.9c20 21.8 26.4 49.9 28.5 66.9 1 8.6-5.7 16.1-14.3 16.2-18.8 0.1-42.1-1.8-57.3-3.3-8.6-0.8-14.5-8.9-12.8-17.4 9.5-46.8 19.3-64.4 19.3-64.4z"/>
				<path id="&lt;Path&gt;" class="s40" d="m750.9 3113.8l5.5 67.9c-22.6 6.1-34-2.4-34-2.4l-11.6-63.1z"/>
				<path id="&lt;Path&gt;" class="s41" d="m909.7 2333.4l-6.4 96.9-84.3 59.9c-6.8 4.8-11.7 11.8-13.9 19.9-43.4 158.8-38.8 560.8-41.4 626.3-0.2 5-3.5 9.3-8.3 10.7-13.8 4-27.9 2.8-36.4 1.4-5.1-0.8-9.1-4.6-10.2-9.6-19.2-81-75.9-494.8-29.3-776z"/>
				<g id="&lt;Group&gt;">
					<path id="&lt;Path&gt;" class="s42" d="m1118.8 1807.3c7.3 30.8 23.9 82.8 59.2 123.8-46.3 26-102.5 45.7-170.7 54.1 0 0-83.8 285.7-101.8 387.2 0 0-121.9 45.7-230 17.4 0 0-34.4-280.2 7.2-523 0 0 154.1-39 293.7-36.7 43.1 0.7 93.1-7.5 142.4-22.8z"/>
					<path id="&lt;Path&gt;" class="s43" d="m1178 1931.1c-35.3-41-51.9-93-59.2-123.8 110.7-34.4 218.5-104.8 239-191.6 0 0 17.4-7.8 31.1 8.7 0 0-27.2 203.4-210.9 306.7z"/>
				</g>
				<g id="&lt;Group&gt;">
					<path id="&lt;Path&gt;" class="s44" d="m1385.6 1628.7c1.4 4.5-15.2 11.5-25-7.2-0.3-8.9-5.8-47.3-0.4-54.5 28.4-38.9 83.6-87.5 83.6-87.5 9.3 9.2 1.7 18.2 1.7 18.2l-26.8 27.9c5.6 10.2 12.4 18.7 15.6 30.9 2.4 9.3 1 19.2-3.7 27.6-4.7 8.5-11.1 19.5-17.2 28.1-11.5 16.3-27.8 16.5-27.8 16.5z"/>
					<path id="&lt;Path&gt;" class="s45" d="m1409.4 1559.4c-5.4 8.9-12.7 49.7-12.7 49.7l-21.8-24.1 7.7-20.6 24.4-20.7c5 2.6 7.9 6.9 2.4 15.7z"/>
				</g>
				<path id="&lt;Path&gt;" class="s46" d="m644.2 2098.1c-43.9-22.1-88.7-28.5-113.3-30.3 21.4-112.4 151.8-201 151.8-201l53.6 135.2c0 0-82.4 43.1-92.1 96.1z"/>
				<path id="&lt;Path&gt;" class="s47" d="m869.7 2165.3c0 0-235.4 167.1-322 8.8-19.9-36.4-23.3-72.5-16.8-106.3 24.6 1.8 69.4 8.2 113.3 30.3-2.5 13.9 0 28.5 10.2 43.2 49.4 70.7 195.9-12.1 195.9-12.1z"/>
				<g id="&lt;Group&gt;">
					<path id="&lt;Path&gt;" class="s48" d="m832.7 2233.9l79.9-279.1c0.9-3.2 3.6-5.5 6.9-5.8 14.5-1.7 56.4-6.5 104.9-10.6 58.3-4.9 126.1-8.9 166.6-5.5 5.7 0.5 9.2 6.6 6.6 11.7-23 46.6-117.7 236.1-165.1 298.2-1.6 2.1-4 3.3-6.6 3.2l-185.4-1.7c-5.4 0-9.3-5.2-7.8-10.4z"/>
					<path id="&lt;Path&gt;" class="s49" d="m1032.7 1914.2l57.9-9.6c3.1-0.5 5.6 2.4 4.6 5.4l-5.7 17.4c-0.5 1.5-1.8 2.6-3.4 2.8l-55.8 7.4c-2.9 0.4-5.2-2.2-4.6-5l3.6-15.2c0.4-1.7 1.7-2.9 3.4-3.2z"/>
					<path id="&lt;Path&gt;" class="s50" d="m989.3 1963.3l4.7-24.9c0.5-2.5 2.6-4.4 5.1-4.6l117-11.9c4-0.4 7.1 3.2 6.2 7.1l-7.4 30.9c-0.6 2.5-2.8 4.3-5.3 4.4l-114.4 5.8c-3.7 0.2-6.6-3.2-5.9-6.8z"/>
					<path id="&lt;Path&gt;" class="s51" d="m852 2166.5c0 0-11.1-45.8-6.7-62 4.5-16.3 13.2-37.2 42.2-32.5 29 4.6 63.2 16.8 63.2 16.8 0 0-1.7 21.2-23.7 14.4l13.6 10.5c0 0-1.9 17-20.5 7.9l12.7 14.1c0 0-8 13.9-21.7 4.9-13.7-8.9-20.3 31.4-59.1 25.9z"/>
				</g>
				<path id="&lt;Path&gt;" class="s52" d="m925.4 1716.8l-14.4 111.2c-0.8 6.4-4.5 12.1-10 15.5-52.6 33.4-96.2 14-108.3 7.3-2-1.1-2.9-3.4-2.1-5.6l44.4-128.4z"/>
				<g id="&lt;Group&gt;">
					<path id="&lt;Path&gt;" class="s53" d="m931.7 1597.8c0 0 48.8 91.8 42.5 128.9-6.2 37.1-66.7 34.4-119.5 4.3l-36.9-99.2z"/>
					<path id="&lt;Path&gt;" class="s54" d="m850.2 1685.3c-1.8 0.8-2.7 2.9-2.1 4.8l13.8 40.2c0.9 2.6-1.2 5.3-4 5-31.9-3.7-61.4-34.5-68-41.8-0.8-0.9-2.1-1.3-3.3-1.1-7.7 1.1-34.5 3.2-35.9-20.8-0.9-17.4 8.7-23.7 16.1-26 2.7-0.8 3.6-4.2 1.6-6.2-6.2-6.3-12.9-19.3-2.5-42.2 12.6-27.7 39.7-25.9 50.9-23.7 2.4 0.4 4.6-1.5 4.5-3.9-0.3-8.2 2.2-24.6 24.5-34.6 23.8-10.7 41 7 47.5 15.5 1.6 1.9 4.5 1.9 6-0.1 39.9-51.7 64.8 13.2 55.3 39-9.7 26.5-56.1 38-87.2 45.5-31.1 7.4-22.3 13.1-22.3 13.1 2.3 10.6 9.7 22.8 13.6 28.8 1.3 1.9 0.5 4.6-1.7 5.5z"/>
					<path id="&lt;Path&gt;" class="s55" d="m873.3 1705.8c-16.7 7.5-50.5-1.5-48-21.5 2.5-20.1 37.3 3.7 37.3 3.7z"/>
				</g>
			</g>
		</g>
	</g>
</svg>